<?xml version="1.0" encoding="UTF-8" standalone="no"?>
<svg width="175px" height="67px" viewBox="0 0 175 67" version="1.1" xmlns="http://www.w3.org/2000/svg" xmlns:xlink="http://www.w3.org/1999/xlink" xmlns:sketch="http://www.bohemiancoding.com/sketch/ns">
    <!-- Generator: Sketch 3.0.4 (8054) - http://www.bohemiancoding.com/sketch -->
    <title>dokt</title>
    <desc>Created with Sketch.</desc>
    <defs></defs>
    <g id="Page-1" stroke="none" stroke-width="1" fill="none" fill-rule="evenodd" sketch:type="MSPage">
        <path style="fill: #555" d="M105.355,50.786 L86.322,17.789 C98.229,18.724 107.637,28.69 107.637,40.833 C107.637,44.399 106.801,47.765 105.355,50.786 L105.355,50.786 Z M94.988,51.091 L94.988,38.944 C98.186,44.485 101.083,49.509 101.994,51.091 L94.988,51.091 L94.988,51.091 Z M84.497,63.974 C76.699,63.974 69.805,60.085 65.611,54.157 L74.005,54.155 L74.005,54.157 L94.988,54.157 L94.988,54.155 L103.385,54.155 C99.191,60.085 92.297,63.974 84.497,63.974 L84.497,63.974 Z M74.005,39.003 L74.005,51.095 L67.005,51.095 C67.919,49.515 70.81,44.522 74.005,39.003 L74.005,39.003 Z M61.358,40.833 C61.358,28.663 70.807,18.682 82.753,17.783 L63.642,50.79 C62.194,47.77 61.358,44.401 61.358,40.833 L61.358,40.833 Z M91.926,36.237 L91.926,51.091 C87.239,51.091 81.757,51.091 77.069,51.095 L77.069,36.237 L91.926,36.237 L91.926,36.237 Z M84.533,20.819 C85.456,22.42 88.416,27.551 91.66,33.175 L77.38,33.175 C80.636,27.551 83.607,22.42 84.533,20.819 L84.533,20.819 Z M84.497,14.633 C70.049,14.633 58.294,26.387 58.294,40.833 C58.294,45.603 59.595,50.061 61.829,53.919 L61.692,54.157 L61.976,54.157 C66.544,61.853 74.916,67.036 84.497,67.036 C94.079,67.036 102.451,61.849 107.021,54.155 L107.298,54.155 L107.163,53.921 C109.398,50.065 110.699,45.603 110.699,40.833 C110.699,26.387 98.945,14.633 84.497,14.633 L84.497,14.633 Z M174.762,20.744 L174.762,17.681 L166.368,17.681 L166.368,4.751 L163.305,4.751 L163.305,17.681 L157.321,17.681 L157.321,20.744 L163.305,20.744 L163.305,59.62 C163.305,63.778 166.561,67.036 170.72,67.036 C172.969,67.036 174.168,66.645 174.297,66.601 L173.313,63.698 C173.305,63.702 172.434,63.974 170.72,63.974 C167.996,63.974 166.368,61.759 166.368,59.62 L166.368,20.744 L174.762,20.744 L174.762,20.744 Z M151.419,18.558 L149.328,16.32 L119.721,43.972 L119.721,0 L116.657,0 L116.657,66.044 L119.721,66.044 L119.721,48.163 L131.378,37.276 L151.959,66.388 L154.46,64.62 L133.637,35.167 L151.419,18.558 L151.419,18.558 Z M22.465,63.974 L3.063,63.974 L3.063,3.725 L22.465,3.725 C33.048,3.725 50.802,7.617 50.802,33.681 C50.802,60.036 33.048,63.974 22.465,63.974 L22.465,63.974 Z M22.465,0.662 L0,0.662 L0,67.036 L22.465,67.036 C31.907,67.036 53.866,63.784 53.866,33.681 C53.866,12.697 42.419,0.662 22.465,0.662 L22.465,0.662 Z" id="dokt" fill="#1B1A19" sketch:type="MSShapeGroup"></path>
    </g>
</svg>
