<?xml version="1.0" encoding="UTF-8" standalone="no"?>
<svg width="551px" height="302px" viewBox="0 0 551 302" version="1.1" xmlns="http://www.w3.org/2000/svg" xmlns:xlink="http://www.w3.org/1999/xlink" xmlns:sketch="http://www.bohemiancoding.com/sketch/ns">
    <!-- Generator: Sketch 3.0.4 (8054) - http://www.bohemiancoding.com/sketch -->
    <title>Mark</title>
    <desc>Created with Sketch.</desc>
    <defs></defs>
    <g id="Welcome" stroke="none" stroke-width="1" fill="none" fill-rule="evenodd" sketch:type="MSPage">
        <g id="Desktop-HD" sketch:type="MSArtboardGroup" transform="translate(-445.000000, -134.000000)" fill="#FFFFFF">
            <g id="Cover-Mask-+-Bitmap-+-Mark" sketch:type="MSLayerGroup" transform="translate(-23.000000, 63.000000)">
                <g id="Mark" transform="translate(468.000000, 72.000000)" sketch:type="MSShapeGroup">
                    <path d="M275.282773,173.572251 C247.405038,173.572251 222.759124,159.469374 208.071421,138.012365 L342.494124,138.017629 C327.801166,159.469374 303.160507,173.572251 275.282773,173.572251 L275.282773,173.572251 Z M193.830392,91.9819221 C193.830392,49.0889614 227.036688,13.8238727 269.045097,10.628484 L201.839,127.241747 C196.710127,116.56062 193.830392,104.600286 193.830392,91.9819221 L193.830392,91.9819221 Z M312.157054,84.8436238 C323.413247,104.368659 333.592167,122.035421 336.734653,127.489165 L312.157054,127.489165 L312.157054,84.8436238 L312.157054,84.8436238 Z M238.408492,127.489165 C226.773939,127.489165 217.672292,127.483901 213.830892,127.483901 C216.973378,122.035421 227.152298,104.373924 238.408492,84.8436238 L238.408492,127.489165 L238.408492,127.489165 Z M248.918476,74.5520506 L301.652324,74.5520506 L301.652324,127.373352 L248.918476,127.373352 L248.918476,74.5520506 Z M275.288028,20.8621506 C278.451533,26.3632728 288.788103,44.2932463 300.159906,64.023587 L250.405639,64.023587 C261.777442,44.2932463 272.114012,26.3632728 275.288028,20.8621506 L275.288028,20.8621506 Z M356.735154,91.9819221 C356.735154,104.600286 353.855418,116.56062 348.726545,127.236482 L281.520449,10.628484 C323.528857,13.8291369 356.735154,49.0942257 356.735154,91.9819221 L356.735154,91.9819221 Z M367.245138,91.9819221 C367.245138,41.197878 326.009214,-0.115813099 275.319558,-0.136870027 C224.556332,-0.121077331 183.320407,41.1926138 183.320407,91.9819221 C183.320407,108.727443 187.808171,124.44644 195.638109,137.991308 C211.571246,165.539033 241.303992,184.100714 275.282773,184.100714 C309.261553,184.100714 338.989045,165.544297 354.911671,138.017629 C362.75212,124.44644 367.245138,108.727443 367.245138,91.9819221 Z" id="Fill-1"></path>
                    <path d="M9.93193548,253.878107 C10.7727343,253.772822 12.1915822,253.562253 12.979831,253.456968 C14.346129,253.199021 15.029278,252.82526 15.2394777,251.672393 C15.3445776,250.930137 15.712427,247.350459 15.712427,239.769965 L15.712427,234.400449 C15.712427,224.877454 15.6598771,223.029708 15.4496774,223.029708 L11.1931336,223.029708 C6.25344086,223.029708 3.94124424,223.871985 3.52084485,224.135197 C2.89024578,224.608978 2.52239631,225.561804 1.78669739,227.714875 C1.78669739,227.872801 1.52394777,227.872801 1.31374808,227.772781 C0.893348694,227.556948 0.15764977,226.877862 0,226.71467 C0.735698925,225.188043 1.78669739,222.819139 2.99534562,218.870965 C3.20554531,218.818323 3.57339478,218.870965 3.99379416,218.981514 C4.36164363,219.081534 4.41419355,219.134177 4.46674347,219.344746 C4.46674347,220.297572 4.57184332,220.71871 4.93969278,220.818731 C5.36009217,220.92928 6.14834101,220.976658 7.35698925,221.0293 C8.93348694,221.081942 11.4558833,221.081942 16.3430261,221.081942 C22.0709677,221.081942 26.4851613,221.081942 29.5330568,220.92928 C31.0570046,220.871373 31.9503533,220.766089 32.4758525,220.608162 C32.7911521,220.508141 33.1064516,220.087003 33.4217512,219.134177 C33.4743011,218.923607 33.526851,218.923607 33.6845008,218.923607 C33.9472504,218.923607 34.6303994,219.134177 35.0507988,219.402653 C35.1558986,219.450031 35.1558986,219.6606 35.0507988,220.087003 C33.9998003,222.819139 33.9472504,224.082555 33.6845008,227.299 C33.6845008,227.556948 33.526851,227.714875 33.1064516,227.714875 C32.7911521,227.714875 32.4233026,227.662232 32.160553,227.60959 C32.0029032,227.556948 31.8978034,227.399021 31.8978034,227.299 C31.8978034,226.877862 32.0029032,225.030116 32.0029032,224.556335 C32.0029032,224.187839 31.7927035,223.766701 31.1621045,223.561396 C30.6891551,223.350826 28.1667588,223.029708 24.4357143,223.029708 L21.0199693,223.029708 C20.54702,223.029708 20.3368203,223.350826 20.2842704,224.398408 C20.2842704,225.293328 20.1266206,227.872801 20.1266206,234.926872 L20.1266206,240.191104 C20.1266206,247.771598 20.2842704,250.035217 20.49447,250.988043 C20.6521198,251.882963 21.0199693,252.562049 21.6505684,252.877902 C22.596467,253.40959 24.9612135,253.72018 26.1698618,253.830728 C26.4851613,253.830728 26.5377112,253.878107 26.4851613,254.036033 L26.2749616,255.08888 C26.2224117,255.299449 26.1698618,255.409998 25.8020123,255.409998 C25.1714132,255.409998 20.6521198,255.246807 18.0771736,255.246807 C15.3445776,255.246807 11.1931336,255.457376 10.7727343,255.457376 C10.3523349,255.457376 10.1421352,255.299449 10.0895853,255.036238 L9.93193548,253.878107" id="Fill-3"></path>
                    <path d="M56.7013671,236.985187 C59.0661137,236.985187 60.8528111,236.92728 62.1665591,236.821996 C65.3195545,236.611426 65.5823041,236.400857 66.2654531,233.29496 C66.4756528,233.137033 67.6843011,233.037013 67.9470507,233.084391 C67.8419508,234.611018 67.5266513,237.032565 67.5266513,238.664477 C67.5792012,240.45958 67.736851,241.9283 67.8945008,243.454928 C67.4741014,243.565476 67.053702,243.612855 66.6858525,243.612855 C66.4231029,243.665497 66.3180031,243.50757 66.2129032,243.302265 C66.0027035,242.717935 65.7399539,241.875658 65.5823041,241.24395 C65.2670046,239.827872 64.6364055,239.354091 62.5344086,239.1909 C61.3783103,239.085615 59.6441628,239.085615 56.9641167,239.085615 C54.3366206,239.085615 53.8111214,239.143522 53.4958218,239.1909 C53.2856221,239.243542 53.1279724,239.296184 52.9703226,239.506754 C52.8126728,239.827872 52.4973733,241.665089 52.4973733,245.981759 C52.4973733,249.824648 52.4973733,251.245991 53.0228725,252.093532 C53.7585714,253.088472 55.5978187,253.351683 59.9069124,253.351683 C66.0552535,253.351683 68.9980492,252.777882 70.6270968,247.192532 C70.8372965,247.13989 71.3627957,247.192532 71.8882949,247.250439 C72.0459447,247.350459 72.0459447,247.403101 72.0459447,247.666313 C71.9408449,250.08786 71.1000461,253.456968 70.4168971,254.983595 C70.1541475,255.299449 69.9964977,255.409998 69.7337481,255.409998 C69.3658986,255.409998 68.9980492,255.409998 67.2639017,255.352091 C65.687404,255.299449 62.0089094,255.246807 57.6472657,255.246807 C53.4432719,255.246807 49.291828,255.457376 45.0878341,255.620567 C44.9827343,255.562661 44.9301843,254.457172 44.9827343,254.036033 C44.9827343,253.930749 45.140384,253.830728 45.1929339,253.830728 C47.6102304,253.40959 47.8204301,253.035829 47.87298,252.246195 C47.9780799,251.461824 48.2408295,248.087452 48.2408295,242.717935 L48.2408295,233.610814 C48.2408295,226.609386 47.92553,224.293124 47.87298,223.97727 C47.8204301,223.661416 47.7153303,223.398204 47.189831,223.29292 C46.6643318,223.082351 45.6658833,222.929688 44.4046851,222.60857 C44.3521352,222.555927 44.3521352,222.555927 44.3521352,222.398 L44.457235,221.192491 C44.457235,220.976658 44.457235,220.92928 44.7199846,220.92928 L46.559232,220.92928 C48.1882796,220.92928 50.1851767,221.0293 53.390722,221.081942 L58.4880645,221.081942 C61.6936098,221.081942 65.5297542,220.818731 68.1572504,220.766089 C68.8403994,220.766089 69.1556989,220.871373 69.4184485,221.0293 C69.8913978,221.345154 69.8913978,221.345154 69.6811982,222.292716 C69.2607988,224.608978 69.2082488,227.662232 69.2082488,229.030932 C67.8419508,229.030932 67.6317512,228.873006 67.5792012,228.557152 C66.8435023,224.766905 66.4756528,222.871781 62.3767588,222.871781 L58.7508141,222.871781 C55.6503687,222.871781 53.9162212,222.977066 53.338172,223.140257 C52.655023,223.350826 52.5499232,223.871985 52.5499232,225.082759 C52.5499232,228.767721 52.6024731,232.452683 52.655023,236.137645 C52.655023,236.611426 52.9703226,236.985187 53.338172,236.985187 L56.7013671,236.985187" id="Fill-5"></path>
                    <path d="M85.3410753,232.715895 C85.3410753,224.714262 85.0783257,223.824607 84.2900768,223.350826 C83.6594777,222.871781 82.818679,222.766497 81.3472811,222.661212 C81.3472811,222.245338 81.5574808,221.192491 81.8202304,221.0293 C83.5543779,221.0293 85.3410753,221.081942 87.1277727,221.081942 C90.8588172,221.0293 92.5929647,220.871373 93.1184639,220.871373 C93.4337634,220.871373 93.5388633,220.976658 93.5914132,221.081942 C93.6965131,221.292512 93.8016129,222.134789 93.749063,222.450643 C92.0674654,222.661212 91.2792166,222.871781 90.4909677,223.140257 C89.8603687,223.450847 89.7027189,224.666884 89.7027189,229.609998 L89.7027189,236.558784 C89.7027189,237.085207 89.7552688,237.195756 90.0180184,237.195756 C90.3858679,237.195756 91.1741167,236.511406 92.5404147,235.453295 C95.5883103,232.926464 101.473902,227.872801 104.942197,224.398408 C105.782995,223.608774 105.782995,223.082351 105.415146,223.082351 C104.521797,223.029708 103.628449,222.929688 102.4198,222.819139 L102.36725,221.403061 C102.4198,221.134585 102.47235,221.081942 102.68255,221.0293 C107.884992,221.081942 113.823134,220.871373 114.190983,220.871373 C114.453733,220.871373 114.506283,220.92928 114.453733,221.239869 C114.296083,222.292716 114.243533,222.508549 113.980783,222.508549 C110.880338,222.977066 109.61914,223.924628 108.095192,225.030116 C105.047296,227.241094 101.789201,229.767925 95.1679109,235.55858 C94.8526114,235.821791 94.6949616,236.24293 95.0102611,236.558784 C98.2158065,240.038441 104.101398,244.981555 108.568141,249.140298 C111.510937,251.882963 112.982335,252.988451 114.085883,253.246399 C114.874132,253.40959 115.609831,253.562253 116.13533,253.667537 C116.55573,253.772822 116.713379,253.930749 116.660829,254.304509 L116.24043,255.409998 C113.034885,255.246807 110.092089,255.194164 103.996298,255.246807 L104.206498,253.667537 C104.416697,253.562253 105.257496,253.351683 105.782995,253.246399 C106.150845,253.199021 106.308495,252.877902 105.835545,252.456764 C101.368802,248.245378 93.8016129,241.354499 92.4878648,240.038441 C90.9639171,238.559192 90.2282181,238.453907 90.0180184,238.453907 C89.8603687,238.453907 89.7027189,238.559192 89.7027189,239.243542 L89.7027189,243.928708 C89.7027189,251.088064 90.0705684,252.246195 90.333318,252.562049 C90.8062673,253.299041 92.0149155,253.40959 94.0643625,253.620159 C94.1694624,253.620159 94.2745622,253.772822 94.2745622,253.983391 L94.1169124,255.409998 C92.382765,255.352091 91.0690169,255.246807 87.1277727,255.246807 C85.4461751,255.246807 81.9778802,255.409998 81.3472811,255.409998 C81.2421813,255.194164 81.399831,253.878107 81.5049309,253.772822 C82.1880799,253.620159 83.0814286,253.562253 84.0273272,253.299041 C85.0783257,253.088472 85.3410753,252.404122 85.3410753,245.876474 L85.3410753,232.715895" id="Fill-6"></path>
                    <path d="M123.49232,220.871373 C125.904361,220.976658 127.065714,221.081942 130.796759,221.081942 C131.112058,221.081942 131.374808,221.134585 131.479908,221.239869 C131.690108,221.403061 131.947602,221.824199 132.110507,222.187431 C132.473101,222.871781 134.317604,225.293328 135.573547,226.456723 C138.726542,229.66264 146.398831,237.295776 156.861521,247.192532 C156.908816,245.513242 156.966621,240.770169 156.966621,236.874638 C156.966621,231.399837 156.908816,228.557152 156.698616,225.872393 C156.593516,224.977474 156.488416,223.661416 155.337573,223.29292 C154.759524,223.082351 153.340676,222.929688 152.237127,222.819139 C152.079478,222.766497 151.969123,222.719119 151.969123,222.555927 L151.864023,221.081942 L157.802164,221.081942 C159.851611,221.081942 161.953608,220.92928 163.582656,220.871373 C163.850661,220.871373 164.00831,220.976658 164.06086,221.134585 L164.370905,222.245338 C162.479108,222.661212 161.743409,222.871781 160.907865,223.398204 C159.909416,223.97727 159.594117,225.661824 159.326112,232.821179 C159.221012,237.558988 159.173717,240.980739 159.173717,248.034809 C159.173717,251.403918 159.326112,254.515079 159.326112,255.409998 C159.278817,255.720588 158.963518,255.983799 158.280369,256.252275 C158.012364,256.352295 157.802164,256.352295 157.54467,255.983799 C154.444224,251.403918 149.551826,246.45554 144.039339,240.980739 C139.677696,236.611426 135.526252,232.505325 131.217158,228.19392 C131.059508,231.136625 130.949154,234.87423 130.949154,237.827464 C130.949154,242.61265 130.949154,249.719363 131.585008,251.719771 C132.005407,252.930545 133.634455,253.351683 135.783747,253.772822 L136.156851,255.036238 C136.204146,255.194164 135.888846,255.457376 135.736452,255.457376 C133.529355,255.457376 131.217158,255.246807 129.062611,255.246807 C127.223364,255.246807 125.646866,255.409998 124.753518,255.409998 C124.648418,254.878311 124.490768,254.351887 124.333118,253.930749 C127.643763,253.035829 127.853963,252.51467 128.111458,250.777474 C128.274363,249.461416 128.747312,244.618323 128.747312,237.195756 L128.747312,231.347194 C128.747312,225.925036 128.642212,225.030116 127.796158,224.245746 C126.960614,223.350826 126.119816,222.871781 123.912719,222.60857 C123.597419,222.508549 123.49232,222.450643 123.49232,222.245338 L123.49232,220.871373" id="Fill-7"></path>
                    <path d="M189.962717,222.034768 C187.440321,222.034768 184.812825,222.977066 182.132779,225.872393 C179.347633,229.088839 178.559384,233.87929 178.559384,237.195756 C178.559384,242.086227 180.293531,246.350255 183.183777,249.298225 C186.652072,252.82526 189.962717,254.141318 193.483562,254.141318 C198.896204,254.141318 204.676696,249.461416 204.676696,239.617303 C204.676696,234.87423 203.415498,230.189063 199.789553,226.24089 C197.687556,223.97727 194.376911,222.034768 190.015267,222.034768 L189.962717,222.034768 L189.962717,222.034768 Z M191.696865,220.134381 C201.208401,220.134381 209.879138,227.714875 209.879138,237.348419 C209.879138,243.876066 206.726143,248.666517 203.940997,251.403918 C200.315052,254.983595 195.585559,256.194368 192.747863,256.194368 C187.177571,256.194368 181.13433,253.667537 177.560935,249.671985 C174.880889,246.718751 173.146742,242.033585 173.146742,237.716915 C173.146742,233.29496 174.933439,228.615058 179.032333,224.924832 C182.342978,221.92422 187.072472,220.134381 191.644315,220.134381 L191.696865,220.134381 L191.696865,220.134381 Z" id="Fill-8"></path>
                    <path d="M244.777542,246.876678 C244.982487,246.876678 245.928386,247.13989 246.191135,247.297817 C246.401335,247.51365 246.401335,247.666313 246.348785,247.876882 C245.718186,250.035217 245.140137,252.304101 244.777542,254.562457 C244.672442,255.08888 244.299338,255.299449 243.878939,255.352091 C243.358694,255.409998 242.77539,255.409998 240.568293,255.409998 C238.413747,255.409998 235.8388,255.246807 226.957863,255.246807 C224.120167,255.246807 221.545221,255.510018 220.814777,255.562661 C220.231473,255.620567 219.916174,255.620567 219.816329,255.620567 C219.653424,255.409998 219.338124,254.304509 219.395929,253.983391 C221.965621,253.667537 223.279369,253.199021 223.699768,251.614487 C223.909968,250.877494 224.067618,248.929729 224.067618,243.565476 L224.067618,232.773801 C224.067618,228.29394 223.962518,225.451255 223.804868,224.293124 C223.652473,223.082351 223.226819,222.871781 219.501029,222.929688 C219.338124,222.929688 219.18573,222.60857 219.285575,222.292716 L219.711229,221.345154 C219.758524,221.081942 219.816329,221.081942 219.916174,221.081942 C221.492671,221.081942 223.126974,221.134585 224.803316,221.081942 C227.488618,221.0293 230.268508,220.871373 233.001104,220.766089 C233.211304,220.92928 233.368954,221.92422 233.368954,222.345358 C230.221214,222.719119 228.95476,222.977066 228.697266,225.140665 C228.534361,226.667292 228.376711,230.141685 228.429261,234.400449 L228.487066,240.822812 C228.534361,249.140298 228.592166,250.777474 228.639461,251.719771 C228.697266,252.456764 229.012565,252.877902 229.637909,253.035829 C230.531258,253.351683 232.160306,253.456968 234.525052,253.456968 C237.998602,253.456968 241.356542,253.351683 243.09069,250.666925 C243.668739,249.772006 244.089138,248.771802 244.462243,247.13989 C244.509538,246.929321 244.567343,246.876678 244.719737,246.876678 L244.777542,246.876678" id="Fill-9"></path>
                    <path d="M271.362548,222.034768 C268.845407,222.034768 266.217911,222.977066 263.53261,225.872393 C260.747464,229.088839 259.959215,233.87929 259.959215,237.195756 C259.959215,242.086227 261.693363,246.350255 264.583608,249.298225 C268.051903,252.82526 271.362548,254.141318 274.883393,254.141318 C280.296035,254.141318 286.071272,249.461416 286.071272,239.617303 C286.071272,234.87423 284.820584,230.189063 281.189384,226.24089 C279.087387,223.97727 275.776742,222.034768 271.415098,222.034768 L271.362548,222.034768 L271.362548,222.034768 Z M273.096696,220.134381 C282.602977,220.134381 291.278969,227.714875 291.278969,237.348419 C291.278969,243.876066 288.125974,248.666517 285.346083,251.403918 C281.709628,254.983595 276.990645,256.194368 274.147694,256.194368 C268.577402,256.194368 262.534161,253.667537 258.960767,249.671985 C256.28072,246.718751 254.546573,242.033585 254.546573,237.716915 C254.546573,233.29496 256.33327,228.615058 260.432164,224.924832 C263.748065,221.92422 268.472303,220.134381 273.049401,220.134381 L273.096696,220.134381 L273.096696,220.134381 Z" id="Fill-10"></path>
                    <path d="M302.272413,237.874842 C302.272413,232.505325 304.2588,228.451867 307.527406,225.451255 C309.781797,223.350826 312.409293,222.187431 315.982688,221.192491 C319.130429,220.297572 322.498879,220.134381 324.180476,220.134381 C325.867329,220.134381 328.915224,220.450235 330.906866,221.081942 C331.174871,221.192491 331.379816,221.239869 331.427111,221.081942 L331.90006,220.297572 C332.01567,220.134381 332.062965,220.134381 332.488619,220.134381 L333.534363,220.187023 C333.634207,220.187023 333.802367,220.297572 333.802367,220.555519 C333.954762,223.97727 334.270061,226.667292 334.527556,227.98335 C334.643166,228.557152 334.643166,229.030932 334.590616,229.188859 C334.475006,229.299408 334.375161,229.346786 334.007312,229.346786 L333.276868,229.346786 C333.113963,229.346786 332.909018,229.299408 332.740859,228.925648 C331.327266,225.140665 327.906266,222.034768 322.025929,222.034768 C319.083134,222.034768 315.982688,222.766497 313.034637,225.351234 C310.675146,227.509569 307.62725,231.610406 307.62725,238.190696 C307.62725,241.665089 308.573149,245.981759 312.093994,249.403509 C316.135083,253.351683 321.873535,253.983391 324.606131,253.983391 C326.172118,253.983391 328.22682,253.40959 329.015069,252.777882 C329.960968,252.093532 330.433917,249.671985 330.433917,245.934381 C330.433917,240.875454 330.281522,240.24901 328.442275,239.927892 C327.906266,239.827872 325.651874,239.559396 325.073825,239.454111 C324.85837,239.354091 324.606131,239.243542 324.501031,239.085615 C324.338126,238.822404 324.285576,238.401265 324.233026,238.085411 C324.233026,237.827464 324.338126,237.664273 324.501031,237.664273 C327.485866,237.664273 329.861123,237.874842 332.115515,237.874842 C334.900661,237.874842 336.682103,237.664273 337.522902,237.664273 C337.638512,237.769557 337.522902,239.401469 337.423057,239.717323 C336.850263,239.769965 336.209154,239.87525 335.368355,239.980535 C335.26851,240.401673 335.011015,244.139278 335.011015,253.035829 C335.011015,254.036033 334.743011,254.40453 334.222767,254.878311 C333.749817,255.299449 332.956313,255.352091 332.740859,255.352091 C331.54272,255.352091 330.701922,255.352091 328.59467,255.510018 C326.708127,255.667945 325.073825,255.831137 322.971828,255.831137 C316.082533,255.831137 311.095545,254.036033 307.422306,250.566905 C304.37441,247.72422 302.272413,243.454928 302.272413,237.927484 L302.272413,237.874842" id="Fill-11"></path>
                    <path d="M350.765482,232.715895 C350.765482,224.714262 350.497478,223.824607 349.719739,223.350826 C349.083885,222.871781 348.243086,222.766497 346.771688,222.661212 C346.771688,222.245338 346.976633,221.192491 347.244637,221.0293 C348.978785,221.0293 350.765482,221.081942 352.55218,221.081942 C356.288479,221.0293 358.022627,220.871373 358.548126,220.871373 C358.863425,220.871373 358.968525,220.976658 359.01582,221.081942 C359.12092,221.292512 359.220765,222.134789 359.17347,222.450643 C357.486618,222.661212 356.708879,222.871781 355.915375,223.140257 C355.279521,223.450847 355.127126,224.666884 355.127126,229.609998 L355.127126,236.558784 C355.127126,237.085207 355.179676,237.195756 355.44768,237.195756 C355.81553,237.195756 356.593269,236.511406 357.959567,235.453295 C361.007462,232.926464 366.898309,227.872801 370.371859,224.398408 C371.212657,223.608774 371.212657,223.082351 370.839553,223.082351 C369.946204,223.029708 369.052856,222.929688 367.844207,222.819139 L367.791657,221.403061 C367.844207,221.134585 367.896757,221.081942 368.112212,221.0293 C373.304144,221.081942 379.247541,220.871373 379.61539,220.871373 C379.872885,220.871373 379.935945,220.92928 379.872885,221.239869 C379.72049,222.292716 379.66794,222.508549 379.399935,222.508549 C376.29949,222.977066 375.038292,223.924628 373.519599,225.030116 C370.471704,227.241094 367.218863,229.767925 360.587063,235.55858 C360.282273,235.821791 360.114114,236.24293 360.434668,236.558784 C363.634959,240.038441 369.525805,244.981555 373.992548,249.140298 C376.935344,251.882963 378.406742,252.988451 379.515545,253.246399 C380.293284,253.40959 381.034238,253.562253 381.554482,253.667537 C381.980137,253.772822 382.143041,253.930749 382.090492,254.304509 L381.670092,255.409998 C378.459292,255.246807 375.521751,255.194164 369.42596,255.246807 L369.630905,253.667537 C369.846359,253.562253 370.676648,253.351683 371.212657,253.246399 C371.580507,253.199021 371.732902,252.877902 371.259952,252.456764 C366.798464,248.245378 359.220765,241.354499 357.907017,240.038441 C356.388324,238.559192 355.652625,238.453907 355.44768,238.453907 C355.279521,238.453907 355.127126,238.559192 355.127126,239.243542 L355.127126,243.928708 C355.127126,251.088064 355.494975,252.246195 355.75247,252.562049 C356.235929,253.299041 357.439323,253.40959 359.48877,253.620159 C359.593869,253.620159 359.693714,253.772822 359.693714,253.983391 L359.54132,255.409998 C357.807172,255.352091 356.493424,255.246807 352.55218,255.246807 C350.870582,255.246807 347.397032,255.409998 346.771688,255.409998 C346.671843,255.194164 346.824238,253.878107 346.929338,253.772822 C347.612487,253.620159 348.505836,253.562253 349.451734,253.299041 C350.497478,253.088472 350.765482,252.404122 350.765482,245.876474 L350.765482,232.715895" id="Fill-12"></path>
                    <path d="M406.373811,211.764252 C405.265008,211.764252 404.166714,212.764456 404.166714,214.027872 C404.166714,216.138829 405.317558,216.981106 406.89931,217.028484 C408.312903,217.081126 408.938247,215.870353 408.938247,214.612202 C408.938247,212.822363 407.687559,211.764252 406.426361,211.764252 L406.373811,211.764252 L406.373811,211.764252 Z M406.89931,209.769108 C409.358647,209.769108 411.208404,211.658968 411.208404,214.138421 C411.208404,216.238849 410.315055,217.244317 408.633458,218.133973 C407.472104,218.870965 406.79421,219.028892 406.158356,219.028892 C403.95126,219.028892 401.849263,217.344338 401.849263,214.922791 C401.849263,212.711814 403.005361,211.237829 405.112613,210.290267 C406.005962,209.921771 406.426361,209.769108 406.84676,209.769108 L406.89931,209.769108 L406.89931,209.769108 Z M400.850814,240.875454 C401.171369,240.875454 402.269662,240.980739 404.639664,240.980739 C407.104255,240.980739 408.580908,240.933361 409.999756,240.875454 C410.367605,240.875454 410.52,240.401673 410.420155,240.138462 C408.365453,234.56364 407.31971,231.457743 405.685407,227.241094 C405.585562,227.030524 405.212458,227.141073 405.060063,227.451663 C402.584962,233.189676 401.901813,234.926872 399.857621,240.296388 C399.805071,240.506958 400.115115,240.875454 400.803519,240.875454 L400.850814,240.875454 L400.850814,240.875454 Z M407.26716,220.134381 C407.624499,220.134381 407.740109,220.397592 407.892504,220.92928 C409.474257,226.03032 410.57255,228.662436 412.406542,233.610814 C414.093395,238.301245 418.349939,248.245378 419.038343,249.882555 C420.136636,252.351479 420.87759,253.299041 423.872935,253.878107 C423.978035,253.878107 423.657481,255.299449 423.452536,255.457376 C419.090892,255.409998 418.034639,255.409998 416.300492,255.409998 C414.613639,255.409998 413.147496,255.620567 412.674547,255.562661 C412.469602,255.562661 412.359247,255.510018 412.306697,255.409998 C412.201598,255.08888 411.986143,254.141318 412.049203,254.036033 C414.729249,253.299041 415.097098,252.930545 414.461244,250.877494 C414.19324,249.824648 412.522152,245.56062 411.833748,243.876066 C411.681353,243.50757 411.360799,243.091696 410.940399,243.091696 C407.15155,243.091696 402.690061,243.139074 399.589616,243.302265 C398.964272,243.349643 398.696267,243.50757 398.275868,244.407754 C397.750369,245.513242 396.016221,250.035217 396.016221,251.461824 C396.016221,252.614691 396.436621,253.035829 399.064117,253.830728 C399.116667,254.141318 398.848662,255.146786 398.643717,255.299449 C396.068771,255.246807 393.073425,255.246807 391.975132,255.246807 C391.081783,255.246807 390.240985,255.299449 390.02553,255.246807 C389.768035,255.246807 389.715485,255.194164 389.652425,255.08888 C389.447481,254.773026 389.295086,253.772822 389.400186,253.620159 C391.654578,252.988451 392.180077,251.825056 393.59367,249.140298 C395.075578,246.24497 401.055759,231.457743 404.103654,224.187839 C404.692214,222.766497 404.997003,221.871577 405.317558,221.0293 C405.370108,220.766089 405.417402,220.71871 405.632857,220.608162 C405.843057,220.508141 406.731151,220.134381 407.21461,220.134381 L407.26716,220.134381 L407.26716,220.134381 Z" id="Fill-13"></path>
                    <path d="M453.185283,229.978494 C453.185283,225.925036 450.084837,222.345358 445.355344,222.345358 C443.568647,222.345358 442.575453,222.555927 441.834499,222.929688 C441.36155,223.140257 441.209155,223.450847 441.104055,223.871985 C440.841306,225.503897 440.683656,228.19392 440.736206,232.979106 C440.736206,237.927484 440.888601,238.085411 441.104055,238.243338 C441.36155,238.348623 441.997404,238.401265 442.780398,238.401265 C446.884547,238.401265 449.349138,237.827464 451.030736,235.821791 C452.291934,234.295164 453.185283,232.242114 453.185283,230.031137 L453.185283,229.978494 L453.185283,229.978494 Z M432.485868,221.450439 C432.433318,221.292512 432.538418,221.192491 432.690813,221.081942 C435.428664,221.0293 437.840705,221.0293 440.100352,220.818731 C442.522903,220.660804 443.936496,220.608162 445.355344,220.608162 C448.518849,220.608162 451.77169,221.0293 454.499031,222.977066 C456.974132,224.714262 458.23533,227.299 458.23533,229.820567 C458.23533,233.97931 454.66719,236.453499 452.665038,237.616895 C452.344484,237.769557 452.192089,238.038033 452.291934,238.401265 C452.559939,239.506754 453.658232,242.61265 455.917879,246.087043 C458.34043,249.824648 460.967926,252.51467 465.429415,254.667741 C465.954914,254.936217 466.007464,255.146786 465.954914,255.409998 C465.902364,255.878515 465.697419,256.404938 465.587065,256.404938 C460.915376,255.931157 457.546926,254.351887 454.551581,251.561845 C452.344484,249.403509 450.725946,246.45554 448.928739,243.033789 C447.725346,240.612242 447.142041,240.138462 443.889201,240.138462 C442.359998,240.138462 441.781949,240.191104 441.36155,240.296388 C441.04625,240.401673 440.683656,240.670149 440.683656,241.086023 C440.683656,245.092104 440.736206,248.192736 440.888601,251.245991 C440.941151,252.035625 441.156605,252.456764 441.4141,252.614691 C441.950109,253.141114 444.257051,253.456968 445.470954,253.772822 C445.470954,254.036033 445.202949,254.936217 445.097849,255.146786 C445.0453,255.246807 444.882395,255.246807 444.362151,255.246807 C443.784101,255.246807 439.475008,255.194164 437.320461,255.194164 C435.428664,255.194164 434.42496,255.352091 433.899461,255.352091 C433.221567,255.352091 433.111212,255.352091 433.058662,255.246807 C432.801167,254.983595 432.753873,254.036033 432.753873,253.72018 C433.799616,253.50961 435.381369,253.199021 435.738708,252.456764 C436.322012,251.614487 436.427112,247.350459 436.427112,240.980739 L436.427112,234.774209 C436.427112,231.720955 436.374562,227.925444 436.322012,225.398613 C436.274717,223.766701 436.006713,223.503489 432.638263,222.661212 L432.485868,221.450439 L432.485868,221.450439 Z" id="Fill-14"></path>
                    <path d="M485.303796,236.985187 C487.663287,236.985187 489.449985,236.92728 490.763733,236.821996 C493.911473,236.611426 494.179478,236.400857 494.857372,233.29496 C495.072826,233.137033 496.281475,233.037013 496.538969,233.084391 C496.439124,234.611018 496.11857,237.032565 496.11857,238.664477 C496.17112,240.45958 496.334025,241.9283 496.491674,243.454928 C496.06602,243.565476 495.645621,243.612855 495.277771,243.612855 C495.020276,243.665497 494.920432,243.50757 494.804822,243.302265 C494.599877,242.717935 494.331873,241.875658 494.179478,241.24395 C493.864178,239.827872 493.233579,239.354091 491.131582,239.1909 C489.970229,239.085615 488.236081,239.085615 485.556035,239.085615 C482.928539,239.085615 482.408295,239.143522 482.08774,239.1909 C481.882796,239.243542 481.719891,239.296184 481.567496,239.506754 C481.409846,239.827872 481.094547,241.665089 481.094547,245.981759 C481.094547,249.824648 481.094547,251.245991 481.614791,252.093532 C482.355745,253.088472 484.194992,253.351683 488.504086,253.351683 C494.652427,253.351683 497.595223,252.777882 499.219015,247.192532 C499.43447,247.13989 499.959969,247.192532 500.480214,247.250439 C500.648373,247.350459 500.648373,247.403101 500.648373,247.666313 C500.532763,250.08786 499.691965,253.456968 499.014071,254.983595 C498.746066,255.299449 498.593671,255.409998 498.325667,255.409998 C497.968327,255.409998 497.595223,255.409998 495.861075,255.352091 C494.284578,255.299449 490.606083,255.246807 486.244439,255.246807 C482.040445,255.246807 477.889002,255.457376 473.685008,255.620567 C473.579908,255.562661 473.527358,254.457172 473.579908,254.036033 C473.579908,253.930749 473.732303,253.830728 473.784853,253.830728 C476.207404,253.40959 476.412349,253.035829 476.464899,252.246195 C476.575253,251.461824 476.832748,248.087452 476.832748,242.717935 L476.832748,233.610814 C476.832748,226.609386 476.527959,224.293124 476.464899,223.97727 C476.412349,223.661416 476.312504,223.398204 475.787005,223.29292 C475.261505,223.082351 474.257802,222.929688 473.007114,222.60857 C472.944054,222.555927 472.944054,222.555927 472.944054,222.398 L473.059664,221.192491 C473.059664,220.976658 473.059664,220.92928 473.311903,220.92928 L475.151151,220.92928 C476.785453,220.92928 478.78235,221.0293 481.987896,221.081942 L487.085238,221.081942 C490.290783,221.081942 494.126928,220.818731 496.754424,220.766089 C497.432318,220.766089 497.752873,220.871373 498.020877,221.0293 C498.488571,221.345154 498.488571,221.345154 498.273117,222.292716 C497.852717,224.608978 497.805422,227.662232 497.805422,229.030932 C496.439124,229.030932 496.23418,228.873006 496.17112,228.557152 C495.440676,224.766905 495.072826,222.871781 490.979187,222.871781 L487.342733,222.871781 C484.242287,222.871781 482.50814,222.977066 481.935346,223.140257 C481.246942,223.350826 481.147097,223.871985 481.147097,225.082759 C481.147097,228.767721 481.194392,232.452683 481.246942,236.137645 C481.246942,236.611426 481.567496,236.985187 481.935346,236.985187 L485.303796,236.985187" id="Fill-15"></path>
                    <path d="M509.4137,220.871373 C511.830997,220.976658 512.98184,221.081942 516.71814,221.081942 C517.028184,221.081942 517.296189,221.134585 517.396034,221.239869 C517.611488,221.403061 517.868983,221.824199 518.031888,222.187431 C518.399737,222.871781 520.238985,225.293328 521.500183,226.456723 C524.653178,229.66264 532.320212,237.295776 542.777647,247.192532 C542.830197,245.513242 542.882747,240.770169 542.882747,236.874638 C542.882747,231.399837 542.830197,228.557152 542.625252,225.872393 C542.520152,224.977474 542.409797,223.661416 541.258954,223.29292 C540.67565,223.082351 539.256802,222.929688 538.158508,222.819139 C537.995604,222.766497 537.890504,222.719119 537.890504,222.555927 L537.790659,221.081942 L543.723545,221.081942 C545.772992,221.081942 547.880244,220.92928 549.509292,220.871373 C549.766786,220.871373 549.929691,220.976658 549.982241,221.134585 L550.292286,222.245338 C548.400488,222.661212 547.66479,222.871781 546.823991,223.398204 C545.825542,223.97727 545.510243,225.661824 545.252748,232.821179 C545.147648,237.558988 545.089843,240.980739 545.089843,248.034809 C545.089843,251.403918 545.252748,254.515079 545.252748,255.409998 C545.200198,255.720588 544.879644,255.983799 544.196495,256.252275 C543.939,256.352295 543.723545,256.352295 543.466051,255.983799 C540.365605,251.403918 535.478462,246.45554 529.96072,240.980739 C525.599077,236.611426 521.442378,232.505325 517.138539,228.19392 C516.975634,231.136625 516.870535,234.87423 516.870535,237.827464 C516.870535,242.61265 516.870535,249.719363 517.501134,251.719771 C517.921533,252.930545 519.550581,253.351683 521.705127,253.772822 L522.078232,255.036238 C522.125527,255.194164 521.810227,255.457376 521.657833,255.457376 C519.450736,255.457376 517.138539,255.246807 514.983992,255.246807 C513.144745,255.246807 511.568247,255.409998 510.674899,255.409998 C510.569799,254.878311 510.406894,254.351887 510.254499,253.930749 C513.559889,253.035829 513.775344,252.51467 514.038094,250.777474 C514.195743,249.461416 514.663438,244.618323 514.663438,237.195756 L514.663438,231.347194 C514.663438,225.925036 514.563593,225.030116 513.722794,224.245746 C512.881995,223.350826 512.041197,222.871781 509.8341,222.60857 C509.513545,222.508549 509.4137,222.450643 509.4137,222.245338 L509.4137,220.871373" id="Fill-16"></path>
                    <path d="M1.06150845,284.473822 C1.20864823,284.289574 1.24543318,284.252724 1.39257296,284.289574 C2.56969124,284.363273 4.26179877,284.394858 4.77678802,284.363273 C5.65962673,284.363273 6.50568049,284.363273 7.31494931,284.394858 C7.42530415,284.363273 7.42530415,284.473822 7.3885192,284.768619 L7.27816436,285.431912 L6.39532565,285.684595 C6.10104608,285.763558 6.02747619,285.905693 6.17461598,286.316303 C7.02066974,288.595715 9.00705684,293.244032 9.92668049,295.118098 C10.1106052,295.560294 10.257745,295.712957 10.3680998,295.639257 C11.3245084,293.759927 13.7523149,287.642889 14.1937343,285.905693 C14.2305192,285.684595 14.1569493,285.684595 13.6419601,285.65301 L12.6119816,285.57931 C12.4648418,285.57931 12.4280568,285.431912 12.4648418,285.279249 C12.6855515,284.394858 12.7591214,284.326423 13.0901859,284.326423 C13.5316052,284.326423 14.9662181,284.363273 15.8490568,284.363273 C16.6951106,284.363273 17.5043794,284.326423 17.798659,284.326423 C18.0561536,284.326423 18.1297235,284.363273 18.2032934,284.473822 C18.2400783,284.652806 18.2768633,284.805468 18.3136482,285.316099 C18.3136482,285.431912 18.2768633,285.463497 18.1297235,285.500347 L17.6883041,285.500347 C16.400831,285.500347 16.1433364,286.279453 15.2972826,287.932422 C14.6719386,289.301122 12.0602074,295.154948 10.919874,297.887084 C10.8095192,298.145032 10.0738203,299.434768 9.88989555,299.803265 C9.77954071,299.982249 9.70597081,300.061212 9.3749063,300.061212 C8.896702,300.061212 8.71277727,299.982249 8.63920737,299.840114 C8.60242243,299.724301 8.3449278,299.25052 7.75636866,297.739686 C5.69641167,292.47019 4.00430415,288.779963 3.30539017,287.311243 C2.64326114,285.984656 2.27541167,285.61616 0.95115361,285.395062 C0.730443932,285.395062 0.65687404,285.247664 0.693658986,285.095001 L1.06150845,284.473822" id="Fill-17"></path>
                    <path d="M24.1256697,298.213467 C24.7510138,298.213467 25.1188633,298.029219 25.2660031,297.481738 C25.339573,297.144828 25.4499278,296.3394 25.4499278,293.423016 L25.4499278,289.701204 C25.4499278,288.195634 25.4499278,287.348092 25.4131429,286.721649 C25.302788,285.763558 24.8981536,285.542461 23.0589063,285.542461 C22.9853364,285.542461 22.8749816,285.431912 22.8749816,285.358213 C22.8749816,285.173964 23.0221214,284.694919 23.0956912,284.547521 C23.1692611,284.363273 23.242831,284.326423 23.6474654,284.326423 C25.7809923,284.326423 26.4063364,284.363273 27.3259601,284.363273 C28.6134332,284.363273 30.1951859,284.326423 30.4894654,284.326423 C30.7101751,284.326423 30.9308848,284.363273 30.9676697,284.510671 L31.0412396,285.395062 C28.7973579,285.721445 28.6134332,285.905693 28.5398633,286.242604 C28.4295084,286.684799 28.3559386,287.56919 28.3559386,289.885452 L28.3559386,293.280881 C28.3559386,295.118098 28.4295084,296.560498 28.6134332,297.587023 C28.6870031,298.029219 28.9077127,298.108182 30.6366052,298.29243 C30.6733902,298.402979 30.7469601,299.097858 30.7101751,299.318955 C30.7101751,299.471618 30.6366052,299.503203 30.3423257,299.503203 C28.6134332,299.471618 27.5098848,299.471618 26.4063364,299.471618 C24.640659,299.503203 23.4635407,299.540053 23.2060461,299.540053 C23.0589063,299.540053 22.9485515,299.434768 22.9117665,299.213671 L22.8381966,298.402979 C22.8381966,298.32928 22.8381966,298.250316 22.9117665,298.250316 L24.1256697,298.213467" id="Fill-18"></path>
                    <path d="M50.2797665,291.617384 C50.2797665,289.55907 49.4704977,287.711324 47.9623149,286.647949 C46.6012719,285.65301 45.0195192,285.431912 44.0263257,285.431912 C42.9595622,285.431912 42.2606482,285.65301 42.0031536,285.800408 C41.8192289,285.874107 41.7824439,286.021506 41.745659,286.242604 C41.6720891,286.942746 41.5985192,288.969476 41.5985192,291.106754 C41.5985192,294.349521 41.745659,296.781596 41.9663687,297.702836 C42.0031536,297.887084 42.0767235,297.960784 42.2974332,298.071332 C42.7756375,298.250316 43.4377665,298.29243 44.0631106,298.29243 C44.8723794,298.29243 46.1598525,298.071332 47.4473257,297.365925 C49.3233579,296.3394 50.2797665,294.049459 50.2797665,291.654234 L50.2797665,291.617384 L50.2797665,291.617384 Z M36.7429063,284.547521 C36.7429063,284.394858 36.8164762,284.326423 36.8900461,284.326423 C37.9935945,284.326423 39.0603579,284.326423 40.6053257,284.289574 C42.2238633,284.252724 43.0699171,284.17376 44.3206052,284.17376 C45.865573,284.17376 48.9922934,284.394858 51.1626052,286.316303 C52.8914977,287.863987 53.7375515,289.780167 53.7375515,291.838482 C53.7375515,293.317731 53.1489923,295.307611 51.4568848,296.855295 C49.8015622,298.32928 48.6244439,298.808325 47.3737558,299.176821 C46.3805622,299.471618 45.166659,299.540053 43.6584762,299.540053 C42.407788,299.540053 40.0903364,299.471618 39.5385622,299.471618 C38.3614439,299.471618 37.2578955,299.503203 37.0739708,299.503203 C36.963616,299.503203 36.8532611,299.503203 36.8532611,299.471618 L36.7429063,298.402979 C38.324659,298.071332 38.4717988,297.771271 38.5085837,297.29749 C38.6557235,295.897205 38.6557235,291.991145 38.6557235,289.080024 C38.6557235,286.905897 38.6189386,286.463701 38.5821536,286.205754 C38.5085837,285.905693 38.1775192,285.684595 37.0004009,285.500347 C36.8900461,285.500347 36.8164762,285.395062 36.7796912,284.916017 L36.7429063,284.547521 L36.7429063,284.547521 Z" id="Fill-19"></path>
                    <path d="M91.4736513,293.607264 C91.6207911,293.607264 92.2829201,293.796776 92.4668449,293.907325 C92.6139846,294.049459 92.6139846,294.165272 92.5771997,294.307407 C92.1357803,295.818241 91.7311459,297.408039 91.4736513,298.992573 C91.4000814,299.355805 91.1425868,299.503203 90.8483072,299.540053 C90.4804578,299.576903 90.0758233,299.576903 88.5308556,299.576903 C87.0226728,299.576903 85.2202104,299.471618 79.0035545,299.471618 C77.0171674,299.471618 75.2199601,299.655866 74.6997158,299.692716 C74.2950814,299.724301 74.0743717,299.724301 74.0008018,299.724301 C73.890447,299.576903 73.6697373,298.808325 73.7065223,298.587227 C75.5089846,298.366129 76.4286083,298.029219 76.7228879,296.92373 C76.8700276,296.413099 76.9803825,295.049663 76.9803825,291.291002 L76.9803825,283.731565 C76.9803825,280.604611 76.9068126,278.614732 76.7964578,277.798776 C76.6861029,276.951234 76.3918233,276.8091 73.7800922,276.84595 C73.6697373,276.84595 73.5593825,276.624852 73.6329524,276.403754 L73.927232,275.740461 C73.9640169,275.556213 74.0008018,275.556213 74.0743717,275.556213 C75.1779201,275.556213 76.3182535,275.593063 77.4953717,275.556213 C79.371404,275.519363 81.3210061,275.40355 83.2338233,275.335115 C83.3809631,275.4404 83.491318,276.145807 83.491318,276.440604 C81.2842212,276.693287 80.4013825,276.882799 80.2174578,278.393634 C80.1071029,279.462273 79.9967481,281.894348 80.038788,284.873903 L80.070318,289.374821 C80.1071029,295.197062 80.1491429,296.3394 80.1806728,297.002693 C80.2174578,297.518588 80.4381674,297.808121 80.8795868,297.923934 C81.5049309,298.145032 82.6452642,298.213467 84.3058418,298.213467 C86.7283932,298.213467 89.0826298,298.145032 90.296533,296.260437 C90.7011674,295.639257 90.995447,294.93385 91.2529416,293.796776 C91.2897266,293.644113 91.3265115,293.607264 91.4368664,293.607264 L91.4736513,293.607264" id="Fill-20"></path>
                    <path d="M105.157651,299.982249 C103.391974,299.982249 101.552727,299.503203 100.412393,298.434564 C98.9777803,297.107978 98.6835008,295.197062 98.6519708,293.575678 C98.6519708,292.280677 98.6519708,291.069904 98.7202857,289.222159 C98.7938556,287.311243 98.7623257,286.463701 98.6519708,285.984656 C98.5731459,285.65301 97.9898418,285.500347 97.1017481,285.395062 C97.0281782,285.358213 97.0281782,285.279249 97.0281782,284.584371 C97.0281782,284.363273 97.138533,284.326423 97.4695975,284.326423 C98.1685115,284.326423 99.8238341,284.363273 100.375608,284.363273 C101.442372,284.363273 102.178071,284.252724 104.164458,284.252724 C104.311598,284.252724 104.348382,284.326423 104.311598,284.694919 C104.274813,285.247664 104.201243,285.279249 104.017318,285.316099 C102.61949,285.542461 102.036186,285.763558 101.883791,286.684799 C101.773436,287.56919 101.626296,289.259008 101.626296,293.575678 C101.626296,295.41816 102.256896,296.523648 103.171264,297.260641 C104.017318,297.923934 105.084081,298.145032 106.33477,298.145032 C108.137232,298.145032 109.277565,297.144828 109.792555,296.481534 C110.565038,295.491859 110.785748,293.686227 110.785748,291.433136 C110.785748,289.480106 110.748963,287.453377 110.565038,286.279453 C110.454684,285.721445 110.086834,285.65301 108.210802,285.542461 C108.100447,285.542461 107.990092,285.358213 108.026877,285.431912 C108.026877,285.095001 108.210802,284.615956 108.357942,284.473822 C108.431512,284.363273 108.541866,284.289574 108.689006,284.289574 C109.130425,284.289574 110.969673,284.326423 111.673842,284.326423 C112.404286,284.326423 113.654974,284.252724 114.390673,284.252724 C114.501028,284.252724 114.537813,284.326423 114.537813,284.652806 C114.390673,285.173964 114.317103,285.395062 114.206748,285.431912 C113.875684,285.463497 113.287124,285.65301 113.066415,285.721445 C112.919275,285.800408 112.772135,285.942542 112.698565,286.279453 C112.624995,286.721649 112.446326,288.011385 112.335971,291.617384 C112.225616,294.349521 112.004906,296.002489 110.822533,297.481738 C109.46149,299.097858 107.075724,299.982249 105.194436,299.982249 L105.157651,299.982249" id="Fill-21"></path>
                    <path d="M126.235425,299.355805 C126.235425,299.434768 126.167111,299.540053 126.056756,299.540053 C124.916422,299.540053 123.702519,299.471618 122.598971,299.471618 C121.826487,299.471618 120.833293,299.540053 120.355089,299.540053 L120.06081,298.624077 C120.06081,298.587227 120.097594,298.513528 120.239479,298.471414 C121.568992,298.181881 121.789702,297.850235 121.900057,297.076393 C122.010412,296.444685 122.231121,294.791716 122.231121,292.538625 L122.231121,288.558866 C122.231121,286.979596 122.157551,286.463701 121.936842,286.16364 C121.716132,285.721445 121.416598,285.57931 119.950455,285.358213 C119.76653,285.316099 119.687705,285.247664 119.687705,285.058151 L119.687705,284.363273 C119.687705,284.252724 119.729745,284.21061 119.876885,284.252724 C121.237928,284.326423 121.789702,284.363273 124.033584,284.326423 C124.396178,284.326423 124.616888,284.394858 124.695713,284.615956 C124.806068,284.952867 125.321057,285.57931 126.130326,286.463701 C127.381014,287.827137 130.32381,290.954091 134.627648,295.086513 C134.774788,293.096633 134.811573,288.52728 134.659178,286.684799 C134.554078,285.763558 134.370154,285.684595 132.599221,285.463497 C132.420551,285.463497 132.346982,285.395062 132.346982,285.247664 L132.310197,284.326423 L135.179422,284.326423 C136.062261,284.326423 137.418049,284.21061 138.342928,284.252724 C138.453283,284.252724 138.521598,284.289574 138.521598,284.363273 L138.742307,285.210814 C136.72439,285.874107 136.53521,285.942542 136.356541,288.711528 C136.246186,291.106754 136.204146,293.133483 136.204146,295.307611 C136.204146,297.444889 136.282971,298.771475 136.282971,299.029423 C136.282971,299.540053 135.584057,299.840114 135.142637,299.982249 C134.958713,300.061212 134.848358,299.982249 134.695963,299.724301 C133.965519,298.734626 133.413745,298.029219 132.346982,296.92373 C130.765229,295.307611 126.46139,290.732993 124.254293,288.490431 C124.033584,288.269333 123.844404,288.337768 123.807619,288.558866 C123.776089,289.153724 123.702519,290.259212 123.702519,291.838482 C123.702519,293.981024 123.665734,296.665782 123.954759,297.481738 C124.175469,298.213467 125.058307,298.366129 126.130326,298.471414 L126.235425,299.355805" id="Fill-22"></path>
                    <path d="M157.686555,291.617384 C157.686555,289.55907 156.877286,287.711324 155.369103,286.647949 C154.00806,285.65301 152.426307,285.431912 151.433114,285.431912 C150.36635,285.431912 149.667436,285.65301 149.409942,285.800408 C149.226017,285.874107 149.189232,286.021506 149.152447,286.242604 C149.078877,286.942746 149.005307,288.969476 149.005307,291.106754 C149.005307,294.349521 149.152447,296.781596 149.373157,297.702836 C149.409942,297.887084 149.483512,297.960784 149.704221,298.071332 C150.182425,298.250316 150.844555,298.29243 151.469899,298.29243 C152.279167,298.29243 153.566641,298.071332 154.854114,297.365925 C156.730146,296.3394 157.686555,294.049459 157.686555,291.654234 L157.686555,291.617384 L157.686555,291.617384 Z M144.149694,284.547521 C144.149694,284.394858 144.223264,284.326423 144.296834,284.326423 C145.400382,284.326423 146.467146,284.326423 148.012114,284.289574 C149.630651,284.252724 150.476705,284.17376 151.727393,284.17376 C153.272361,284.17376 156.399081,284.394858 158.569393,286.316303 C160.298286,287.863987 161.144339,289.780167 161.144339,291.838482 C161.144339,293.317731 160.55578,295.307611 158.863673,296.855295 C157.20835,298.32928 156.031232,298.808325 154.780544,299.176821 C153.78735,299.471618 152.573447,299.540053 151.065264,299.540053 C149.814576,299.540053 147.497124,299.471618 146.94535,299.471618 C145.768232,299.471618 144.664684,299.503203 144.480759,299.503203 C144.370404,299.503203 144.260049,299.503203 144.260049,299.471618 L144.149694,298.402979 C145.731447,298.071332 145.878587,297.771271 145.915372,297.29749 C146.062512,295.897205 146.062512,291.991145 146.062512,289.080024 C146.062512,286.905897 146.025727,286.463701 145.988942,286.205754 C145.915372,285.905693 145.584307,285.684595 144.407189,285.500347 C144.296834,285.500347 144.223264,285.395062 144.186479,284.916017 L144.149694,284.547521 L144.149694,284.547521 Z" id="Fill-23"></path>
                    <path d="M178.879939,295.376046 C178.879939,297.29749 177.844705,298.471414 176.520447,299.097858 C175.196189,299.692716 173.320157,299.913814 172.363748,299.913814 C171.296985,299.913814 169.794057,299.724301 168.942748,299.576903 C168.469799,299.503203 168.427759,299.540053 167.875985,299.876964 C167.76563,300.024362 167.655275,300.061212 167.32421,300.061212 C167.213856,300.061212 166.993146,299.876964 166.993146,299.692716 C166.882791,297.850235 166.735651,296.744746 166.520197,294.865415 C166.588512,294.754866 167.035186,294.644317 167.287425,294.644317 C167.476605,294.644317 167.58696,294.712752 167.655275,294.897001 C168.317404,297.329076 170.566541,298.771475 172.584458,298.771475 C174.53406,298.771475 176.042243,297.808121 176.005458,296.039339 C176.005458,294.38637 173.840401,293.501979 172.074724,292.912385 C170.414146,292.317527 168.832393,291.548949 168.096694,290.701408 C167.58696,290.10655 167.182326,289.301122 167.182326,288.085085 C167.182326,286.347888 168.207049,285.247664 169.273813,284.731769 C170.377361,284.17376 171.922329,283.921077 173.246587,283.921077 C174.019071,283.921077 175.054304,283.989512 175.895103,284.142175 C176.226167,284.21061 176.410092,284.21061 176.520447,283.989512 C176.557232,283.731565 176.630802,283.66313 176.741157,283.69998 C177.666035,283.768415 177.697565,283.810528 177.697565,283.884228 C177.513641,284.694919 177.73435,286.905897 177.918275,288.11667 L177.145791,288.52728 C177.035436,288.558866 176.961866,288.52728 176.893551,288.306182 C176.594017,287.348092 176.189382,286.568986 175.606078,286.058355 C174.975479,285.463497 173.950756,285.058151 172.658028,285.058151 C171.00796,285.058151 169.825587,286.12679 169.825587,287.311243 C169.825587,288.969476 171.407339,289.701204 173.430512,290.364497 C175.232974,290.954091 176.777942,291.654234 177.476856,292.280677 C178.548874,293.165068 178.879939,294.128423 178.879939,295.339196 L178.879939,295.376046" id="Fill-24"></path>
                    <path d="M203.404988,298.513528 C203.988292,298.434564 204.981485,298.29243 205.53326,298.213467 C206.489668,298.029219 206.967873,297.771271 207.115012,296.965844 C207.188582,296.444685 207.446077,293.944175 207.446077,288.637829 L207.446077,284.873903 C207.446077,278.209386 207.409292,276.914385 207.262152,276.914385 L204.287826,276.914385 C200.824786,276.914385 199.206249,277.509243 198.917224,277.693491 C198.47055,278.019873 198.213055,278.683167 197.698066,280.199265 C197.698066,280.309814 197.514141,280.309814 197.367002,280.230851 C197.072722,280.088717 196.557733,279.604407 196.447378,279.499123 C196.962367,278.430484 197.698066,276.772251 198.54412,274.008529 C198.69126,273.971679 198.948754,274.008529 199.248289,274.076964 C199.500528,274.155927 199.537313,274.192777 199.579353,274.334911 C199.579353,274.998204 199.647668,275.298266 199.910418,275.371965 C200.199442,275.4404 200.751217,275.482514 201.59727,275.519363 C202.700819,275.556213 204.466496,275.556213 207.887496,275.556213 C211.897055,275.556213 214.986991,275.556213 217.120518,275.4404 C218.192536,275.40355 218.812625,275.335115 219.18573,275.219302 C219.401184,275.150867 219.627149,274.85607 219.842604,274.192777 C219.879389,274.045378 219.916174,274.045378 220.026528,274.045378 C220.210453,274.045378 220.688657,274.192777 220.982937,274.377025 C221.056507,274.413875 221.056507,274.556009 220.982937,274.85607 C220.247238,276.772251 220.210453,277.656642 220.026528,279.904468 C220.026528,280.088717 219.916174,280.199265 219.627149,280.199265 C219.401184,280.199265 219.14369,280.162416 218.96502,280.125566 C218.84941,280.088717 218.77584,279.978168 218.77584,279.904468 C218.77584,279.604407 218.84941,278.319935 218.84941,277.988288 C218.84941,277.730341 218.70227,277.435544 218.260851,277.288145 C217.929786,277.135483 216.164109,276.914385 213.552378,276.914385 L211.161356,276.914385 C210.830292,276.914385 210.683152,277.135483 210.646367,277.877739 C210.646367,278.498919 210.541267,280.309814 210.541267,285.247664 L210.541267,288.932626 C210.541267,294.238972 210.646367,295.818241 210.793507,296.481534 C210.903862,297.107978 211.161356,297.587023 211.602776,297.808121 C212.264905,298.181881 213.925482,298.402979 214.766281,298.471414 C214.986991,298.471414 215.029031,298.513528 214.986991,298.624077 L214.839851,299.355805 C214.808321,299.503203 214.766281,299.576903 214.508786,299.576903 C214.067367,299.576903 210.903862,299.471618 209.106654,299.471618 C207.188582,299.471618 204.287826,299.619017 203.988292,299.619017 C203.694012,299.619017 203.546873,299.503203 203.515343,299.318955 L203.404988,298.513528" id="Fill-25"></path>
                    <path d="M224.771786,288.932626 C224.771786,287.090145 224.703472,286.242604 224.629902,286.021506 C224.551077,285.837258 224.440722,285.763558 222.711829,285.500347 L222.753869,284.431708 C222.790654,284.363273 222.790654,284.326423 222.901009,284.326423 L223.888948,284.326423 C224.629902,284.326423 225.696665,284.363273 227.609482,284.363273 C230.184429,284.363273 232.50188,284.252724 234.672192,284.252724 C235.003257,284.252724 235.181926,284.252724 235.292281,284.394858 C235.371106,284.473822 235.402636,284.547521 235.334321,284.989716 C235.181926,286.095205 235.150396,287.348092 235.181926,287.974536 C235.181926,288.085085 235.071571,288.11667 234.819332,288.11667 C234.078378,288.11667 234.078378,287.974536 234.010063,287.790288 C233.605429,285.942542 233.347934,285.57931 230.583808,285.57931 C229.149195,285.57931 228.418751,285.65301 228.124472,285.684595 C227.824937,285.721445 227.719837,285.905693 227.719837,286.205754 C227.719837,287.753438 227.751367,289.337972 227.751367,290.769843 C227.751367,290.990941 227.940547,291.180453 228.045647,291.180453 L229.669439,291.180453 C230.772988,291.180453 231.245937,291.212038 232.128776,291.143603 C233.016869,291.106754 233.195539,290.848806 233.495074,289.632769 C233.526604,289.52222 233.715783,289.480106 234.377912,289.480106 C234.561837,289.480106 234.598622,289.55907 234.598622,289.632769 C234.519797,290.148664 234.409442,291.433136 234.409442,292.175393 C234.409442,293.165068 234.451482,293.575678 234.519797,294.349521 C234.519797,294.42322 234.267558,294.460069 233.458289,294.528504 C233.384719,294.270557 233.195539,293.686227 233.085184,293.423016 C232.974829,292.912385 232.832945,292.691287 232.128776,292.617588 C231.214407,292.538625 230.625848,292.538625 229.369905,292.538625 C228.376711,292.538625 228.124472,292.580739 227.940547,292.654438 C227.793407,292.722873 227.719837,292.912385 227.719837,296.118302 C227.719837,296.965844 227.793407,297.444889 228.014117,297.808121 C228.124472,298.029219 228.565891,298.250316 230.662633,298.250316 C233.347934,298.250316 234.598622,297.850235 235.292281,295.560294 C235.334321,295.455009 235.402636,295.41816 235.591816,295.41816 C235.844055,295.41816 236.21716,295.491859 236.285475,295.491859 C236.3643,295.491859 236.437869,295.528708 236.437869,295.749806 C236.327515,297.260641 235.99645,298.692512 235.7337,299.397919 C235.665386,299.503203 235.481461,299.540053 235.371106,299.540053 C234.409442,299.540053 231.729396,299.471618 229.411945,299.471618 C227.199593,299.471618 225.181676,299.576903 222.822184,299.576903 C222.753869,299.503203 222.753869,298.771475 222.753869,298.624077 C222.790654,298.513528 222.822184,298.471414 222.932539,298.471414 C224.409192,298.213467 224.593117,298.145032 224.629902,297.629137 C224.661432,297.329076 224.771786,295.897205 224.771786,293.907325 L224.771786,288.932626" id="Fill-26"></path>
                    <path d="M242.023926,298.434564 C243.384969,298.250316 243.794859,298.145032 243.936743,297.771271 C244.047098,297.481738 244.157453,297.002693 244.157453,294.791716 L244.157453,289.595919 C244.157453,288.306182 244.194238,287.200694 244.083883,286.384738 C243.973528,285.684595 243.752819,285.542461 242.097496,285.395062 C242.023926,285.395062 241.913571,285.279249 241.950356,285.137115 L242.134281,284.326423 L245.450181,284.326423 C247.510138,284.326423 248.613687,284.252724 248.755571,284.289574 C248.944751,284.289574 249.013066,284.326423 249.055106,284.394858 C249.086636,284.547521 249.165461,285.137115 249.123421,285.247664 C248.314152,285.431912 247.841203,285.57931 247.541668,285.684595 C247.105504,285.837258 247.026679,286.279453 247.026679,288.269333 L247.026679,290.885656 C247.026679,291.180453 247.063464,291.364701 247.215859,291.364701 C247.652023,291.364701 250.116614,289.301122 250.741959,288.711528 C252.218611,287.421791 252.770386,286.826933 253.574399,286.095205 C253.873934,285.837258 253.653224,285.684595 252.286926,285.500347 L252.250141,284.473822 C252.250141,284.363273 252.286926,284.363273 252.470851,284.363273 C255.009012,284.326423 258.140988,284.21061 258.540367,284.21061 C258.613937,284.21061 258.692762,284.252724 258.692762,284.431708 C258.613937,285.058151 258.503582,285.279249 258.393227,285.316099 C256.84826,285.65301 256.2597,285.905693 255.266507,286.647949 C254.788303,287.011181 253.28012,288.085085 250.489719,290.364497 C250.190184,290.627709 250.190184,290.769843 250.269009,290.848806 C252.139786,293.022934 254.236528,295.049663 255.560786,296.3394 C256.55398,297.29749 257.216109,297.808121 257.951808,298.071332 C258.582407,298.213467 259.055356,298.32928 259.312851,298.402979 C259.533561,298.471414 259.607131,298.587227 259.575601,298.734626 C259.386421,299.029423 259.202496,299.318955 259.023826,299.576903 C258.650722,299.576903 256.927084,299.471618 255.560786,299.471618 L251.845507,299.471618 L251.845507,298.771475 C251.845507,298.550377 251.882292,298.471414 251.997902,298.434564 C252.250141,298.366129 252.691561,298.29243 252.949055,298.213467 C253.28012,298.108182 253.243335,297.808121 252.770386,297.365925 C251.477657,295.970904 249.496525,294.017874 248.314152,292.801836 C247.951558,292.43334 247.652023,292.212242 247.320959,292.212242 C247.105504,292.212242 247.026679,292.317527 247.026679,292.617588 L247.026679,294.307407 C247.026679,297.665987 247.179074,298.071332 247.762378,298.181881 C247.983088,298.213467 248.645217,298.29243 248.976281,298.366129 C249.123421,298.402979 249.196991,298.471414 249.165461,298.624077 L249.013066,299.355805 C248.944751,299.503203 248.834396,299.540053 248.534862,299.540053 C248.130227,299.503203 247.431313,299.503203 245.339826,299.471618 C244.157453,299.471618 242.428561,299.540053 242.244636,299.540053 C242.065966,299.540053 242.023926,299.503203 242.023926,299.397919 L242.023926,298.434564" id="Fill-27"></path>
                    <path d="M270.758224,299.355805 C270.758224,299.434768 270.679399,299.540053 270.5743,299.540053 C269.433966,299.540053 268.220063,299.471618 267.116515,299.471618 C266.338776,299.471618 265.350837,299.540053 264.872633,299.540053 L264.578353,298.624077 C264.578353,298.587227 264.615138,298.513528 264.757023,298.471414 C266.081281,298.181881 266.301991,297.850235 266.417601,297.076393 C266.5227,296.444685 266.74341,294.791716 266.74341,292.538625 L266.74341,288.558866 C266.74341,286.979596 266.675095,286.463701 266.454386,286.16364 C266.233676,285.721445 265.939396,285.57931 264.467998,285.358213 C264.284074,285.316099 264.205249,285.247664 264.205249,285.058151 L264.205249,284.363273 C264.205249,284.252724 264.247289,284.21061 264.389174,284.252724 C265.755472,284.326423 266.301991,284.363273 268.551127,284.326423 C268.913722,284.326423 269.134432,284.394858 269.213257,284.615956 C269.323611,284.952867 269.833346,285.57931 270.642614,286.463701 C271.898558,287.827137 274.836098,290.954091 279.145192,295.086513 C279.292332,293.096633 279.329117,288.52728 279.176722,286.684799 C279.071622,285.763558 278.887697,285.684595 277.12202,285.463497 C276.938095,285.463497 276.85927,285.395062 276.85927,285.247664 L276.822485,284.326423 L279.691711,284.326423 C280.57455,284.326423 281.935593,284.21061 282.860472,284.252724 C282.965571,284.252724 283.044396,284.289574 283.044396,284.363273 L283.259851,285.210814 C281.241934,285.874107 281.052754,285.942542 280.868829,288.711528 C280.758475,291.106754 280.726945,293.133483 280.726945,295.307611 C280.726945,297.444889 280.800515,298.771475 280.800515,299.029423 C280.800515,299.540053 280.096346,299.840114 279.654926,299.982249 C279.471002,300.061212 279.365902,299.982249 279.213507,299.724301 C278.483063,298.734626 277.926034,298.029219 276.85927,296.92373 C275.277518,295.307611 270.978934,290.732993 268.771837,288.490431 C268.551127,288.269333 268.367203,288.337768 268.330418,288.558866 C268.288378,289.153724 268.220063,290.259212 268.220063,291.838482 C268.220063,293.981024 268.183278,296.665782 268.472303,297.481738 C268.693012,298.213467 269.575851,298.366129 270.642614,298.471414 L270.758224,299.355805" id="Fill-28"></path>
                    <path d="M289.513292,298.213467 C290.138636,298.213467 290.506485,298.029219 290.653625,297.481738 C290.72194,297.144828 290.83755,296.3394 290.83755,293.423016 L290.83755,289.701204 C290.83755,288.195634 290.83755,287.348092 290.80602,286.721649 C290.69041,285.763558 290.280521,285.542461 288.446528,285.542461 C288.372959,285.542461 288.262604,285.431912 288.262604,285.358213 C288.262604,285.173964 288.414998,284.694919 288.488568,284.547521 C288.556883,284.363273 288.630453,284.326423 289.040343,284.326423 C291.163359,284.326423 291.788704,284.363273 292.713582,284.363273 C293.9958,284.363273 295.588063,284.326423 295.877088,284.326423 C296.103052,284.326423 296.318507,284.363273 296.360547,284.510671 L296.428862,285.395062 C294.179725,285.721445 293.9958,285.905693 293.927485,286.242604 C293.822386,286.684799 293.738306,287.56919 293.738306,289.885452 L293.738306,293.280881 C293.738306,295.118098 293.822386,296.560498 293.9958,297.587023 C294.07988,298.029219 294.295335,298.108182 296.029482,298.29243 C296.061012,298.402979 296.134582,299.097858 296.103052,299.318955 C296.103052,299.471618 296.029482,299.503203 295.729948,299.503203 C293.9958,299.471618 292.897507,299.471618 291.788704,299.471618 C290.023026,299.503203 288.856418,299.540053 288.598923,299.540053 C288.446528,299.540053 288.341429,299.434768 288.299389,299.213671 L288.231074,298.402979 C288.231074,298.32928 288.231074,298.250316 288.299389,298.250316 L289.513292,298.213467" id="Fill-29"></path>
                    <path d="M314.122421,295.376046 C314.122421,297.29749 313.097697,298.471414 311.773439,299.097858 C310.449181,299.692716 308.573149,299.913814 307.61674,299.913814 C306.549977,299.913814 305.041794,299.724301 304.190485,299.576903 C303.717536,299.503203 303.675496,299.540053 303.134232,299.876964 C303.018622,300.024362 302.908267,300.061212 302.577203,300.061212 C302.466848,300.061212 302.251393,299.876964 302.251393,299.692716 C302.135783,297.850235 301.983389,296.744746 301.767934,294.865415 C301.836249,294.754866 302.277668,294.644317 302.535163,294.644317 C302.719088,294.644317 302.834697,294.712752 302.908267,294.897001 C303.575651,297.329076 305.809023,298.771475 307.832195,298.771475 C309.781797,298.771475 311.28998,297.808121 311.25845,296.039339 C311.25845,294.38637 309.082883,293.501979 307.317206,292.912385 C305.667138,292.317527 304.085386,291.548949 303.349687,290.701408 C302.834697,290.10655 302.424808,289.301122 302.424808,288.085085 C302.424808,286.347888 303.460041,285.247664 304.526805,284.731769 C305.625098,284.17376 307.175321,283.921077 308.499579,283.921077 C309.272063,283.921077 310.296786,283.989512 311.148095,284.142175 C311.473905,284.21061 311.663084,284.21061 311.773439,283.989512 C311.804969,283.731565 311.889049,283.66313 311.988894,283.69998 C312.913773,283.768415 312.945303,283.810528 312.945303,283.884228 C312.771888,284.694919 312.987343,286.905897 313.171267,288.11667 L312.398783,288.52728 C312.288429,288.558866 312.214859,288.52728 312.141289,288.306182 C311.847009,287.348092 311.44763,286.568986 310.848561,286.058355 C310.223217,285.463497 309.198493,285.058151 307.905765,285.058151 C306.250442,285.058151 305.083834,286.12679 305.083834,287.311243 C305.083834,288.969476 306.660332,289.701204 308.683504,290.364497 C310.480711,290.954091 312.030934,291.654234 312.729848,292.280677 C313.796611,293.165068 314.122421,294.128423 314.122421,295.339196 L314.122421,295.376046" id="Fill-30"></path>
                    <path d="M319.860873,298.434564 C321.227171,298.250316 321.62655,298.145032 321.768435,297.771271 C321.884045,297.481738 321.994399,297.002693 321.994399,294.791716 L321.994399,289.595919 C321.994399,288.306182 322.036439,287.200694 321.926084,286.384738 C321.810475,285.684595 321.59502,285.542461 319.934442,285.395062 C319.860873,285.395062 319.750518,285.279249 319.792558,285.137115 L319.976482,284.326423 L323.281873,284.326423 C325.341829,284.326423 326.450633,284.252724 326.592518,284.289574 C326.781697,284.289574 326.850012,284.326423 326.892052,284.394858 C326.923582,284.547521 326.997152,285.137115 326.965622,285.247664 C326.151098,285.431912 325.672894,285.57931 325.383869,285.684595 C324.94245,285.837258 324.86888,286.279453 324.86888,288.269333 L324.86888,290.885656 C324.86888,291.180453 324.90041,291.364701 325.04755,291.364701 C325.483714,291.364701 327.958816,289.301122 328.58416,288.711528 C330.055558,287.421791 330.607332,286.826933 331.406091,286.095205 C331.705625,285.837258 331.490171,285.684595 330.123873,285.500347 L330.081833,284.473822 C330.081833,284.363273 330.123873,284.363273 330.307797,284.363273 C332.845959,284.326423 335.977934,284.21061 336.377313,284.21061 C336.445628,284.21061 336.529708,284.252724 336.529708,284.431708 C336.445628,285.058151 336.345783,285.279249 336.230174,285.316099 C334.685206,285.65301 334.096647,285.905693 333.103453,286.647949 C332.630504,287.011181 331.122321,288.085085 328.32141,290.364497 C328.032386,290.627709 328.032386,290.769843 328.105955,290.848806 C329.981988,293.022934 332.073475,295.049663 333.397733,296.3394 C334.396181,297.29749 335.053055,297.808121 335.788754,298.071332 C336.419353,298.213467 336.887048,298.32928 337.155052,298.402979 C337.370507,298.471414 337.444077,298.587227 337.412547,298.734626 C337.228622,299.029423 337.044697,299.318955 336.860773,299.576903 C336.487668,299.576903 334.764031,299.471618 333.397733,299.471618 L329.682453,299.471618 L329.682453,298.771475 C329.682453,298.550377 329.724493,298.471414 329.829593,298.434564 C330.081833,298.366129 330.528507,298.29243 330.791257,298.213467 C331.122321,298.108182 331.080281,297.808121 330.607332,297.365925 C329.314604,295.970904 327.333472,294.017874 326.151098,292.801836 C325.783249,292.43334 325.483714,292.212242 325.157905,292.212242 C324.94245,292.212242 324.86888,292.317527 324.86888,292.617588 L324.86888,294.307407 C324.86888,297.665987 325.01602,298.071332 325.599324,298.181881 C325.825289,298.213467 326.482163,298.29243 326.807972,298.366129 C326.965622,298.402979 327.033937,298.471414 326.997152,298.624077 L326.850012,299.355805 C326.781697,299.503203 326.666088,299.540053 326.366553,299.540053 C325.967174,299.503203 325.273515,299.503203 323.176773,299.471618 C321.994399,299.471618 320.270762,299.540053 320.086837,299.540053 C319.902912,299.540053 319.860873,299.503203 319.860873,299.397919 L319.860873,298.434564" id="Fill-31"></path>
                    <path d="M346.682353,293.317731 C347.780647,293.317731 348.957765,293.317731 350.355593,293.280881 C350.539518,293.280881 350.681402,293.096633 350.581558,292.875536 C349.730249,290.364497 349.14169,288.895776 348.547876,287.269129 C347.749117,289.190573 347.008163,290.990941 346.272464,292.943971 C346.240934,293.133483 346.456389,293.317731 346.640313,293.317731 L346.682353,293.317731 L346.682353,293.317731 Z M349.546324,283.847378 C349.956214,283.847378 350.098098,283.921077 350.213708,284.21061 C351.753421,288.337768 353.413998,292.691287 355.321561,296.744746 C355.80502,297.739686 356.162359,298.181881 357.644267,298.434564 C357.786152,298.434564 357.786152,298.513528 357.786152,298.845174 C357.712582,299.540053 357.602227,299.576903 357.386773,299.576903 C355.652625,299.540053 354.622647,299.503203 353.813378,299.503203 C352.63626,299.503203 351.495926,299.619017 351.238432,299.619017 C351.164862,299.619017 350.870582,298.771475 350.870582,298.624077 C351.863776,298.32928 352.305195,298.108182 352.305195,297.771271 C352.305195,297.365925 351.648321,295.676107 351.464396,295.270761 C351.312002,294.9707 351.122822,294.791716 350.765482,294.791716 C349.2573,294.754866 347.491622,294.712752 346.083284,294.791716 C345.683905,294.791716 345.45794,295.012814 345.284525,295.307611 C345.016521,295.860355 344.659181,297.144828 344.659181,297.481738 C344.659181,297.808121 344.874636,298.108182 346.057009,298.366129 C346.240934,298.402979 346.272464,298.434564 346.272464,298.624077 C346.272464,298.734626 346.125324,299.282106 346.057009,299.503203 C344.249292,299.471618 342.851464,299.471618 342.18408,299.471618 C341.82674,299.471618 341.085786,299.503203 340.943902,299.503203 C340.828292,299.503203 340.534012,298.992573 340.534012,298.624077 C340.534012,298.471414 340.576052,298.366129 340.602327,298.366129 C342.010665,298.029219 342.29969,297.771271 343.150998,296.118302 C344.506786,293.244032 346.309249,289.037911 347.707077,285.800408 C348.006611,285.173964 348.148496,284.694919 348.222066,284.394858 C348.290381,284.252724 348.374461,284.17376 348.516346,284.105325 C348.81588,283.952663 349.14169,283.847378 349.514794,283.847378 L349.546324,283.847378 L349.546324,283.847378 Z" id="Fill-32"></path>
                    <path d="M394.418704,286.605836 C396.368306,286.605836 398.654227,286.647949 399.053607,286.568986 C399.384671,286.537401 399.458241,286.347888 399.458241,285.247664 L399.458241,282.078596 C399.458241,279.72022 399.458241,279.056927 399.426711,278.430484 C399.384671,277.172332 399.053607,277.030198 396.704625,276.624852 C396.63631,276.551153 396.809725,275.593063 396.88855,275.519363 C398.212808,275.519363 399.500281,275.556213 400.819284,275.556213 C401.260704,275.556213 402.075227,275.519363 402.810926,275.4404 C403.58341,275.371965 404.319109,275.335115 404.508289,275.335115 C404.760528,275.335115 404.865628,275.335115 404.949708,275.482514 C405.091593,275.777311 405.201948,276.219506 405.201948,276.403754 C403.141991,276.730137 402.774141,276.84595 402.658531,278.056723 C402.627002,278.835829 402.516647,281.415303 402.516647,283.847378 L402.516647,290.48031 C402.516647,293.828362 402.584962,295.049663 402.700571,296.634197 C402.774141,297.629137 402.958066,297.923934 405.307048,298.145032 C405.391127,298.32928 405.091593,299.318955 404.865628,299.355805 L400.083585,299.355805 C398.028883,299.355805 397.435069,299.471618 397.146045,299.471618 C396.96212,299.471618 396.851765,299.471618 396.851765,299.355805 L396.851765,298.29243 C398.654227,298.071332 399.127177,297.808121 399.242786,297.408039 C399.384671,296.88688 399.458241,295.233911 399.458241,292.096429 L399.458241,289.116874 C399.458241,288.816813 399.384671,288.52728 399.279571,288.416731 C399.053607,288.269333 398.759327,288.232483 394.712983,288.232483 L389.274066,288.232483 C384.675948,288.232483 384.050604,288.269333 383.609184,288.337768 C383.094195,288.416731 383.05741,288.674679 383.05741,289.153724 C383.05741,291.991145 383.05741,293.981024 383.167765,295.639257 C383.199295,296.88688 383.283375,297.329076 383.498829,297.550173 C383.724794,297.808121 384.008564,298.029219 385.774241,298.366129 C386.031736,298.402979 386.115816,298.434564 386.115816,298.550377 C386.115816,298.771475 386.142091,299.576903 386.073776,299.655866 C384.817833,299.619017 382.468851,299.471618 380.734704,299.471618 C378.827141,299.503203 378.128227,299.619017 377.975833,299.619017 C377.828693,299.619017 377.802418,299.619017 377.718338,299.540053 C377.613238,299.434768 377.429313,298.624077 377.460843,298.513528 C379.452485,298.029219 379.74151,297.771271 379.851865,296.702632 C379.925435,296.155152 380.009515,294.828566 380.009515,291.069904 L380.009515,284.326423 C380.009515,280.75201 379.967475,279.462273 379.925435,278.277821 C379.851865,277.135483 379.70998,276.882799 377.387273,276.551153 C377.360998,276.440604 377.429313,275.961559 377.576453,275.624648 C377.613238,275.519363 377.644768,275.519363 377.802418,275.519363 C379.126676,275.519363 380.293284,275.556213 381.328518,275.556213 C382.132531,275.556213 382.726346,275.556213 383.38322,275.519363 C383.977034,275.519363 384.633908,275.40355 385.374862,275.371965 C385.448432,275.4404 385.516747,276.472189 385.406392,276.551153 C383.940249,276.730137 383.38322,276.914385 383.241335,277.798776 C383.01537,278.941114 383.05741,280.936258 383.05741,283.510467 C383.05741,286.568986 383.094195,286.605836 383.724794,286.605836 L394.418704,286.605836" id="Fill-33"></path>
                    <path d="M421.791959,277.835625 C421.975883,277.835625 422.233378,277.877739 422.270163,277.914589 C422.601227,278.614732 422.858722,278.872679 423.625951,279.162212 C423.893955,279.278025 423.851916,280.199265 423.625951,280.309814 C422.743112,280.673046 422.559187,281.115242 422.301693,281.999633 C422.233378,282.152295 421.276969,282.152295 421.135084,281.741685 C420.87759,281.078392 420.620095,280.894144 419.737257,280.383514 C419.511292,280.2677 419.469252,279.462273 419.695217,279.34646 C420.578055,278.941114 420.725195,278.835829 421.135084,277.951438 C421.166614,277.877739 421.460894,277.835625 421.760429,277.835625 L421.791959,277.835625 L421.791959,277.835625 Z M418.045149,285.137115 C416.862776,285.137115 415.796012,285.721445 415.028783,286.647949 C413.956765,287.932422 413.630955,289.701204 413.630955,291.47525 C413.630955,293.644113 414.361399,295.491859 415.496478,296.702632 C416.678851,297.992369 418.144994,298.624077 419.437722,298.624077 C421.392579,298.624077 423.667991,296.523648 423.667991,292.47019 C423.667991,290.364497 423.300141,288.453581 421.760429,286.826933 C420.90912,285.905693 419.737257,285.137115 418.076679,285.137115 L418.045149,285.137115 L418.045149,285.137115 Z M415.612088,277.877739 C415.838052,277.877739 415.979937,277.914589 416.021977,277.988288 C416.379316,278.577882 416.536966,278.872679 417.346235,279.125362 C417.56169,279.162212 417.51965,280.125566 417.346235,280.230851 C416.568496,280.673046 416.421356,280.936258 416.021977,281.894348 C415.979937,282.152295 415.170668,282.115446 415.028783,281.894348 C414.655679,281.157356 414.329869,280.788859 413.662485,280.673046 C413.478561,280.641461 413.263106,279.788655 413.546876,279.535972 C414.287829,279.056927 414.545324,278.941114 414.839604,278.019873 C414.913174,277.951438 415.244238,277.877739 415.580558,277.877739 L415.612088,277.877739 L415.612088,277.877739 Z M418.770338,283.847378 C423.300141,283.847378 427.088991,287.348092 427.088991,291.617384 C427.088991,294.570618 425.691163,296.665782 424.15145,297.992369 C422.601227,299.397919 420.320561,299.982249 419.069873,299.982249 C416.379316,299.982249 413.84641,298.992573 412.154303,297.186941 C410.940399,295.860355 410.173171,293.796776 410.173171,291.875332 C410.173171,289.743318 410.940399,287.711324 412.779647,286.095205 C414.329869,284.652806 416.536966,283.847378 418.744063,283.847378 L418.770338,283.847378 L418.770338,283.847378 Z" id="Fill-34"></path>
                    <path d="M448.823639,293.059784 C448.124725,293.165068 448.01437,293.317731 448.01437,293.423016 C447.798916,295.676107 447.798916,298.145032 447.798916,298.692512 C447.798916,299.097858 447.683306,299.282106 447.431066,299.471618 C447.241886,299.655866 446.831997,299.655866 446.290733,299.655866 C445.150399,299.692716 443.931241,299.913814 442.165564,299.913814 C439.002058,299.913814 436.611037,299.134707 434.918929,297.518588 C433.594671,296.260437 432.711833,294.307407 432.711833,291.838482 C432.711833,289.52222 433.636711,287.53234 435.029284,286.279453 C437.020926,284.510671 440.184432,283.847378 442.391528,283.847378 C443.300642,283.847378 444.556585,283.989512 445.150399,284.142175 C445.691664,284.289574 445.849313,284.21061 446.064768,283.768415 C446.064768,283.69998 446.106808,283.69998 446.548227,283.768415 L446.916077,283.884228 C447.057962,283.921077 447.131531,284.031626 447.131531,284.326423 C447.173571,285.500347 447.431066,287.200694 447.541421,287.863987 C447.614991,288.11667 447.614991,288.269333 447.499381,288.374617 C447.431066,288.416731 446.947607,288.558866 446.658582,288.558866 L446.574502,288.558866 C446.506187,288.558866 446.432618,288.416731 446.359048,288.269333 C445.439424,286.347888 443.826141,285.137115 441.692614,285.137115 C440.436671,285.137115 439.143943,285.57931 438.345184,286.279453 C437.194341,287.200694 436.138088,289.116874 436.138088,291.770047 C436.138088,293.354581 436.537467,295.455009 438.19279,296.92373 C439.627402,298.145032 441.43512,298.692512 442.417803,298.692512 C443.158757,298.692512 443.931241,298.402979 444.267561,298.145032 C444.66694,297.850235 444.966475,296.92373 444.966475,295.528708 C444.966475,293.865211 444.882395,293.354581 443.999556,293.165068 C443.416252,293.059784 442.643768,292.98082 442.391528,292.912385 C442.233879,292.875536 442.202349,292.759723 441.950109,291.954295 C441.950109,291.770047 441.976384,291.696348 442.134034,291.696348 C443.899711,291.696348 445.292284,291.806897 446.506187,291.806897 C447.646521,291.806897 448.38222,291.696348 448.639714,291.696348 C448.823639,291.696348 448.865679,291.770047 448.865679,291.917445 L448.823639,293.059784" id="Fill-35"></path>
                    <path d="M466.632808,295.376046 C466.632808,297.29749 465.597575,298.471414 464.273316,299.097858 C462.949058,299.692716 461.067771,299.913814 460.116618,299.913814 C459.049854,299.913814 457.536416,299.724301 456.695618,299.576903 C456.212158,299.503203 456.185883,299.540053 455.628854,299.876964 C455.518499,300.024362 455.413399,300.061212 455.07708,300.061212 C454.97198,300.061212 454.746015,299.876964 454.746015,299.692716 C454.635661,297.850235 454.488521,296.744746 454.262556,294.865415 C454.346636,294.754866 454.788055,294.644317 455.04555,294.644317 C455.229475,294.644317 455.32932,294.712752 455.413399,294.897001 C456.070273,297.329076 458.31941,298.771475 460.342582,298.771475 C462.292184,298.771475 463.800367,297.808121 463.758327,296.039339 C463.758327,294.38637 461.59327,293.501979 459.827593,292.912385 C458.167015,292.317527 456.585263,291.548949 455.854819,290.701408 C455.32932,290.10655 454.92994,289.301122 454.92994,288.085085 C454.92994,286.347888 455.959919,285.247664 457.026682,284.731769 C458.135485,284.17376 459.675198,283.921077 460.999456,283.921077 C461.777195,283.921077 462.801919,283.989512 463.642717,284.142175 C463.984292,284.21061 464.168217,284.21061 464.273316,283.989512 C464.310101,283.731565 464.383671,283.66313 464.499281,283.69998 C465.408395,283.768415 465.450435,283.810528 465.450435,283.884228 C465.26651,284.694919 465.492475,286.905897 465.665889,288.11667 L464.898661,288.52728 C464.783051,288.558866 464.714736,288.52728 464.641166,288.306182 C464.341631,287.348092 463.942252,286.568986 463.358948,286.058355 C462.733604,285.463497 461.693115,285.058151 460.410897,285.058151 C458.760829,285.058151 457.578456,286.12679 457.578456,287.311243 C457.578456,288.969476 459.160209,289.701204 461.183381,290.364497 C462.991098,290.954091 464.530811,291.654234 465.22447,292.280677 C466.291233,293.165068 466.632808,294.128423 466.632808,295.339196 L466.632808,295.376046" id="Fill-36"></path>
                    <path d="M472.37126,298.434564 C473.721793,298.250316 474.136937,298.145032 474.278822,297.771271 C474.389177,297.481738 474.494276,297.002693 474.494276,294.791716 L474.494276,289.595919 C474.494276,288.306182 474.536316,287.200694 474.420707,286.384738 C474.320862,285.684595 474.094897,285.542461 472.439575,285.395062 C472.37126,285.395062 472.25565,285.279249 472.28718,285.137115 L472.471104,284.326423 L475.787005,284.326423 C477.852217,284.326423 478.95051,284.252724 479.092395,284.289574 C479.27632,284.289574 479.360399,284.326423 479.391929,284.394858 C479.428714,284.547521 479.502284,285.137115 479.460244,285.247664 C478.650975,285.431912 478.178026,285.57931 477.883747,285.684595 C477.437072,285.837258 477.368757,286.279453 477.368757,288.269333 L477.368757,290.885656 C477.368757,291.180453 477.410797,291.364701 477.552682,291.364701 C477.994101,291.364701 480.458693,289.301122 481.084037,288.711528 C482.55018,287.421791 483.107209,286.826933 483.916478,286.095205 C484.216012,285.837258 483.990048,285.684595 482.63426,285.500347 L482.59222,284.473822 C482.59222,284.363273 482.63426,284.363273 482.807674,284.363273 C485.351091,284.326423 488.472556,284.21061 488.882445,284.21061 C488.956015,284.21061 489.029585,284.252724 489.029585,284.431708 C488.956015,285.058151 488.840406,285.279249 488.730051,285.316099 C487.190338,285.65301 486.607034,285.905693 485.608585,286.647949 C485.125126,287.011181 483.616943,288.085085 480.826542,290.364497 C480.527008,290.627709 480.527008,290.769843 480.600578,290.848806 C482.481865,293.022934 484.573352,295.049663 485.90812,296.3394 C486.890803,297.29749 487.558187,297.808121 488.288631,298.071332 C488.913975,298.213467 489.397435,298.32928 489.654929,298.402979 C489.880894,298.471414 489.949209,298.587227 489.912424,298.734626 C489.723244,299.029423 489.53932,299.318955 489.355395,299.576903 C488.998055,299.576903 487.263908,299.471618 485.90812,299.471618 L482.19284,299.471618 L482.19284,298.771475 C482.19284,298.550377 482.22437,298.471414 482.334725,298.434564 C482.59222,298.366129 483.033639,298.29243 483.291134,298.213467 C483.616943,298.108182 483.585413,297.808121 483.107209,297.365925 C481.824991,295.970904 479.833349,294.017874 478.650975,292.801836 C478.293636,292.43334 477.994101,292.212242 477.663037,292.212242 C477.437072,292.212242 477.368757,292.317527 477.368757,292.617588 L477.368757,294.307407 C477.368757,297.665987 477.510642,298.071332 478.104456,298.181881 C478.325166,298.213467 478.987295,298.29243 479.318359,298.366129 C479.460244,298.402979 479.533814,298.471414 479.502284,298.624077 L479.360399,299.355805 C479.27632,299.503203 479.176475,299.540053 478.87694,299.540053 C478.477561,299.503203 477.768137,299.503203 475.67665,299.471618 C474.494276,299.471618 472.770639,299.540053 472.586714,299.540053 C472.40279,299.540053 472.37126,299.503203 472.37126,299.397919 L472.37126,298.434564" id="Fill-37"></path>
                    <path d="M501.095048,285.137115 C499.917929,285.137115 498.861676,285.721445 498.078682,286.647949 C497.011919,287.932422 496.686109,289.701204 496.686109,291.47525 C496.686109,293.644113 497.421808,295.491859 498.562141,296.702632 C499.744515,297.992369 501.210657,298.624077 502.492876,298.624077 C504.442478,298.624077 506.733654,296.523648 506.733654,292.47019 C506.733654,290.364497 506.36055,288.453581 504.810327,286.826933 C503.969528,285.905693 502.79241,285.137115 501.137088,285.137115 L501.095048,285.137115 L501.095048,285.137115 Z M501.836002,283.847378 C506.36055,283.847378 510.149399,287.348092 510.149399,291.617384 C510.149399,294.570618 508.751571,296.665782 507.206604,297.992369 C505.666891,299.397919 503.375714,299.982249 502.135536,299.982249 C499.44498,299.982249 496.912074,298.992573 495.214711,297.186941 C493.995553,295.860355 493.223069,293.796776 493.223069,291.875332 C493.223069,289.743318 493.995553,287.711324 495.840055,286.095205 C497.379768,284.652806 499.586865,283.847378 501.793962,283.847378 L501.836002,283.847378 L501.836002,283.847378 Z" id="Fill-38"></path>
                    <path d="M517.727098,289.743318 C517.727098,288.048235 517.727098,287.011181 517.653528,286.463701 C517.537919,285.800408 517.322464,285.463497 515.330822,285.463497 C515.220467,285.463497 515.078582,285.316099 515.115367,285.210814 L515.404392,284.326423 L518.352442,284.326423 C519.345636,284.326423 521.768187,284.21061 522.251647,284.21061 C522.467101,284.21061 522.545926,284.21061 522.651026,284.326423 C522.693066,284.363273 522.724596,284.694919 522.761381,285.279249 C521.368808,285.431912 520.811779,285.61616 520.701424,286.426852 C520.627854,287.232279 520.627854,288.711528 520.627854,290.290798 L520.627854,294.049459 C520.627854,297.481738 520.743464,297.887084 521.184883,298.071332 C521.442378,298.213467 522.362002,298.250316 523.24484,298.250316 C525.299542,298.213467 526.5187,297.960784 527.322714,295.41816 C527.401539,295.233911 527.433069,295.197062 527.506639,295.197062 C527.732604,295.197062 528.131983,295.339196 528.284378,295.41816 C528.357948,295.455009 528.431518,295.597143 528.389478,295.749806 C528.058413,297.107978 527.800919,298.145032 527.585464,299.134707 C527.548679,299.318955 527.433069,299.471618 527.217614,299.503203 C526.96012,299.540053 526.702625,299.540053 525.740962,299.540053 C524.784553,299.540053 523.649475,299.471618 519.303596,299.471618 C517.868983,299.471618 516.628805,299.692716 515.887851,299.724301 C515.772241,299.724301 515.661886,299.724301 515.630356,299.619017 C515.556786,299.397919 515.372862,298.771475 515.446432,298.692512 C516.881045,298.366129 517.353994,298.108182 517.579959,297.329076 C517.685058,296.965844 517.727098,296.260437 517.727098,294.270557 L517.727098,289.743318" id="Fill-39"></path>
                    <path d="M538.952012,293.317731 C540.050306,293.317731 541.227424,293.317731 542.625252,293.280881 C542.809177,293.280881 542.951061,293.096633 542.851217,292.875536 C541.999908,290.364497 541.411349,288.895776 540.817535,287.269129 C540.018776,289.190573 539.277822,290.990941 538.536868,292.943971 C538.510593,293.133483 538.726048,293.317731 538.909972,293.317731 L538.952012,293.317731 L538.952012,293.317731 Z M541.810728,283.847378 C542.225873,283.847378 542.367757,283.921077 542.478112,284.21061 C544.017825,288.337768 545.683657,292.691287 547.59122,296.744746 C548.074679,297.739686 548.432018,298.181881 549.913926,298.434564 C550.055811,298.434564 550.055811,298.513528 550.055811,298.845174 C549.982241,299.540053 549.871886,299.576903 549.656432,299.576903 C547.922284,299.540053 546.892306,299.503203 546.083037,299.503203 C544.900664,299.503203 543.765585,299.619017 543.508091,299.619017 C543.434521,299.619017 543.134986,298.771475 543.134986,298.624077 C544.133435,298.32928 544.574854,298.108182 544.574854,297.771271 C544.574854,297.365925 543.91798,295.676107 543.734055,295.270761 C543.576406,294.9707 543.392481,294.791716 543.035141,294.791716 C541.526959,294.754866 539.761281,294.712752 538.352943,294.791716 C537.953564,294.791716 537.727599,295.012814 537.554184,295.307611 C537.28618,295.860355 536.92884,297.144828 536.92884,297.481738 C536.92884,297.808121 537.144295,298.108182 538.321413,298.366129 C538.510593,298.402979 538.536868,298.434564 538.536868,298.624077 C538.536868,298.734626 538.394983,299.282106 538.321413,299.503203 C536.518951,299.471618 535.121123,299.471618 534.453739,299.471618 C534.096399,299.471618 533.355445,299.503203 533.213561,299.503203 C533.097951,299.503203 532.803671,298.992573 532.803671,298.624077 C532.803671,298.471414 532.840456,298.366129 532.871986,298.366129 C534.280324,298.029219 534.569349,297.771271 535.420657,296.118302 C536.776445,293.244032 538.578908,289.037911 539.976736,285.800408 C540.27627,285.173964 540.418155,284.694919 540.491725,284.394858 C540.56004,284.252724 540.64412,284.17376 540.786005,284.105325 C541.085539,283.952663 541.411349,283.847378 541.784453,283.847378 L541.810728,283.847378 L541.810728,283.847378 Z" id="Fill-40"></path>
                </g>
            </g>
        </g>
    </g>
</svg>