<?xml version="1.0" encoding="UTF-8" standalone="no"?>
<svg width="37px" height="29px" viewBox="0 0 37 29" version="1.1" xmlns="http://www.w3.org/2000/svg" xmlns:xlink="http://www.w3.org/1999/xlink" xmlns:sketch="http://www.bohemiancoding.com/sketch/ns">
    <!-- Generator: Sketch 3.0.4 (8054) - http://www.bohemiancoding.com/sketch -->
    <title>Shape</title>
    <desc>Created with Sketch.</desc>
    <defs></defs>
    <g id="Welcome" stroke="none" stroke-width="1" fill="none" fill-rule="evenodd" sketch:type="MSPage">
        <g id="Desktop-HD" sketch:type="MSArtboardGroup" transform="translate(-1203.000000, -599.000000)" fill="#D8D8D8">
            <g id="Twitter" sketch:type="MSLayerGroup" transform="translate(957.000000, 599.000000)">
                <path d="M277.10925,4.44396358 C278.575126,3.56640363 279.699105,2.17634867 280.229151,0.518111394 C278.858052,1.33178498 277.340224,1.92220731 275.723408,2.24093709 C274.429533,0.862114894 272.585253,1.95399252e-14 270.5444,1.95399252e-14 C266.62627,1.95399252e-14 263.449503,3.17676702 263.449503,7.09559872 C263.449503,7.65091866 263.511985,8.19219764 263.63344,8.71241517 C257.736237,8.41615093 252.507384,5.59181199 249.007674,1.29878872 C248.396893,2.34624428 248.047273,3.56499954 248.047273,4.86659645 C248.047273,7.3279766 249.299726,9.50011298 251.203681,10.7722239 C250.041089,10.7350153 248.946596,10.4155835 247.989705,9.88413322 C247.989003,9.91361923 247.989003,9.94380729 247.989003,9.97399536 C247.989003,13.4112222 250.434938,16.278386 253.681208,16.9312906 C253.085871,17.0927617 252.458942,17.1798156 251.811654,17.1798156 C251.353919,17.1798156 250.909522,17.1355866 250.476359,17.0520429 C251.379895,19.8707654 253.999938,21.9228516 257.104394,21.9797175 C254.67601,23.8829695 251.617187,25.017479 248.292288,25.017479 C247.720119,25.017479 247.15497,24.9837807 246.59965,24.9177882 C249.740613,26.9319638 253.469891,28.105788 257.476479,28.105788 C270.528253,28.105788 277.66457,17.2942494 277.66457,7.91769688 C277.66457,7.61019988 277.658252,7.30340492 277.644913,6.99871611 C279.030755,6.00040391 280.234066,4.75005649 281.184639,3.32700528 C279.91323,3.89215389 278.544938,4.27336593 277.10925,4.44396358 Z" id="Shape" sketch:type="MSShapeGroup"></path>
            </g>
        </g>
    </g>
</svg>