<?xml version="1.0" encoding="UTF-8" standalone="no"?>
<svg
   xmlns:dc="http://purl.org/dc/elements/1.1/"
   xmlns:cc="http://creativecommons.org/ns#"
   xmlns:rdf="http://www.w3.org/1999/02/22-rdf-syntax-ns#"
   xmlns:svg="http://www.w3.org/2000/svg"
   xmlns="http://www.w3.org/2000/svg"
   viewBox="0 0 142.8 71.912498"
   height="71.912498"
   width="142.8"
   xml:space="preserve"
   version="1.1"
   id="svg2"><metadata
     id="metadata8"><rdf:RDF><cc:Work
         rdf:about=""><dc:format>image/svg+xml</dc:format><dc:type
           rdf:resource="http://purl.org/dc/dcmitype/StillImage" /></cc:Work></rdf:RDF></metadata><defs
     id="defs6" /><g
     transform="matrix(1.25,0,0,-1.25,0,71.9125)"
     id="g10"><g
       transform="scale(0.1,0.1)"
       id="g12"><path
         id="path14"
         style="fill:#ffffff;fill-opacity:1;fill-rule:nonzero;stroke:none"
         d="m 571.469,245.164 c -53.047,0 -99.949,26.789 -127.899,67.547 l 255.801,-0.008 C 671.41,271.953 624.516,245.164 571.469,245.164 Z m -155,154.992 c 0,81.477 63.195,148.461 143.136,154.543 L 431.703,333.176 c -9.754,20.285 -15.234,43.008 -15.234,66.98 z m 225.176,13.559 c 21.417,-37.094 40.793,-70.653 46.769,-81.012 -7.305,0 -24.641,0 -46.769,0 l 0,81.012 z M 501.293,332.703 c -22.129,0 -39.453,0.008 -46.766,0.008 5.985,10.355 25.352,43.906 46.766,81 l 0,-81.008 z m 120.352,0.219 -100.352,0 0,100.34 100.352,0 0,-100.34 z M 571.48,535.254 c 6.024,-10.449 25.692,-44.508 47.332,-81.992 l -94.675,0 c 21.64,37.484 41.308,71.543 47.343,81.992 z M 726.469,400.156 c 0,-23.972 -5.477,-46.695 -15.235,-66.976 l -127.89,221.519 c 79.941,-6.086 143.125,-73.074 143.125,-154.543 z m -3.438,-87.406 c 14.895,25.73 23.438,55.59 23.438,87.406 0,96.469 -78.465,174.953 -174.93,174.992 l -0.059,0.106 -0.07,-0.106 c -96.465,-0.031 -174.941,-78.515 -174.941,-174.992 0,-31.816 8.547,-61.676 23.437,-87.406 l -0.019,-0.039 0.051,0 c 30.292,-52.289 86.863,-87.547 151.531,-87.547 64.66,0 121.23,35.246 151.535,87.539 l 0.047,0 -0.02,0.047" /><path
         id="path16"
         style="fill:#ffffff;fill-opacity:1;fill-rule:nonzero;stroke:none"
         d="m 18.8984,89.043 c 1.5977,0.2031 4.3008,0.6054 5.8008,0.8008 2.6016,0.5 3.8985,1.2031 4.3008,3.3984 0.1992,1.4062 0.8984,8.2028 0.8984,22.6098 l 0,10.195 c 0,18.094 -0.0976,21.601 -0.5,21.601 l -8.1015,0 C 11.8984,147.648 7.5,146.047 6.69922,145.547 5.5,144.648 4.80078,142.844 3.39844,138.75 c 0,-0.305 -0.5,-0.305 -0.89844,-0.105 -0.80078,0.398 -2.203125,1.699 -2.5,2 1.39453,2.902 3.39844,7.402 5.69922,14.902 0.39844,0.098 1.09766,0 1.89844,-0.203 0.70312,-0.196 0.80078,-0.293 0.90234,-0.696 0,-1.804 0.19922,-2.609 0.89844,-2.8 0.80076,-0.207 2.30076,-0.305 4.60156,-0.403 2.9961,-0.097 7.7969,-0.097 17.0977,-0.097 10.8984,0 19.3046,0 25.1054,0.293 2.8946,0.105 4.5977,0.3 5.5938,0.605 0.6015,0.195 1.1992,0.996 1.8008,2.805 0.1054,0.398 0.1992,0.398 0.5,0.398 0.5,0 1.8007,-0.398 2.6015,-0.91 0.1992,-0.098 0.1992,-0.496 0,-1.297 -2,-5.195 -2.1015,-7.597 -2.6015,-13.703 0,-0.496 -0.3008,-0.789 -1.1016,-0.789 -0.5977,0 -1.2969,0.098 -1.793,0.195 -0.3047,0.098 -0.5039,0.403 -0.5039,0.594 0,0.805 0.1992,4.309 0.1992,5.207 0,0.703 -0.4023,1.504 -1.6015,1.895 -0.8985,0.398 -5.6992,1.007 -12.7969,1.007 l -6.5,0 c -0.9023,0 -1.2969,-0.609 -1.4023,-2.597 0,-1.699 -0.2969,-6.606 -0.2969,-20 l 0,-10 c 0,-14.406 0.2969,-18.7033 0.6992,-20.5119 0.2969,-1.6953 1,-2.9961 2.2031,-3.5938 1.793,-1.0039 6.2969,-1.5976 8.5977,-1.8047 0.6015,0 0.6953,-0.0976 0.6015,-0.3906 L 50,86.7461 c -0.1016,-0.3984 -0.1992,-0.6016 -0.9023,-0.6016 -1.1954,0 -9.8008,0.3008 -14.6993,0.3008 -5.1992,0 -13.1015,-0.3984 -13.9023,-0.3984 -0.7969,0 -1.1992,0.3008 -1.2969,0.8008 l -0.3008,2.1953" /><path
         id="path18"
         style="fill:#ffffff;fill-opacity:1;fill-rule:nonzero;stroke:none"
         d="m 121.895,121.348 c 5.3,0 11.503,-0.098 12.601,0.097 0.899,0.098 1.102,0.594 1.102,3.606 l 0,8.594 c 0,6.406 0,8.203 -0.102,9.902 -0.101,3.394 -1,3.797 -7.398,4.898 -0.203,0.2 0.3,2.805 0.496,3 3.601,0 7.105,-0.097 10.703,-0.097 1.199,0 3.398,0.097 5.398,0.293 2.102,0.207 4.098,0.3 4.602,0.3 0.699,0 1,0 1.199,-0.398 0.402,-0.801 0.699,-2.004 0.699,-2.5 -5.597,-0.898 -6.601,-1.199 -6.898,-4.504 -0.102,-2.098 -0.402,-9.09 -0.402,-15.691 l 0,-17.996 c 0,-9.106 0.203,-12.4067 0.5,-16.7114 0.199,-2.6953 0.703,-3.4961 7.097,-4.0898 0.203,-0.5117 -0.594,-3.2031 -1.195,-3.3047 -4.301,0 -8.602,0 -13,0 -5.602,0 -7.199,-0.3008 -8,-0.3008 -0.504,0 -0.801,0 -0.801,0.3008 l 0,2.9023 c 4.902,0.5938 6.199,1.2969 6.5,2.3907 0.399,1.4062 0.602,5.9101 0.602,14.4059 l 0,8.094 c 0,0.805 -0.203,1.606 -0.5,1.906 -0.602,0.403 -1.403,0.496 -12.403,0.496 l -14.8,0 c -12.5005,0 -14.1997,-0.093 -15.3989,-0.3 -1.4023,-0.196 -1.5,-0.899 -1.5,-2.2 0,-7.695 0,-13.093 0.2969,-17.5933 0.1054,-3.4024 0.3047,-4.6016 0.9062,-5.2071 0.5977,-0.6953 1.3946,-1.2968 6.1992,-2.1992 0.6993,-0.0937 0.8985,-0.1953 0.8985,-0.4961 0,-0.5937 0.0976,-2.8008 -0.1016,-3 -3.3984,0.1016 -9.8008,0.5 -14.4961,0.5 -5.2031,-0.0976 -7.1015,-0.3984 -7.5,-0.3984 -0.4023,0 -0.5039,0 -0.707,0.2031 -0.2969,0.293 -0.793,2.5 -0.6953,2.793 5.3984,1.3008 6.1992,2.0039 6.4961,4.9023 0.2031,1.5039 0.4023,5.0977 0.4023,15.3007 l 0,18.305 c 0,9.695 -0.0976,13.191 -0.1992,16.394 -0.2031,3.094 -0.6016,3.797 -6.9023,4.7 -0.0977,0.3 0.1054,1.597 0.5,2.5 0.1015,0.3 0.1992,0.3 0.6015,0.3 3.6016,0 6.8008,-0.097 9.5977,-0.097 2.2031,0 3.8047,0 5.6015,0.097 1.6016,0 3.4024,0.301 5.3985,0.403 0.2031,-0.207 0.4023,-3 0.1054,-3.203 -4,-0.5 -5.5039,-0.997 -5.9062,-3.403 -0.5938,-3.094 -0.4961,-8.496 -0.4961,-15.496 0,-8.301 0.0977,-8.398 1.8008,-8.398 l 29.0981,0" /><path
         id="path20"
         style="fill:#ffffff;fill-opacity:1;fill-rule:nonzero;stroke:none"
         d="m 184.691,121.145 c 4.504,0 7.903,0.105 10.403,0.3 6,0.403 6.504,0.801 7.801,6.7 0.402,0.3 2.703,0.5 3.199,0.402 -0.199,-2.902 -0.801,-7.5 -0.801,-10.598 0.102,-3.41 0.398,-6.203 0.703,-9.101 -0.801,-0.203 -1.601,-0.301 -2.301,-0.301 -0.504,-0.102 -0.703,0.203 -0.902,0.594 -0.398,1.101 -0.898,2.707 -1.195,3.906 -0.602,2.695 -1.801,3.594 -5.801,3.894 -2.203,0.207 -5.504,0.207 -10.602,0.207 -5,0 -6,-0.109 -6.601,-0.207 -0.403,-0.093 -0.699,-0.195 -1,-0.593 -0.297,-0.606 -0.899,-4.102 -0.899,-12.305 0,-7.2969 0,-10 1,-11.6016 1.403,-1.8945 4.899,-2.3906 13.102,-2.3906 11.699,0 17.301,1.0937 20.398,11.6952 0.403,0.102 1.399,0 2.399,-0.105 0.301,-0.196 0.301,-0.293 0.301,-0.789 -0.2,-4.602 -1.801,-11.0082 -3.098,-13.9106 -0.504,-0.5937 -0.801,-0.7969 -1.305,-0.7969 -0.699,0 -1.394,0 -4.695,0.1055 -3,0.0977 -10,0.1953 -18.305,0.1953 -7.996,0 -15.894,-0.3984 -23.898,-0.7031 -0.199,0.1094 -0.297,2.207 -0.199,3.0078 0,0.1953 0.3,0.3906 0.398,0.3906 4.602,0.8008 5,1.5039 5.102,3.0078 0.203,1.4961 0.699,7.9026 0.699,18.0936 l 0,17.309 c 0,13.301 -0.602,17.691 -0.699,18.301 -0.102,0.593 -0.301,1.089 -1.297,1.296 -1,0.403 -2.903,0.696 -5.305,1.297 -0.098,0.102 -0.098,0.102 -0.098,0.403 l 0.2,2.297 c 0,0.398 0,0.496 0.5,0.496 l 3.5,0 c 3.101,0 6.902,-0.196 13,-0.293 l 9.703,0 c 6.097,0 13.394,0.5 18.394,0.593 1.301,0 1.903,-0.195 2.403,-0.496 0.902,-0.593 0.902,-0.593 0.5,-2.402 -0.801,-4.395 -0.899,-10.195 -0.899,-12.793 -2.601,0 -3.004,0.293 -3.101,0.898 -1.403,7.2 -2.098,10.801 -9.903,10.801 l -6.898,0 c -5.899,0 -9.199,-0.207 -10.297,-0.508 -1.305,-0.402 -1.5,-1.394 -1.5,-3.691 0,-7.004 0.098,-14.004 0.195,-21.008 0,-0.894 0.602,-1.597 1.305,-1.597 l 6.394,0" /><path
         id="path22"
         style="fill:#ffffff;fill-opacity:1;fill-rule:nonzero;stroke:none"
         d="m 259.316,84.1406 c -0.199,0 -0.504,0.1055 -0.902,0.6055 -0.402,0.7031 -0.602,1.8945 -0.699,3.6055 -0.199,5.0937 -0.899,10.0937 -1.602,14.7934 -0.297,0.605 -0.199,0.898 0.301,0.996 0.598,0.105 1.598,0.3 2.199,0.3 0.504,0 0.703,-0.195 1,-1.199 0.403,-1.601 1.102,-3.9959 2.903,-6.3943 3.199,-4.6993 9.894,-8.6055 16.5,-8.6055 8.898,0 15.101,5.7031 15.101,14.0038 0,3.496 -1.707,6.399 -4.504,8.399 -2,1.601 -4.597,3 -12.5,5.898 -6.898,2.703 -11.801,5 -15,8.699 -2,2.309 -3.699,6.606 -3.699,10.102 0,7.207 3.598,11.695 8.402,14.304 2.399,1.399 8.2,3.399 14.7,3.399 2.8,0 7.8,-0.496 9.597,-0.801 1.297,-0.305 2.203,-0.305 2.801,-0.305 0.699,0 1.598,0.801 2.398,2.004 1,0.098 2.301,0 2.5,-0.097 -0.296,-5.496 0,-10.403 0.801,-15.703 0.199,-0.594 0,-0.997 -0.297,-1.204 -0.3,-0.3 -1.504,-0.894 -2.304,-1.089 -0.297,-0.11 -0.395,0.093 -0.598,0.496 -1.102,3.593 -1.902,7.004 -4.797,9.297 -2.004,2.097 -7.105,3.796 -12.105,3.796 -7.598,0 -12.5,-4.902 -12.5,-11.492 0,-3.203 1.304,-5.703 2.699,-7.304 2.5,-2.598 5.305,-4.297 12.805,-6.895 7.097,-2.605 11.898,-5.105 15,-7.805 4,-3.601 5.296,-7.398 5.296,-12.195 0,-7.207 -3.695,-12.6055 -8.796,-15.3984 -4.504,-2.4063 -13.301,-3.6055 -16.606,-3.6055 -4.398,0 -8.695,0.7031 -12.898,1.5039 -0.797,0.1953 -1.297,0 -1.797,-0.2031 -0.602,-0.3047 -1.301,-0.7031 -2,-1.3008 -0.602,-0.5 -0.903,-0.6055 -1.301,-0.6055 l -0.098,0" /><path
         id="path24"
         style="fill:#ffffff;fill-opacity:1;fill-rule:nonzero;stroke:none"
         d="m 329.512,89.043 c 1.601,0.2031 4.3,0.6054 5.8,0.8008 2.602,0.5 3.903,1.2031 4.301,3.3984 0.199,1.4062 0.899,8.2028 0.899,22.6098 l 0,10.195 c 0,18.094 -0.098,21.601 -0.496,21.601 l -8.102,0 c -9.398,0 -13.801,-1.601 -14.602,-2.101 -1.199,-0.899 -1.898,-2.703 -3.296,-6.797 0,-0.305 -0.5,-0.305 -0.903,-0.105 -0.801,0.398 -2.199,1.699 -2.5,2 1.399,2.902 3.403,7.402 5.699,14.902 0.403,0.098 1.098,0 1.903,-0.203 0.699,-0.196 0.801,-0.293 0.902,-0.696 0,-1.804 0.199,-2.609 0.899,-2.8 0.8,-0.207 2.296,-0.305 4.597,-0.403 3,-0.097 7.797,-0.097 17.102,-0.097 10.898,0 19.301,0 25.101,0.293 2.895,0.105 4.602,0.3 5.594,0.605 0.602,0.195 1.203,0.996 1.805,2.805 0.101,0.398 0.199,0.398 0.496,0.398 0.504,0 1.805,-0.398 2.601,-0.91 0.204,-0.098 0.204,-0.496 0,-1.297 -2,-5.195 -2.097,-7.597 -2.601,-13.703 0,-0.496 -0.297,-0.789 -1.098,-0.789 -0.601,0 -1.301,0.098 -1.797,0.195 -0.3,0.098 -0.504,0.403 -0.504,0.594 0,0.805 0.204,4.309 0.204,5.207 0,0.703 -0.403,1.504 -1.606,1.895 -0.894,0.398 -5.695,1.007 -12.797,1.007 l -6.5,0 c -0.902,0 -1.297,-0.609 -1.398,-2.597 0,-1.699 -0.297,-6.606 -0.297,-20 l 0,-10 c 0,-14.406 0.297,-18.7033 0.695,-20.5119 0.297,-1.6953 1,-2.9961 2.203,-3.5938 1.797,-1.0039 6.297,-1.5976 8.598,-1.8047 0.602,0 0.699,-0.0976 0.602,-0.3906 l -0.403,-2.0039 c -0.101,-0.3984 -0.199,-0.6016 -0.902,-0.6016 -1.195,0 -9.801,0.3008 -14.695,0.3008 -5.204,0 -13.102,-0.3984 -13.903,-0.3984 -0.801,0 -1.203,0.3008 -1.301,0.8008 l -0.3,2.1953" /><path
         id="path26"
         style="fill:#ffffff;fill-opacity:1;fill-rule:nonzero;stroke:none"
         d="m 454.016,148.352 c -0.903,-0.207 -2.707,-0.508 -3.911,-0.704 -0.398,-0.097 -0.996,-0.609 -1.296,-1.703 -0.696,-2.398 -0.997,-8.203 -1.497,-25.703 -0.3,-11.492 -1.003,-17.594 -5.601,-24.2967 -4.797,-7 -14.106,-11.2969 -22.902,-11.2969 -9.297,0 -16.497,3.7969 -19.598,7.0977 -5.195,5.293 -6.606,11.8989 -6.699,19.1059 -0.102,5.093 -0.102,11.394 0.203,19.597 0.398,11.094 0.398,13.992 0,15.496 -0.508,1.797 -2,2.297 -6.602,2.805 l 0.098,2.297 c 0.098,0.594 0.398,0.699 1.797,0.699 2.207,0 7.5,-0.398 9.597,-0.398 4.504,0.097 8.508,0.398 13.11,0.398 0.496,0 0.594,0 0.594,-0.301 0,-0.398 -0.098,-2.5 -0.293,-2.695 -6.504,-0.801 -8.106,-1.406 -8.809,-3.809 -0.293,-1.394 -0.691,-3.894 -0.789,-10.195 -0.109,-5.605 -0.402,-15.398 -0.402,-22.098 0,-8.703 2.695,-14.4058 6.699,-17.5972 3.594,-3.1094 8.996,-4.6016 14.797,-4.6016 8.797,0 12.593,3.3008 14.898,6.2969 3.899,5.1949 5.195,12.4999 5.195,23.0979 0,10.605 0.11,20.304 -0.293,24.597 -0.398,3.403 -2,3.508 -9.597,3.508 -0.305,0 -0.801,0.696 -0.703,1.192 0.3,0.507 0.898,1.308 1.203,1.906 0.301,0.301 0.594,0.398 2.293,0.398 0.91,0 6.203,-0.097 8.703,-0.097 3.101,0 7.898,0.097 10.398,0.293 0.496,0 0.496,-0.293 0.301,-0.696 l -0.894,-2.593" /><path
         id="path28"
         style="fill:#ffffff;fill-opacity:1;fill-rule:nonzero;stroke:none"
         d="m 490.215,148.547 c -3.797,0 -10.098,-1.203 -11.004,-2.004 -0.5,-0.398 -0.598,-0.898 -0.695,-2.004 -0.301,-4.391 -0.704,-13.687 -0.704,-21.988 0,-14.809 0.098,-24.9026 1.602,-30.1096 0.195,-0.6953 0.496,-1.0937 1.398,-1.4961 2.196,-1.0039 5.704,-1.5976 8.7,-1.5976 4.902,0 10.996,0.8007 17.898,5.1914 8.496,5.4023 12.707,15.1089 12.707,25.2069 0,10.703 -4.902,17.996 -9.402,22 -6.797,5.996 -15.305,6.801 -20.403,6.801 l -0.097,0 z m 40.398,-29.504 c 0,-5.598 -2.398,-14.395 -9.5,-21.0938 -7.097,-6.6015 -11.699,-8.7031 -17.097,-10.3008 -5.207,-1.5039 -8.801,-1.6015 -15.903,-1.6015 -5.301,0 -15.203,0.3984 -17.398,0.3984 -2.199,0 -5.903,-0.0976 -7.403,-0.0976 -0.097,0.1953 -0.402,2.6953 -0.199,3.0937 4.699,1.4102 5.598,2.0039 5.696,3.9102 0.507,8.2894 0.507,25.0004 0.507,37.0974 0,11.192 0,13.496 -0.3,14.699 -0.098,1.395 -0.903,2.293 -5.61,2.899 -0.094,0.098 -0.398,0.398 -0.398,1.301 l -0.098,2 c 3.699,0 7,0.195 12.207,0.293 6.797,0.105 10.391,0.398 15.195,0.398 7.2,0 20.196,-0.992 29.407,-9.195 7.293,-6.594 10.894,-14.797 10.894,-23.703 l 0,-0.098" /><path
         id="path30"
         style="fill:#ffffff;fill-opacity:1;fill-rule:nonzero;stroke:none"
         d="m 563.32,121.145 c 4.5,0 7.903,0.105 10.403,0.3 5.996,0.403 6.496,0.801 7.797,6.7 0.398,0.3 2.703,0.5 3.203,0.402 -0.196,-2.902 -0.801,-7.5 -0.801,-10.598 0.098,-3.41 0.398,-6.203 0.703,-9.101 -0.801,-0.203 -1.602,-0.301 -2.305,-0.301 -0.5,-0.102 -0.695,0.203 -0.898,0.594 -0.402,1.101 -0.899,2.707 -1.203,3.906 -0.602,2.695 -1.801,3.594 -5.805,3.894 -2.195,0.207 -5.496,0.207 -10.598,0.207 -5,0 -5.996,-0.109 -6.597,-0.207 -0.403,-0.093 -0.703,-0.195 -0.996,-0.593 -0.305,-0.606 -0.903,-4.102 -0.903,-12.305 0,-7.2969 0,-10 0.996,-11.6016 1.399,-1.8945 4.907,-2.3906 13.098,-2.3906 11.703,0 17.309,1.0937 20.406,11.6952 0.399,0.102 1.407,0 2.403,-0.105 0.3,-0.196 0.3,-0.293 0.3,-0.789 -0.203,-4.602 -1.804,-11.0082 -3.105,-13.9106 -0.496,-0.5937 -0.801,-0.7969 -1.297,-0.7969 -0.695,0 -1.398,0 -4.699,0.1055 -2.996,0.0977 -10.004,0.1953 -18.305,0.1953 -8,0 -15.898,-0.3984 -23.894,-0.7031 -0.207,0.1094 -0.305,2.207 -0.207,3.0078 0,0.1953 0.3,0.3906 0.402,0.3906 4.598,0.8008 5,1.5039 5.098,3.0078 0.203,1.4961 0.703,7.9026 0.703,18.0936 l 0,17.309 c 0,13.301 -0.598,17.691 -0.703,18.301 -0.098,0.593 -0.293,1.089 -1.301,1.296 -0.996,0.403 -2.903,0.696 -5.293,1.297 -0.11,0.102 -0.11,0.102 -0.11,0.403 l 0.208,2.297 c 0,0.398 0,0.496 0.5,0.496 l 3.496,0 c 3.101,0 6.902,-0.196 13.004,-0.293 l 9.699,0 c 6.101,0 13.398,0.5 18.402,0.593 1.301,0 1.906,-0.195 2.402,-0.496 0.899,-0.593 0.899,-0.593 0.5,-2.402 -0.8,-4.395 -0.898,-10.195 -0.898,-12.793 -2.598,0 -3,0.293 -3.105,0.898 -1.399,7.2 -2.102,10.801 -9.899,10.801 l -6.902,0 c -5.903,0 -9.199,-0.207 -10.305,-0.508 -1.301,-0.402 -1.492,-1.394 -1.492,-3.691 0,-7.004 0.098,-14.004 0.191,-21.008 0,-0.894 0.61,-1.597 1.301,-1.597 l 6.406,0" /><path
         id="path32"
         style="fill:#ffffff;fill-opacity:1;fill-rule:nonzero;stroke:none"
         d="m 600.121,151.746 c 4.602,-0.203 6.797,-0.398 13.899,-0.398 0.593,0 1.101,-0.098 1.296,-0.301 0.403,-0.305 0.899,-1.106 1.204,-1.801 0.703,-1.297 4.199,-5.894 6.601,-8.101 5.996,-6.094 20.594,-20.598 40.496,-39.399 0.098,3.195 0.195,12.199 0.195,19.602 0,10.398 -0.097,15.8 -0.496,20.898 -0.195,1.699 -0.402,4.199 -2.597,4.902 -1.106,0.403 -3.801,0.696 -5.899,0.899 -0.304,0.098 -0.5,0.195 -0.5,0.5 l -0.203,2.801 c 3.797,0 7.598,0 11.297,0 3.906,0 7.902,0.293 11.008,0.398 0.496,0 0.801,-0.203 0.898,-0.496 l 0.594,-2.109 c -3.594,-0.789 -5,-1.192 -6.602,-2.2 -1.894,-1.089 -2.5,-4.293 -2.996,-17.898 -0.195,-8.992 -0.304,-15.496 -0.304,-28.895 0,-6.398 0.304,-12.3042 0.304,-14.0035 -0.097,-0.5976 -0.695,-1.0937 -2.004,-1.6054 -0.496,-0.1914 -0.898,-0.1914 -1.394,0.5117 -5.898,8.6992 -15.195,18.0942 -25.703,28.4962 -8.301,8.301 -16.203,16.101 -24.395,24.297 -0.304,-5.598 -0.5,-12.696 -0.5,-18.305 0,-9.09 0,-22.5976 1.192,-26.3945 0.8,-2.2929 3.906,-3.0937 8.008,-3.8984 l 0.695,-2.3984 c 0.105,-0.3047 -0.5,-0.8008 -0.801,-0.8008 -4.199,0 -8.594,0.3984 -12.695,0.3984 -3.496,0 -6.504,-0.3008 -8.203,-0.3008 -0.196,1.0039 -0.5,2 -0.801,2.8008 6.297,1.6992 6.699,2.6953 7.207,5.9961 0.293,2.5 1.199,11.6996 1.199,25.8006 l 0,11.106 c 0,10.3 -0.203,12 -1.805,13.496 -1.601,1.695 -3.195,2.605 -7.402,3.101 -0.598,0.2 -0.793,0.305 -0.793,0.696 l 0,2.605" /><path
         id="path34"
         style="fill:#ffffff;fill-opacity:1;fill-rule:nonzero;stroke:none"
         d="m 701.207,89.043 c 1.602,0.2031 4.305,0.6054 5.801,0.8008 2.597,0.5 3.906,1.2031 4.297,3.3984 0.203,1.4062 0.906,8.2028 0.906,22.6098 l 0,10.195 c 0,18.094 -0.106,21.601 -0.508,21.601 l -8.094,0 c -9.406,0 -13.8,-1.601 -14.601,-2.101 -1.199,-0.899 -1.903,-2.703 -3.301,-6.797 0,-0.305 -0.496,-0.305 -0.898,-0.105 -0.801,0.398 -2.196,1.699 -2.5,2 1.398,2.902 3.398,7.402 5.703,14.902 0.402,0.098 1.093,0 1.894,-0.203 0.703,-0.196 0.801,-0.293 0.899,-0.696 0,-1.804 0.207,-2.609 0.898,-2.8 0.801,-0.207 2.305,-0.305 4.602,-0.403 3.007,-0.097 7.8,-0.097 17.109,-0.097 10.898,0 19.297,0 25.098,0.293 2.898,0.105 4.597,0.3 5.593,0.605 0.606,0.195 1.204,0.996 1.797,2.805 0.11,0.398 0.207,0.398 0.508,0.398 0.5,0 1.797,-0.398 2.598,-0.91 0.195,-0.098 0.195,-0.496 0,-1.297 -2,-5.195 -2.098,-7.597 -2.598,-13.703 0,-0.496 -0.301,-0.789 -1.101,-0.789 -0.598,0 -1.301,0.098 -1.797,0.195 -0.305,0.098 -0.5,0.403 -0.5,0.594 0,0.805 0.195,4.309 0.195,5.207 0,0.703 -0.398,1.504 -1.602,1.895 -0.898,0.398 -5.703,1.007 -12.8,1.007 l -6.496,0 c -0.899,0 -1.297,-0.609 -1.395,-2.597 0,-1.699 -0.305,-6.606 -0.305,-20 l 0,-10 c 0,-14.406 0.305,-18.7033 0.696,-20.5119 0.3,-1.6953 1.004,-2.9961 2.207,-3.5938 1.797,-1.0039 6.297,-1.5976 8.593,-1.8047 0.606,0 0.704,-0.0976 0.606,-0.3906 l -0.402,-2.0039 c -0.098,-0.3984 -0.204,-0.6016 -0.899,-0.6016 -1.199,0 -9.805,0.3008 -14.707,0.3008 -5.195,0 -13.094,-0.3984 -13.894,-0.3984 -0.801,0 -1.204,0.3008 -1.301,0.8008 l -0.301,2.1953" /><path
         id="path36"
         style="fill:#ffffff;fill-opacity:1;fill-rule:nonzero;stroke:none"
         d="m 859.645,148.352 c -0.899,-0.207 -2.707,-0.508 -3.907,-0.704 -0.402,-0.097 -0.996,-0.609 -1.3,-1.703 -0.692,-2.398 -0.997,-8.203 -1.493,-25.703 -0.304,-11.492 -1.007,-17.594 -5.605,-24.2967 -4.797,-7 -14.102,-11.2969 -22.902,-11.2969 -9.297,0 -16.493,3.7969 -19.598,7.0977 -5.195,5.293 -6.602,11.8989 -6.699,19.1059 -0.098,5.093 -0.098,11.394 0.203,19.597 0.402,11.094 0.402,13.992 0,15.496 -0.508,1.797 -2,2.297 -6.602,2.805 l 0.098,2.297 c 0.098,0.594 0.402,0.699 1.797,0.699 2.207,0 7.5,-0.398 9.601,-0.398 4.5,0.097 8.504,0.398 13.106,0.398 0.496,0 0.594,0 0.594,-0.301 0,-0.398 -0.098,-2.5 -0.293,-2.695 -6.504,-0.801 -8.106,-1.406 -8.809,-3.809 -0.293,-1.394 -0.691,-3.894 -0.789,-10.195 -0.109,-5.605 -0.402,-15.398 -0.402,-22.098 0,-8.703 2.695,-14.4058 6.699,-17.5972 3.594,-3.1094 8.996,-4.6016 14.797,-4.6016 8.797,0 12.597,3.3008 14.902,6.2969 3.895,5.1949 5.195,12.4999 5.195,23.0979 0,10.605 0.106,20.304 -0.293,24.597 -0.402,3.403 -2.004,3.508 -9.601,3.508 -0.301,0 -0.801,0.696 -0.703,1.192 0.304,0.507 0.898,1.308 1.203,1.906 0.301,0.301 0.594,0.398 2.293,0.398 0.91,0 6.203,-0.097 8.703,-0.097 3.105,0 7.898,0.097 10.398,0.293 0.5,0 0.5,-0.293 0.305,-0.696 l -0.898,-2.593" /><path
         id="path38"
         style="fill:#ffffff;fill-opacity:1;fill-rule:nonzero;stroke:none"
         d="m 866.637,151.746 c 4.597,-0.203 6.797,-0.398 13.894,-0.398 0.598,0 1.106,-0.098 1.301,-0.301 0.398,-0.305 0.898,-1.106 1.199,-1.801 0.703,-1.297 4.199,-5.894 6.602,-8.101 5.996,-6.094 20.597,-20.598 40.5,-39.399 0.097,3.195 0.195,12.199 0.195,19.602 0,10.398 -0.098,15.8 -0.5,20.898 -0.195,1.699 -0.398,4.199 -2.598,4.902 -1.101,0.403 -3.796,0.696 -5.898,0.899 -0.301,0.098 -0.496,0.195 -0.496,0.5 l -0.207,2.801 c 3.801,0 7.598,0 11.301,0 3.906,0 7.898,0.293 11.004,0.398 0.5,0 0.8,-0.203 0.898,-0.496 l 0.598,-2.109 c -3.594,-0.789 -5,-1.192 -6.602,-2.2 -1.894,-1.089 -2.5,-4.293 -3,-17.898 -0.195,-8.992 -0.301,-15.496 -0.301,-28.895 0,-6.398 0.301,-12.3042 0.301,-14.0035 -0.098,-0.5976 -0.703,-1.0937 -2,-1.6054 -0.5,-0.1914 -0.898,-0.1914 -1.398,0.5117 -5.899,8.6992 -15.196,18.0942 -25.703,28.4962 -8.301,8.301 -16.2,16.101 -24.395,24.297 -0.301,-5.598 -0.496,-12.696 -0.496,-18.305 0,-9.09 0,-22.5976 1.191,-26.3945 0.801,-2.2929 3.907,-3.0937 8.008,-3.8984 l 0.692,-2.3984 c 0.109,-0.3047 -0.497,-0.8008 -0.801,-0.8008 -4.199,0 -8.594,0.3984 -12.696,0.3984 -3.496,0 -6.503,-0.3008 -8.203,-0.3008 -0.195,1.0039 -0.496,2 -0.8,2.8008 6.3,1.6992 6.699,2.6953 7.207,5.9961 0.293,2.5 1.203,11.6996 1.203,25.8006 l 0,11.106 c 0,10.3 -0.207,12 -1.809,13.496 -1.601,1.695 -3.191,2.605 -7.402,3.101 -0.594,0.2 -0.789,0.305 -0.789,0.696 l 0,2.605" /><path
         id="path40"
         style="fill:#ffffff;fill-opacity:1;fill-rule:nonzero;stroke:none"
         d="m 980.531,148.645 c -9.004,-0.801 -9.902,-1.497 -10.203,-3.403 -0.39,-1.797 -0.695,-5.594 -0.695,-17.293 l 0,-20 c 0,-6.008 0.195,-11.0076 0.5,-14.4021 0.195,-2.5 0.996,-2.9024 2.5,-3.2031 0.996,-0.1954 4.297,-0.5 5.195,-0.6954 0.703,-0.207 1.102,-0.3007 1.102,-0.6054 0,-0.6914 -0.594,-2.5 -0.801,-2.793 -8.094,0.1953 -12.195,0.293 -15.899,0.1953 -4.402,0 -9.5,-0.3008 -9.792,-0.3984 -0.606,0 -1.106,0.3984 -1.204,0.8008 -0.3,0.9961 -0.507,1.9023 -0.398,2.5 7.098,0.1914 9.297,0.7031 9.695,3.3945 0.098,1.6055 0.598,5.1016 0.598,16.3008 l 0,23.906 c 0,13.098 -0.098,14.09 -3.496,14.793 -1.106,0.102 -2.598,0.305 -5.403,0.403 -0.398,0 -0.593,0.3 -0.593,0.605 0,0.293 0.097,0.691 0.496,1.492 0.402,0.703 0.5,0.903 0.801,1.008 0.8,0.098 1.398,0.098 2.597,0.098 1.203,0 4.602,-0.098 9.797,-0.098 5.203,0.098 12,0.195 13.008,0.195 1.297,0 1.394,-0.097 1.492,-0.398 l 0.703,-2.402" /><path
         id="path42"
         style="fill:#ffffff;fill-opacity:1;fill-rule:nonzero;stroke:none"
         d="m 1019.14,149.539 c -4.8,0 -9.8,-1.797 -14.91,-7.293 -5.289,-6.101 -6.792,-15.207 -6.792,-21.504 0,-9.297 3.302,-17.39 8.802,-22.9998 6.6,-6.6953 12.9,-9.1953 19.59,-9.1953 10.31,0 21.3,8.8945 21.3,27.5981 0,9.003 -2.39,17.898 -9.29,25.398 -4.01,4.309 -10.31,7.996 -18.61,7.996 l -0.09,0 z m 3.3,3.606 c 18.09,0 34.6,-14.395 34.6,-32.696 0,-12.402 -6,-21.5037 -11.3,-26.699 -6.91,-6.8086 -15.9,-9.1016 -21.3,-9.1016 -10.61,0 -22.1,4.793 -28.909,12.3907 -5.097,5.6089 -8.398,14.5039 -8.398,22.7069 0,8.399 3.398,17.293 11.203,24.297 6.294,5.703 15.304,9.102 24.004,9.102 l 0.1,0" /><path
         id="path44"
         style="fill:#ffffff;fill-opacity:1;fill-rule:nonzero;stroke:none"
         d="m 1064.64,151.746 c 4.6,-0.203 6.8,-0.398 13.9,-0.398 0.6,0 1.1,-0.098 1.3,-0.301 0.4,-0.305 0.9,-1.106 1.2,-1.801 0.7,-1.297 4.2,-5.894 6.6,-8.101 6,-6.094 20.6,-20.598 40.5,-39.399 0.1,3.195 0.19,12.199 0.19,19.602 0,10.398 -0.09,15.8 -0.49,20.898 -0.2,1.699 -0.4,4.199 -2.6,4.902 -1.1,0.403 -3.8,0.696 -5.9,0.899 -0.3,0.098 -0.5,0.195 -0.5,0.5 l -0.2,2.801 c 3.8,0 7.6,0 11.3,0 3.9,0 7.9,0.293 11,0.398 0.5,0 0.8,-0.203 0.9,-0.496 l 0.6,-2.109 c -3.6,-0.789 -5,-1.192 -6.61,-2.2 -1.89,-1.089 -2.5,-4.293 -2.99,-17.898 -0.2,-8.992 -0.31,-15.496 -0.31,-28.895 0,-6.398 0.31,-12.3042 0.31,-14.0035 -0.1,-0.5976 -0.71,-1.0937 -2.01,-1.6054 -0.49,-0.1914 -0.89,-0.1914 -1.39,0.5117 -5.9,8.6992 -15.2,18.0942 -25.7,28.4962 -8.31,8.301 -16.21,16.101 -24.4,24.297 -0.3,-5.598 -0.5,-12.696 -0.5,-18.305 0,-9.09 0,-22.5976 1.19,-26.3945 0.8,-2.2929 3.91,-3.0937 8.01,-3.8984 l 0.7,-2.3984 c 0.1,-0.3047 -0.5,-0.8008 -0.81,-0.8008 -4.19,0 -8.59,0.3984 -12.69,0.3984 -3.5,0 -6.5,-0.3008 -8.2,-0.3008 -0.2,1.0039 -0.5,2 -0.8,2.8008 6.29,1.6992 6.69,2.6953 7.2,5.9961 0.3,2.5 1.2,11.6996 1.2,25.8006 l 0,11.106 c 0,10.3 -0.2,12 -1.8,13.496 -1.6,1.695 -3.2,2.605 -7.41,3.101 -0.59,0.2 -0.79,0.305 -0.79,0.696 l 0,2.605" /><path
         id="path46"
         style="fill:#ffffff;fill-opacity:1;fill-rule:nonzero;stroke:none"
         d="m 10.3125,15.9688 c 1.7109,0 3.5352,0 5.6992,0.0546 0.2852,0 0.5117,0.2852 0.3399,0.625 -1.3086,3.8789 -2.2188,6.1563 -3.1328,8.6641 -1.25,-2.9687 -2.3946,-5.7617 -3.5313,-8.7813 -0.05859,-0.2812 0.28125,-0.5624 0.5664,-0.5624 l 0.0586,0 z m 4.4492,14.6445 c 0.625,0 0.8516,-0.1172 1.0235,-0.5742 2.3945,-6.3789 4.957,-13.1055 7.9218,-19.375 0.7422,-1.54301 1.3125,-2.2266 3.5938,-2.62894 0.2226,0 0.2226,-0.10547 0.2226,-0.625 -0.1132,-1.08204 -0.2812,-1.13282 -0.625,-1.13282 -2.6796,0.05078 -4.2695,0.10938 -5.5273,0.10938 -1.8242,0 -3.5938,-0.16406 -3.9883,-0.16406 -0.1172,0 -0.5703,1.30468 -0.5703,1.53125 1.5352,0.46093 2.2187,0.80078 2.2187,1.3164 0,0.625 -1.0234,3.24609 -1.3085,3.87109 -0.2266,0.457 -0.5118,0.7422 -1.0821,0.7422 -2.3398,0.0547 -5.0742,0.1172 -7.24216,0 -0.625,0 -0.96485,-0.3438 -1.25391,-0.793 C 7.75,12.0312 7.17578,10.0391 7.17578,9.52344 7.17578,9.01562 7.51953,8.55469 9.34375,8.15234 9.62891,8.09766 9.6875,8.03516 9.6875,7.75391 9.6875,7.58984 9.45703,6.73047 9.34375,6.38672 6.55078,6.44531 4.38672,6.44531 3.35938,6.44531 c -0.57032,0 -1.71094,-0.05859 -1.9375,-0.05859 -0.17188,0 -0.625005,0.80078 -0.625005,1.36719 0,0.23437 0.050781,0.39843 0.109375,0.39843 2.16797,0.51954 2.625,0.91797 3.93359,3.48046 2.10938,4.4414 4.90235,10.9453 7.07036,15.957 0.4531,0.9766 0.6836,1.7188 0.7968,2.168 0.1172,0.2305 0.2266,0.3399 0.4571,0.457 0.4531,0.2266 0.9687,0.3985 1.539,0.3985 l 0.0586,0" /><path
         id="path48"
         style="fill:#ffffff;fill-opacity:1;fill-rule:nonzero;stroke:none"
         d="m 34.707,7.92969 c 3.0235,0.44922 3.4766,0.79297 3.5938,1.53515 0.1133,0.63286 0.4531,3.08596 0.4531,7.69136 l 0,3.5352 c 0,2.8555 0,5.082 -0.1094,6.6133 0,0.3437 -0.289,0.5156 -0.8554,0.5156 -3.9922,0 -5.4727,-0.2305 -6.6133,-0.5742 -0.3985,-0.168 -0.8516,-1.5313 -1.2539,-3.1367 -0.1719,-0.3867 -0.3985,-0.5039 -0.6289,-0.3867 -0.9688,0.4492 -1.3672,0.8476 -1.3086,1.0742 0,0.2304 0.1718,0.6836 0.2812,1.0312 0.6836,1.5938 1.2578,3.4805 1.5977,4.8477 0.1719,0.789 0.2851,1.1328 0.4023,1.1328 l 0.5703,-0.0508 c 0.5118,-0.0586 0.7969,-0.1172 0.8555,-0.3437 0.0508,-0.918 0.2227,-1.3164 0.5117,-1.375 0.3946,-0.168 1.7071,-0.168 9.1758,-0.168 6.8984,0 8.4922,0 9.6328,0.2266 0.5117,0.1171 0.7422,0.8593 1.0235,1.4257 0.4609,0.0586 0.914,-0.0586 1.3671,-0.164 0.2305,-0.1211 0.3438,-0.293 0.1172,-0.8008 -0.6289,-1.8281 -0.6836,-2.9102 -0.914,-6.3867 0,-0.2266 -0.168,-0.3438 -0.4571,-0.3438 -0.9101,0 -1.4218,0.0586 -1.4218,0.1758 0,0.2813 0,2.2188 0,2.6758 0,0.2851 -0.2305,0.5156 -0.5704,0.625 -0.914,0.4609 -4.1601,0.5156 -5.414,0.5156 -1.0274,0 -1.3164,-0.2812 -1.3164,-0.5742 -0.1094,-0.9688 -0.1094,-2.8438 -0.1094,-6.8359 l 0,-3.6993 c 0,-4.5039 0.0586,-5.9882 0.2266,-6.84762 0.2265,-1.02344 0.9687,-1.58984 4.0508,-1.76562 0.2226,-0.10938 0.2226,-0.22657 0.1718,-0.50782 L 47.707,6.5625 C 47.5352,6.38672 47.5352,6.32812 47.3047,6.32812 c -0.3945,0 -3.9883,0.11719 -5.9258,0.11719 -2.5664,0 -5.7578,-0.11719 -6.1016,-0.11719 -0.3398,0 -0.4531,0.0586 -0.5117,0.23438 L 34.707,7.92969" /><path
         id="path50"
         style="fill:#ffffff;fill-opacity:1;fill-rule:nonzero;stroke:none"
         d="m 104.977,15.5078 c 0.226,0 1.253,-0.2812 1.539,-0.457 0.226,-0.2266 0.226,-0.3946 0.168,-0.625 -0.684,-2.336 -1.309,-4.78518 -1.707,-7.2383 -0.114,-0.56641 -0.512,-0.80078 -0.973,-0.85938 -0.566,-0.05078 -1.195,-0.05078 -3.59,-0.05078 -2.3359,0 -5.1288,0.16797 -14.7578,0.16797 -3.082,0 -5.875,-0.28515 -6.6718,-0.33984 -0.6289,-0.05859 -0.9727,-0.05859 -1.0821,-0.05859 -0.1718,0.23046 -0.5156,1.42578 -0.457,1.76562 2.793,0.33984 4.2149,0.85938 4.6719,2.5703 0.2305,0.7891 0.4023,2.8984 0.4023,8.7188 l 0,11.6796 c 0,4.8438 -0.1172,7.9297 -0.289,9.1797 -0.1719,1.3086 -0.625,1.543 -4.6719,1.4844 -0.1719,0 -0.3398,0.3399 -0.2305,0.6836 l 0.461,1.0234 c 0.0547,0.2852 0.1132,0.2852 0.2226,0.2852 1.7149,0 3.4766,-0.0586 5.3047,0 2.9063,0.0586 5.9258,0.2227 8.8906,0.3398 0.2305,-0.164 0.3985,-1.25 0.3985,-1.707 -3.4219,-0.3984 -4.7891,-0.6836 -5.0703,-3.0156 -0.1719,-1.6602 -0.3438,-5.4219 -0.2891,-10.0391 l 0.0586,-6.9531 c 0.0586,-9.0039 0.1133,-10.7734 0.1719,-11.7969 0.0586,-0.80076 0.3984,-1.24998 1.082,-1.42576 0.9687,-0.34375 2.7344,-0.46093 5.3047,-0.46093 3.7578,0 7.4067,0.11718 9.2847,3.02729 0.629,0.9649 1.086,2.0508 1.485,3.8204 0.058,0.2226 0.113,0.2812 0.285,0.2812 l 0.059,0" /><path
         id="path52"
         style="fill:#ffffff;fill-opacity:1;fill-rule:nonzero;stroke:none"
         d="m 123.328,5.64453 c -2.738,0 -5.586,0.74219 -7.351,2.39063 -2.227,2.06254 -2.68,5.02344 -2.739,7.53124 0,1.9922 0,3.875 0.117,6.7305 0.114,2.957 0.051,4.2656 -0.117,5.0078 -0.113,0.5156 -1.027,0.7422 -2.394,0.918 -0.114,0.0507 -0.114,0.1679 -0.114,1.25 0,0.3437 0.172,0.3984 0.684,0.3984 1.086,0 3.648,-0.0547 4.504,-0.0547 1.656,0 2.793,0.1719 5.867,0.1719 0.231,0 0.289,-0.1172 0.231,-0.6797 -0.059,-0.8633 -0.168,-0.918 -0.454,-0.9805 -2.167,-0.3398 -3.082,-0.6797 -3.304,-2.1054 -0.172,-1.3672 -0.403,-3.9883 -0.403,-10.6563 0,-2.8516 0.969,-4.5586 2.395,-5.70312 1.312,-1.02344 2.965,-1.36719 4.902,-1.36719 2.793,0 4.559,1.54301 5.356,2.57031 1.203,1.5313 1.543,4.3242 1.543,7.8008 0,3.0273 -0.059,6.1601 -0.34,7.9883 -0.172,0.8476 -0.742,0.9648 -3.652,1.1328 -0.172,0 -0.344,0.2851 -0.286,0.1758 0,0.5078 0.286,1.25 0.512,1.4843 0.117,0.168 0.289,0.2852 0.516,0.2852 0.679,0 3.535,-0.0625 4.617,-0.0625 1.137,0 3.074,0.1172 4.219,0.1172 0.172,0 0.222,-0.1172 0.222,-0.6328 -0.222,-0.7891 -0.339,-1.1328 -0.511,-1.1914 -0.512,-0.0586 -1.426,-0.3438 -1.766,-0.461 -0.227,-0.1133 -0.453,-0.3398 -0.566,-0.8476 -0.118,-0.6836 -0.403,-2.6836 -0.575,-8.2696 -0.168,-4.2226 -0.511,-6.7773 -2.336,-9.06246 -2.109,-2.51172 -5.812,-3.87891 -8.722,-3.87891 l -0.055,0" /><path
         id="path54"
         style="fill:#ffffff;fill-opacity:1;fill-rule:nonzero;stroke:none"
         d="m 153.141,6.62109 c 0,-0.11718 -0.114,-0.29297 -0.286,-0.29297 -1.765,0 -3.652,0.11719 -5.359,0.11719 -1.195,0 -2.734,-0.11719 -3.476,-0.11719 l -0.458,1.42579 c 0,0.05859 0.055,0.17578 0.286,0.23437 2.05,0.44922 2.39,0.96484 2.562,2.16012 0.172,0.9727 0.516,3.5352 0.516,7.0078 l 0,6.1641 c 0,2.4531 -0.114,3.2422 -0.457,3.7031 -0.34,0.6797 -0.793,0.9063 -3.074,1.25 -0.29,0.0547 -0.403,0.1719 -0.403,0.4571 l 0,1.0859 c 0,0.1719 0.059,0.2227 0.285,0.1719 2.11,-0.1172 2.961,-0.1719 6.442,-0.1172 0.57,0 0.91,-0.1133 1.027,-0.457 0.172,-0.5079 0.969,-1.4844 2.223,-2.8516 1.937,-2.1094 6.5,-6.9531 13.164,-13.3281 0.23,3.0742 0.289,10.1445 0.058,12.9883 -0.171,1.4257 -0.453,1.5429 -3.195,1.8828 -0.281,0 -0.394,0.1172 -0.394,0.3398 l -0.059,1.4258 c 1.539,0 3.023,0 4.449,0 1.367,0 3.477,0.168 4.903,0.1172 0.171,0 0.285,-0.0547 0.285,-0.1719 l 0.34,-1.3086 c -3.133,-1.0273 -3.418,-1.1445 -3.708,-5.4219 -0.167,-3.6992 -0.226,-6.8359 -0.226,-10.1953 0,-3.31248 0.113,-5.36326 0.113,-5.76169 0,-0.80079 -1.082,-1.25 -1.765,-1.48438 -0.286,-0.10937 -0.457,0 -0.684,0.40235 -1.145,1.54296 -1.996,2.625 -3.648,4.33592 -2.45,2.5078 -9.122,9.5664 -12.543,13.0469 -0.34,0.3398 -0.625,0.2305 -0.684,-0.1094 -0.055,-0.918 -0.172,-2.6289 -0.172,-5.0781 0,-3.3008 -0.055,-7.461 0.402,-8.71876 0.34,-1.14453 1.707,-1.3711 3.364,-1.53516 l 0.172,-1.36719" /><path
         id="path56"
         style="fill:#ffffff;fill-opacity:1;fill-rule:nonzero;stroke:none"
         d="m 199.023,18.5859 c 0,3.1914 -1.253,6.043 -3.589,7.6914 -2.11,1.543 -4.559,1.8868 -6.098,1.8868 -1.656,0 -2.738,-0.3438 -3.137,-0.5743 -0.285,-0.1093 -0.34,-0.3437 -0.398,-0.6875 -0.113,-1.0742 -0.231,-4.2148 -0.231,-7.5156 0,-5.0234 0.231,-8.7812 0.575,-10.20701 0.054,-0.28125 0.167,-0.40235 0.511,-0.56641 0.742,-0.28516 1.766,-0.33984 2.735,-0.33984 1.254,0 3.25,0.33984 5.242,1.42187 2.91,1.59379 4.39,5.12889 4.39,8.82809 l 0,0.0625 z m -20.976,10.9453 c 0,0.2266 0.117,0.3399 0.23,0.3399 1.707,0 3.364,0 5.754,0.0625 2.512,0.0547 3.821,0.1641 5.758,0.1641 2.395,0 7.242,-0.3399 10.602,-3.3008 2.679,-2.3946 3.996,-5.3594 3.996,-8.5547 0,-2.2734 -0.914,-5.3516 -3.535,-7.7539 -2.567,-2.27346 -4.391,-3.01564 -6.332,-3.58596 -1.536,-0.45703 -3.415,-0.57422 -5.754,-0.57422 -1.942,0 -5.528,0.11719 -6.383,0.11719 -1.824,0 -3.535,-0.05859 -3.824,-0.05859 -0.168,0 -0.34,0 -0.34,0.05859 l -0.172,1.65235 c 2.449,0.51562 2.68,0.97265 2.738,1.70703 0.227,2.16801 0.227,8.21481 0.227,12.71481 0,3.3594 -0.055,4.043 -0.114,4.4453 -0.113,0.4571 -0.625,0.8008 -2.453,1.0821 -0.168,0 -0.281,0.1758 -0.34,0.9179 l -0.058,0.5664" /><path
         id="path58"
         style="fill:#ffffff;fill-opacity:1;fill-rule:nonzero;stroke:none"
         d="m 267.355,41.7305 c -0.515,-0.1211 -1.539,-0.2852 -2.222,-0.4024 -0.231,-0.0586 -0.571,-0.3437 -0.742,-0.9687 -0.403,-1.3672 -0.575,-4.6758 -0.856,-14.6446 -0.172,-6.5546 -0.57,-10.0312 -3.191,-13.8515 -2.739,-3.99221 -8.039,-6.44142 -13.055,-6.44142 -5.301,0 -9.402,2.16796 -11.172,4.04296 -2.965,3.02346 -3.762,6.78516 -3.816,10.88676 -0.059,2.9101 -0.059,6.5039 0.109,11.1718 0.231,6.3282 0.231,7.9805 0,8.836 -0.281,1.0273 -1.137,1.3125 -3.758,1.5937 l 0.055,1.3203 c 0.059,0.3399 0.231,0.3868 1.023,0.3868 1.254,0 4.278,-0.2227 5.473,-0.2227 2.567,0.0586 4.848,0.2227 7.469,0.2227 0.289,0 0.34,0 0.34,-0.1641 0,-0.2227 -0.051,-1.4258 -0.168,-1.543 -3.703,-0.4492 -4.617,-0.7929 -5.016,-2.1562 -0.172,-0.8047 -0.402,-2.2305 -0.457,-5.8203 -0.059,-3.1954 -0.226,-8.7813 -0.226,-12.5977 0,-4.9648 1.539,-8.2031 3.816,-10.0312 2.051,-1.76958 5.133,-2.62504 8.437,-2.62504 5.016,0 7.184,1.88284 8.493,3.59374 2.222,2.9648 2.964,7.125 2.964,13.1641 0,6.0429 0.059,11.5703 -0.171,14.0234 -0.231,1.9414 -1.137,2 -5.469,2 -0.176,0 -0.457,0.3984 -0.403,0.6836 0.172,0.2852 0.516,0.7422 0.684,1.0859 0.172,0.1641 0.344,0.2227 1.313,0.2227 0.511,0 3.535,-0.0586 4.961,-0.0586 1.765,0 4.5,0.0586 5.925,0.1758 0.285,0 0.285,-0.1758 0.172,-0.3985 l -0.512,-1.4843" /><path
         id="path60"
         style="fill:#ffffff;fill-opacity:1;fill-rule:nonzero;stroke:none"
         d="m 281.379,6.62109 c 0,-0.11718 -0.113,-0.29297 -0.285,-0.29297 -1.77,0 -3.653,0.11719 -5.364,0.11719 -1.195,0 -2.734,-0.11719 -3.472,-0.11719 l -0.457,1.42579 c 0,0.05859 0.054,0.17578 0.285,0.23437 2.051,0.44922 2.391,0.96484 2.562,2.16012 0.172,0.9727 0.512,3.5352 0.512,7.0078 l 0,6.1641 c 0,2.4531 -0.109,3.2422 -0.453,3.7031 -0.344,0.6797 -0.797,0.9063 -3.074,1.25 -0.289,0.0547 -0.403,0.1719 -0.403,0.4571 l 0,1.0859 c 0,0.1719 0.059,0.2227 0.286,0.1719 2.105,-0.1172 2.961,-0.1719 6.437,-0.1172 0.57,0 0.914,-0.1133 1.031,-0.457 0.172,-0.5079 0.965,-1.4844 2.223,-2.8516 1.938,-2.1094 6.496,-6.9531 13.164,-13.3281 0.231,3.0742 0.285,10.1445 0.059,12.9883 -0.172,1.4257 -0.453,1.5429 -3.196,1.8828 -0.281,0 -0.394,0.1172 -0.394,0.3398 l -0.059,1.4258 c 1.539,0 3.024,0 4.449,0 1.368,0 3.477,0.168 4.899,0.1172 0.176,0 0.285,-0.0547 0.285,-0.1719 l 0.344,-1.3086 c -3.137,-1.0273 -3.422,-1.1445 -3.707,-5.4219 -0.172,-3.6992 -0.231,-6.8359 -0.231,-10.1953 0,-3.31248 0.118,-5.36326 0.118,-5.76169 0,-0.80079 -1.083,-1.25 -1.766,-1.48438 -0.285,-0.10937 -0.453,0 -0.684,0.40235 -1.144,1.54296 -2,2.625 -3.648,4.33592 -2.449,2.5078 -9.121,9.5664 -12.539,13.0469 -0.348,0.3398 -0.629,0.2305 -0.688,-0.1094 -0.054,-0.918 -0.172,-2.6289 -0.172,-5.0781 0,-3.3008 -0.054,-7.461 0.403,-8.71876 0.34,-1.14453 1.707,-1.3711 3.363,-1.53516 l 0.172,-1.36719" /><path
         id="path62"
         style="fill:#ffffff;fill-opacity:1;fill-rule:nonzero;stroke:none"
         d="m 307.598,8.37891 c 0.964,0 1.539,0.29297 1.765,1.14453 0.114,0.51566 0.285,1.76566 0.285,6.26566 l 0,5.7656 c 0,2.332 0,3.6406 -0.058,4.6172 -0.172,1.4765 -0.797,1.8164 -3.649,1.8164 -0.113,0 -0.281,0.1758 -0.281,0.2851 0,0.293 0.231,1.0352 0.34,1.2578 0.113,0.2852 0.23,0.3399 0.855,0.3399 3.305,0 4.278,-0.0547 5.704,-0.0547 1.992,0 4.445,0.0547 4.898,0.0547 0.34,0 0.688,-0.0547 0.742,-0.2813 l 0.117,-1.3671 c -3.48,-0.5196 -3.765,-0.8008 -3.878,-1.3204 -0.168,-0.6796 -0.29,-2.0468 -0.29,-5.6328 l 0,-5.2461 c 0,-2.8476 0.122,-5.0781 0.403,-6.66793 0.113,-0.68359 0.453,-0.80078 3.137,-1.08203 0.054,-0.17578 0.167,-1.26172 0.109,-1.60156 0,-0.22657 -0.109,-0.28516 -0.567,-0.28516 -2.679,0.05859 -4.386,0.05859 -6.097,0.05859 -2.738,-0.05859 -4.563,-0.11719 -4.961,-0.11719 -0.231,0 -0.402,0.17579 -0.453,0.51954 l -0.117,1.25 c 0,0.11718 0,0.23046 0.117,0.23046 l 1.879,0.05079" /><path
         id="path64"
         style="fill:#ffffff;fill-opacity:1;fill-rule:nonzero;stroke:none"
         d="m 323.5,29.6484 c 0.23,0.2852 0.285,0.3399 0.516,0.2852 1.824,-0.1172 4.445,-0.1758 5.242,-0.1172 1.367,0 2.68,0 3.93,-0.0586 0.171,0.0586 0.171,-0.1094 0.117,-0.5664 l -0.168,-1.0273 -1.367,-0.3985 c -0.461,-0.1172 -0.575,-0.3437 -0.344,-0.9687 1.308,-3.5352 4.386,-10.7227 5.808,-13.6211 0.289,-0.6875 0.516,-0.918 0.688,-0.8047 1.48,2.9101 5.242,12.375 5.926,15.0508 0.058,0.3437 -0.055,0.3437 -0.856,0.3984 l -1.597,0.1094 c -0.223,0 -0.282,0.2344 -0.223,0.4609 0.344,1.3672 0.453,1.4805 0.969,1.4805 0.679,0 2.91,-0.0547 4.277,-0.0547 1.309,0 2.562,0.0547 3.016,0.0547 0.402,0 0.515,-0.0547 0.628,-0.2227 0.059,-0.2929 0.114,-0.5156 0.172,-1.3203 0,-0.164 -0.058,-0.2226 -0.285,-0.2812 l -0.687,0 c -1.992,0 -2.391,-1.1914 -3.7,-3.7617 -0.972,-2.1055 -5.019,-11.1719 -6.785,-15.38676 -0.172,-0.40235 -1.312,-2.39453 -1.593,-2.96875 -0.172,-0.28516 -0.289,-0.39453 -0.801,-0.39453 -0.742,0 -1.028,0.10937 -1.141,0.34375 -0.054,0.16797 -0.457,0.90625 -1.363,3.24218 -3.195,8.15231 -5.817,13.85941 -6.902,16.13281 -1.024,2.0508 -1.594,2.6289 -3.649,2.9688 -0.34,0 -0.453,0.2226 -0.398,0.4492 l 0.57,0.9765" /><path
         id="path66"
         style="fill:#ffffff;fill-opacity:1;fill-rule:nonzero;stroke:none"
         d="m 357.988,22.7422 c 0,2.8555 -0.117,4.1601 -0.23,4.5039 -0.113,0.293 -0.281,0.4023 -2.961,0.8008 l 0.058,1.6484 c 0.051,0.1211 0.051,0.1758 0.223,0.1758 l 1.543,0 c 1.137,0 2.793,-0.0547 5.758,-0.0547 3.988,0 7.578,0.1719 10.941,0.1719 0.512,0 0.797,0 0.965,-0.2305 0.117,-0.1094 0.172,-0.2266 0.063,-0.9101 -0.231,-1.7071 -0.286,-3.6524 -0.231,-4.6172 0,-0.168 -0.172,-0.2266 -0.566,-0.2266 -1.145,0 -1.145,0.2266 -1.254,0.5078 -0.633,2.8516 -1.027,3.418 -5.305,3.418 -2.222,0 -3.363,-0.1094 -3.816,-0.1641 -0.457,-0.0625 -0.625,-0.3437 -0.625,-0.8008 0,-2.3945 0.051,-4.8476 0.051,-7.0703 0,-0.3437 0.289,-0.625 0.46,-0.625 l 2.504,0 c 1.715,0 2.454,-0.0586 3.821,0.0547 1.371,0.0625 1.652,0.461 2.105,2.336 0.063,0.1757 0.344,0.2343 1.375,0.2343 0.281,0 0.34,-0.1172 0.34,-0.2343 -0.117,-0.793 -0.285,-2.793 -0.285,-3.9258 0,-1.543 0.058,-2.168 0.168,-3.3711 0,-0.1055 -0.395,-0.1641 -1.649,-0.2813 -0.117,0.4024 -0.402,1.3086 -0.574,1.7071 -0.168,0.8047 -0.398,1.1445 -1.48,1.2617 -1.422,0.1054 -2.336,0.1054 -4.274,0.1054 -1.539,0 -1.937,-0.0546 -2.222,-0.164 -0.231,-0.1172 -0.34,-0.3984 -0.34,-5.3594 0,-1.3125 0.109,-2.05468 0.453,-2.61718 0.172,-0.34374 0.851,-0.6875 4.105,-0.6875 4.161,0 6.098,0.625 7.176,4.16018 0.063,0.1679 0.172,0.2265 0.461,0.2265 0.399,0 0.969,-0.1171 1.082,-0.1171 0.113,0 0.227,-0.0469 0.227,-0.3907 -0.172,-2.34372 -0.684,-4.55856 -1.082,-5.6445 -0.114,-0.17578 -0.399,-0.23438 -0.571,-0.23438 -1.48,0 -5.64,0.11719 -9.23,0.11719 -3.426,0 -6.559,-0.16797 -10.207,-0.16797 -0.11,0.10938 -0.11,1.25 -0.11,1.47657 0.051,0.17578 0.11,0.23437 0.282,0.23437 2.281,0.39063 2.562,0.50781 2.621,1.3086 0.058,0.46093 0.23,2.67582 0.23,5.75392 l 0,7.6914" /><path
         id="path68"
         style="fill:#ffffff;fill-opacity:1;fill-rule:nonzero;stroke:none"
         d="m 397.371,23.0859 c 0,3.5352 -2.273,5.4219 -5.242,5.4219 -0.684,0 -1.484,-0.1172 -2.051,-0.4023 -0.223,-0.2227 -0.344,-0.3399 -0.398,-0.6836 -0.227,-2.4492 -0.227,-4.6172 -0.227,-8.5547 0,-0.5664 0.164,-0.7305 1.652,-0.7305 1.2,0 2.965,0.1055 3.993,0.5625 1.308,0.6875 2.273,2.2774 2.273,4.336 l 0,0.0507 z M 393.047,7.64844 c -0.176,-1.20313 -0.235,-1.26172 -0.574,-1.26172 -0.688,0 -3.821,0.05859 -6.094,0.05859 -1.606,0 -3.027,-0.11719 -3.711,-0.11719 -0.402,0 -0.449,0.11719 -0.625,0.85938 -0.117,0.68359 0,0.74219 0.059,0.80078 2.109,0.33984 2.617,0.73438 2.734,1.99219 0.059,1.36723 0.176,3.13283 0.176,6.38673 l 0,4.3867 c 0,2.0508 0,4.3359 -0.117,5.5234 0,0.6875 -0.122,1.2618 -0.747,1.3711 -0.679,0.1719 -1.14,0.2813 -1.707,0.3985 -0.398,0.0586 -0.461,0.1758 -0.515,0.4609 l -0.051,1.3633 c 2.449,0.0625 4.211,0.0625 5.754,0.1172 1.48,0.1094 3.476,0.2851 5.074,0.2851 2.5,0 5.356,-0.457 7.063,-1.7656 1.425,-1.0273 2.39,-2.7344 2.39,-4.6797 0,-2.6758 -2.449,-4.5586 -3.523,-5.2422 -0.176,-0.1093 -0.403,-0.4023 -0.34,-0.5664 1.473,-3.7617 3.582,-6.9531 6.375,-9.12106 1.262,-0.96875 2.449,-1.54297 3.074,-1.76953 0.18,-0.0586 0.18,-0.22657 0.18,-0.90625 0,-0.57813 -0.063,-0.63672 -0.402,-0.63672 -3.477,0.11718 -6.329,1.08594 -8.497,2.96875 -1.933,1.59371 -3.242,3.87891 -4.503,6.15231 -0.625,1.1446 -1.305,1.6602 -3.297,1.6602 -1.711,0 -1.828,-0.3438 -1.828,-0.6836 0,-4.3945 0.058,-6.44532 0.46,-6.73048 0.399,-0.33984 2.215,-0.57421 3.192,-0.80078 l 0,-0.5039" /><path
         id="path70"
         style="fill:#ffffff;fill-opacity:1;fill-rule:nonzero;stroke:none"
         d="m 430.547,12.7734 c 0,-2.96871 -1.594,-4.78512 -3.652,-5.76168 -2.051,-0.90625 -4.954,-1.25 -6.434,-1.25 -1.652,0 -3.996,0.28516 -5.305,0.51562 -0.742,0.10938 -0.801,0.05078 -1.648,-0.45703 -0.18,-0.23437 -0.344,-0.28515 -0.863,-0.28515 -0.165,0 -0.504,0.28515 -0.504,0.57031 -0.176,2.84765 -0.403,4.55863 -0.746,7.46873 0.109,0.1641 0.8,0.3399 1.195,0.3399 0.293,0 0.457,-0.1133 0.574,-0.3985 1.024,-3.75779 4.504,-5.98826 7.637,-5.98826 3.015,0 5.359,1.48828 5.304,4.21876 0,2.5625 -3.371,3.9375 -6.105,4.8477 -2.559,0.9062 -5.012,2.1054 -6.152,3.4179 -0.801,0.918 -1.426,2.168 -1.426,4.0508 0,2.6758 1.594,4.3828 3.254,5.1836 1.707,0.8516 4.097,1.25 6.148,1.25 1.203,0 2.793,-0.1133 4.106,-0.3399 0.515,-0.1171 0.8,-0.1171 0.965,0.2266 0.058,0.3984 0.175,0.5156 0.339,0.457 1.426,-0.1171 1.489,-0.164 1.489,-0.2812 -0.285,-1.25 0.054,-4.6797 0.339,-6.5547 l -1.191,-0.625 c -0.176,-0.0586 -0.293,0 -0.398,0.3438 -0.461,1.4726 -1.086,2.6757 -1.993,3.4726 -0.976,0.9102 -2.57,1.5352 -4.562,1.5352 -2.566,0 -4.395,-1.6524 -4.395,-3.4766 0,-2.5664 2.454,-3.6992 5.586,-4.7266 2.793,-0.9179 5.188,-2.0039 6.27,-2.9687 1.648,-1.3672 2.168,-2.8516 2.168,-4.7266 l 0,-0.0586" /><path
         id="path72"
         style="fill:#ffffff;fill-opacity:1;fill-rule:nonzero;stroke:none"
         d="m 438.008,8.37891 c 0.976,0 1.543,0.29297 1.765,1.14453 0.122,0.51566 0.293,1.76566 0.293,6.26566 l 0,5.7656 c 0,2.332 0,3.6406 -0.054,4.6172 -0.176,1.4765 -0.801,1.8164 -3.657,1.8164 -0.105,0 -0.281,0.1758 -0.281,0.2851 0,0.293 0.227,1.0352 0.344,1.2578 0.113,0.2852 0.223,0.3399 0.855,0.3399 3.301,0 4.27,-0.0547 5.696,-0.0547 2.004,0 4.453,0.0547 4.902,0.0547 0.344,0 0.684,-0.0547 0.742,-0.2813 l 0.117,-1.3671 c -3.476,-0.5196 -3.757,-0.8008 -3.875,-1.3204 -0.175,-0.6796 -0.285,-2.0468 -0.285,-5.6328 l 0,-5.2461 c 0,-2.8476 0.11,-5.0781 0.403,-6.66793 0.105,-0.68359 0.449,-0.80078 3.132,-1.08203 0.047,-0.17578 0.165,-1.26172 0.11,-1.60156 0,-0.22657 -0.11,-0.28516 -0.57,-0.28516 -2.672,0.05859 -4.391,0.05859 -6.102,0.05859 -2.734,-0.05859 -4.563,-0.11719 -4.949,-0.11719 -0.239,0 -0.403,0.17579 -0.461,0.51954 l -0.117,1.25 c 0,0.11718 0,0.23046 0.117,0.23046 l 1.875,0.05079" /><path
         id="path74"
         style="fill:#ffffff;fill-opacity:1;fill-rule:nonzero;stroke:none"
         d="m 459.949,7.92969 c 3.031,0.44922 3.481,0.79297 3.598,1.53515 0.113,0.63286 0.457,3.08596 0.457,7.69136 l 0,3.5352 c 0,2.8555 0,5.082 -0.117,6.6133 0,0.3437 -0.282,0.5156 -0.86,0.5156 -3.984,0 -5.468,-0.2305 -6.609,-0.5742 -0.402,-0.168 -0.852,-1.5313 -1.25,-3.1367 -0.18,-0.3867 -0.402,-0.5039 -0.625,-0.3867 -0.981,0.4492 -1.367,0.8476 -1.32,1.0742 0,0.2304 0.175,0.6836 0.293,1.0312 0.683,1.5938 1.25,3.4805 1.589,4.8477 0.176,0.789 0.286,1.1328 0.403,1.1328 l 0.566,-0.0508 c 0.52,-0.0586 0.801,-0.1172 0.86,-0.3437 0.058,-0.918 0.222,-1.3164 0.507,-1.375 0.403,-0.168 1.707,-0.168 9.18,-0.168 6.895,0 8.496,0 9.629,0.2266 0.52,0.1171 0.742,0.8593 1.035,1.4257 0.449,0.0586 0.906,-0.0586 1.367,-0.164 0.227,-0.1211 0.34,-0.293 0.11,-0.8008 -0.625,-1.8281 -0.688,-2.9102 -0.91,-6.3867 0,-0.2266 -0.176,-0.3438 -0.457,-0.3438 -0.911,0 -1.426,0.0586 -1.426,0.1758 0,0.2813 0,2.2188 0,2.6758 0,0.2851 -0.227,0.5156 -0.571,0.625 -0.906,0.4609 -4.16,0.5156 -5.418,0.5156 -1.027,0 -1.308,-0.2812 -1.308,-0.5742 -0.11,-0.9688 -0.11,-2.8438 -0.11,-6.8359 l 0,-3.6993 c 0,-4.5039 0.051,-5.9882 0.227,-6.84762 0.227,-1.02344 0.969,-1.58984 4.043,-1.76562 0.234,-0.10938 0.234,-0.22657 0.176,-0.50782 L 472.949,6.5625 c -0.176,-0.17578 -0.176,-0.23438 -0.398,-0.23438 -0.403,0 -3.989,0.11719 -5.93,0.11719 -2.566,0 -5.754,-0.11719 -6.094,-0.11719 -0.339,0 -0.461,0.0586 -0.515,0.23438 l -0.063,1.36719" /><path
         id="path76"
         style="fill:#ffffff;fill-opacity:1;fill-rule:nonzero;stroke:none"
         d="m 492.781,16.4141 c 0,0.4023 -0.105,0.8047 -0.398,1.3203 -1.133,2.2773 -4.785,7.6953 -6.328,9.6875 -0.285,0.3984 -0.789,0.5078 -2.278,0.5078 -0.172,0 -0.281,0.0586 -0.398,0.1758 -0.059,0.1679 0,1.3672 0,1.5429 0.117,0.168 0.226,0.2227 0.344,0.2227 2.285,0 3.816,-0.1133 5.078,-0.0547 1.648,0 3.418,0.2227 4.605,0.2227 0.239,0 0.239,0 0.239,-0.2813 0,-0.8516 -0.122,-1.4297 -0.286,-1.6523 l -1.379,-0.2227 c -0.449,-0.1172 -0.562,-0.3437 -0.281,-0.9805 0.977,-1.707 3.535,-5.6914 4.336,-6.8359 0.281,-0.2226 0.567,-0.2226 0.742,0 0.789,1.0274 4.785,6.332 4.785,7.0117 0,0.3438 -0.222,0.625 -1.882,0.8516 l -0.168,1.3789 c 0,0.3867 0.058,0.4492 0.222,0.4492 0.344,0 2.739,-0.0625 4.161,0 1.371,0.0586 3.312,0.1133 3.878,0.1133 0.34,0 0.457,0 0.52,-0.1133 0.105,-0.168 0.105,-1.4297 0.105,-1.5937 -2.277,-0.2344 -3.015,-0.9688 -4.382,-2.5664 -1.996,-2.3946 -3.996,-4.6211 -5.93,-7.2383 -0.684,-0.9649 -0.742,-1.2032 -0.742,-2.793 0,-2.625 0.058,-3.9336 0.176,-5.1836 0.168,-1.14452 0.285,-1.54296 0.792,-1.71092 0.34,-0.11719 1.141,-0.29297 2.848,-0.51954 0.344,-0.05468 0.344,-0.22265 0.344,-0.5039 -0.109,-0.6836 -0.164,-1.20313 -0.281,-1.3711 -1.426,0.05078 -4.219,0.16797 -7.012,0.16797 -1.367,0 -4.223,-0.11719 -4.621,-0.11719 -0.344,0 -0.402,0 -0.449,0.17579 -0.118,0.16797 -0.176,0.85156 -0.176,1.53125 3.762,0.51953 3.816,0.57812 3.816,4.11324 l 0,4.2657" /><path
         id="path78"
         style="fill:#ffffff;fill-opacity:1;fill-rule:nonzero;stroke:none"
         d="m 511.199,14.3086 c 0.52,0 2.395,-1.3125 2.395,-3.3633 0,-4.16014 -3.699,-8.54296 -7.071,-10.546862 C 505.957,0.117188 505.559,0 505.215,0 c -0.281,0 -0.508,0.117188 -0.508,0.34375 0,0.339844 0.227,0.74219 0.625,1.19922 1.594,1.54297 3.477,3.81641 3.477,6.15234 0,1.08203 -0.684,2 -1.653,2.68749 -0.23,0.1055 -0.23,1.0234 0,1.1875 1.137,0.5195 2.563,1.7109 3.137,2.3438 0.344,0.2851 0.566,0.3945 0.852,0.3945 l 0.054,0" /><path
         id="path80"
         style="fill:#ffffff;fill-opacity:1;fill-rule:nonzero;stroke:none"
         d="m 539.07,8.49609 c 0.688,0 0.852,0.11719 0.969,1.14453 0.281,2.33208 0.508,8.25778 0.508,13.73828 l 0,5.6914 c 0,3.9375 0,7.2969 -0.164,9.6914 -0.18,2.2852 -0.403,2.625 -3.371,3.1914 -0.047,0.3438 -0.047,0.918 0.058,1.3672 0,0.1758 0.293,0.2344 0.633,0.2344 0.395,0 3.242,-0.1172 5.59,-0.1172 l 10.312,0 c 5.528,0 7.977,0.2227 8.661,0.4023 0.175,0.0586 0.461,-0.3437 0.461,-0.625 -0.059,-4.1132 -0.122,-6.3281 -0.122,-7.6953 0,-0.2851 -0.105,-0.4023 -0.789,-0.2851 -0.8,0.1094 -0.859,0.164 -0.918,0.3906 -0.625,3.3125 -1.086,4.6172 -2.96,5.1953 -1.485,0.5078 -2.793,0.625 -6.668,0.625 -3.028,0 -3.594,-0.0586 -4.793,-0.3398 -0.454,-0.1758 -0.625,-0.625 -0.793,-2.1133 -0.579,-5.418 -0.34,-12.1367 -0.34,-12.8789 -0.063,-0.3399 0.222,-0.5781 0.34,-0.5781 0.285,0 1.25,-0.0547 4.609,-0.0547 3.086,0 4.562,0.1172 6.277,0.2343 1.196,0.1133 1.368,0.2813 2.16,3.1329 0.176,0.1679 1.661,0.5078 1.829,0.3437 0,-1.6523 -0.121,-3.1367 -0.121,-4.7383 0,-1.5937 0.343,-4.1601 0.343,-5.1289 -0.285,-0.164 -1.593,-0.2226 -1.816,-0.1133 -0.344,1.375 -0.574,2.7422 -1.485,3.25 -1.14,0.5743 -2.335,0.8008 -6.789,0.8008 -3.296,0 -3.98,-0.0586 -4.949,-0.1172 -0.461,-0.0586 -0.574,-0.625 -0.574,-2.2773 l 0,-4.5 c 0,-2.7461 0.176,-4.4531 0.281,-5.4219 0.293,-2.16796 1.66,-2.5078 5.02,-2.61718 0.398,0 0.515,-0.33984 0.461,-0.51562 l -0.403,-1.53516 c -0.398,0 -0.859,0 -1.308,0 -2.344,0 -3.77,0.22657 -6.106,0.22657 -2.332,0 -5.015,-0.22657 -5.242,-0.22657 -0.281,0 -0.508,0.10938 -0.566,0.50782 -0.235,0.80468 -0.117,1.54296 0,1.71093 l 1.765,0" /><path
         id="path82"
         style="fill:#ffffff;fill-opacity:1;fill-rule:nonzero;stroke:none"
         d="m 572.355,15.9688 c 1.707,0 3.536,0 5.704,0.0546 0.281,0 0.503,0.2852 0.339,0.625 -1.32,3.8789 -2.226,6.1563 -3.132,8.6641 -1.262,-2.9687 -2.395,-5.7617 -3.536,-8.7813 -0.058,-0.2812 0.282,-0.5624 0.567,-0.5624 l 0.058,0 z m 4.442,14.6445 c 0.625,0 0.859,-0.1172 1.023,-0.5742 2.399,-6.3789 4.969,-13.1055 7.938,-19.375 0.742,-1.54301 1.308,-2.2266 3.582,-2.62894 0.234,0 0.234,-0.10547 0.234,-0.625 -0.117,-1.08204 -0.281,-1.13282 -0.625,-1.13282 -2.683,0.05078 -4.277,0.10938 -5.535,0.10938 -1.816,0 -3.59,-0.16406 -3.988,-0.16406 -0.117,0 -0.578,1.30468 -0.578,1.53125 1.547,0.46093 2.23,0.80078 2.23,1.3164 0,0.625 -1.027,3.24609 -1.312,3.87109 -0.235,0.457 -0.52,0.7422 -1.082,0.7422 -2.336,0.0547 -5.079,0.1172 -7.239,0 -0.633,0 -0.976,-0.3438 -1.257,-0.793 -0.403,-0.8594 -0.969,-2.8515 -0.969,-3.36716 0,-0.50782 0.343,-0.96875 2.168,-1.3711 0.285,-0.05468 0.343,-0.11718 0.343,-0.39843 0,-0.16407 -0.238,-1.02344 -0.343,-1.36719 -2.793,0.05859 -4.961,0.05859 -5.989,0.05859 -0.562,0 -1.707,-0.05859 -1.941,-0.05859 -0.164,0 -0.625,0.80078 -0.625,1.36719 0,0.23437 0.059,0.39843 0.117,0.39843 2.168,0.51954 2.617,0.91797 3.938,3.48046 2.105,4.4414 4.898,10.9453 7.058,15.957 0.457,0.9766 0.684,1.7188 0.801,2.168 0.117,0.2305 0.234,0.3399 0.457,0.457 0.461,0.2266 0.969,0.3985 1.535,0.3985 l 0.059,0" /><path
         id="path84"
         style="fill:#ffffff;fill-opacity:1;fill-rule:nonzero;stroke:none"
         d="m 592.984,18.0195 c 0,3.0157 1.036,6.0899 3.028,8.2032 1.875,2.0507 4.668,3.1328 7.41,3.8164 1.711,0.457 3.242,0.5742 4.844,0.5742 2.05,0 3.82,-0.3985 5.07,-0.8555 0.281,0 0.398,0.0586 0.625,0.2305 0.117,0.0508 0.293,0.1094 0.398,0.1679 0.118,0.0586 0.344,0.1172 1.086,-0.2226 0.282,-0.0625 0.34,-0.1758 0.34,-0.2852 -0.801,-1.6601 -1.023,-4.3359 -0.625,-6.3281 0.059,-0.2344 0,-0.3398 -0.515,-0.3398 -0.567,0 -1.192,0.1054 -1.25,0.2812 -0.344,1.711 -0.969,3.3594 -2.168,4.1602 -0.969,0.8008 -2.676,1.25 -4.387,1.25 -2.11,0 -4.278,-0.7891 -5.926,-2.7344 -1.602,-1.7656 -2.512,-4.5 -2.512,-8.0391 0,-4.2148 2.571,-10.20309 9.239,-10.20309 1.191,0 3.019,0.51953 4.668,1.94531 0.859,0.80078 1.769,1.92968 2.168,2.84768 0.117,0.1679 0.226,0.2265 0.91,-0.3399 0.34,-0.2343 0.398,-0.457 0.398,-0.5781 -0.281,-1.99218 -1.191,-4.04296 -1.648,-4.66796 -0.285,-0.51562 -0.52,-0.625 -0.91,-0.625 -1.141,-0.05468 -3.309,-0.63281 -5.985,-0.63281 -10.547,0 -14.258,6.50387 -14.258,12.31637 l 0,0.0586" /><path
         id="path86"
         style="fill:#ffffff;fill-opacity:1;fill-rule:nonzero;stroke:none"
         d="m 634.203,5.64453 c -2.734,0 -5.586,0.74219 -7.351,2.39063 -2.227,2.06254 -2.676,5.02344 -2.735,7.53124 0,1.9922 0,3.875 0.106,6.7305 0.117,2.957 0.058,4.2656 -0.106,5.0078 -0.117,0.5156 -1.027,0.7422 -2.394,0.918 -0.118,0.0507 -0.118,0.1679 -0.118,1.25 0,0.3437 0.168,0.3984 0.684,0.3984 1.086,0 3.645,-0.0547 4.504,-0.0547 1.648,0 2.793,0.1719 5.867,0.1719 0.235,0 0.285,-0.1172 0.235,-0.6797 -0.059,-0.8633 -0.176,-0.918 -0.457,-0.9805 -2.168,-0.3398 -3.079,-0.6797 -3.313,-2.1054 -0.164,-1.3672 -0.398,-3.9883 -0.398,-10.6563 0,-2.8516 0.976,-4.5586 2.402,-5.70312 1.309,-1.02344 2.957,-1.36719 4.902,-1.36719 2.793,0 4.559,1.54301 5.352,2.57031 1.199,1.5313 1.543,4.3242 1.543,7.8008 0,3.0273 -0.059,6.1601 -0.344,7.9883 -0.176,0.8476 -0.742,0.9648 -3.652,1.1328 -0.164,0 -0.34,0.2851 -0.282,0.1758 0,0.5078 0.282,1.25 0.516,1.4843 0.109,0.168 0.285,0.2852 0.508,0.2852 0.683,0 3.535,-0.0625 4.621,-0.0625 1.141,0 3.074,0.1172 4.219,0.1172 0.164,0 0.222,-0.1172 0.222,-0.6328 -0.222,-0.7891 -0.339,-1.1328 -0.507,-1.1914 -0.516,-0.0586 -1.426,-0.3438 -1.766,-0.461 -0.234,-0.1133 -0.461,-0.3398 -0.578,-0.8476 -0.106,-0.6836 -0.399,-2.6836 -0.567,-8.2696 -0.175,-4.2226 -0.515,-6.7773 -2.332,-9.06246 -2.109,-2.51172 -5.82,-3.87891 -8.722,-3.87891 l -0.059,0" /><path
         id="path88"
         style="fill:#ffffff;fill-opacity:1;fill-rule:nonzero;stroke:none"
         d="m 657.738,21.4922 c 0,2.6172 0,4.2226 -0.117,5.0703 -0.164,1.0273 -0.508,1.543 -3.594,1.543 -0.164,0 -0.39,0.2226 -0.339,0.4023 l 0.457,1.3633 c 1.543,0 3.078,0 4.562,0 1.543,0 5.301,0.168 6.043,0.168 0.344,0 0.461,0 0.625,-0.168 0.059,-0.0547 0.117,-0.5625 0.176,-1.4805 -2.168,-0.2265 -3.028,-0.5078 -3.192,-1.7695 -0.117,-1.25 -0.117,-3.5352 -0.117,-5.9844 l 0,-5.8125 c 0,-5.30076 0.176,-5.92576 0.86,-6.21092 0.39,-0.23437 1.816,-0.28516 3.183,-0.28516 3.192,0.05079 5.078,0.44922 6.328,4.38668 0.117,0.2813 0.176,0.3438 0.282,0.3438 0.351,0 0.976,-0.2266 1.203,-0.3438 0.117,-0.0586 0.222,-0.2812 0.175,-0.5078 -0.519,-2.1093 -0.918,-3.71091 -1.261,-5.24216 -0.059,-0.29296 -0.223,-0.51953 -0.567,-0.57812 -0.398,-0.0586 -0.8,-0.0586 -2.285,-0.0586 -1.472,0 -3.242,0.11719 -9.969,0.11719 -2.226,0 -4.16,-0.33984 -5.304,-0.39843 -0.164,0 -0.34,0 -0.399,0.17578 -0.109,0.33984 -0.402,1.30468 -0.285,1.42578 2.227,0.5039 2.969,0.90625 3.313,2.10937 0.164,0.56249 0.222,1.64839 0.222,4.72659 l 0,7.0078" /><path
         id="path90"
         style="fill:#ffffff;fill-opacity:1;fill-rule:nonzero;stroke:none"
         d="m 681.734,7.92969 c 3.028,0.44922 3.477,0.79297 3.594,1.53515 0.117,0.63286 0.457,3.08596 0.457,7.69136 l 0,3.5352 c 0,2.8555 0,5.082 -0.117,6.6133 0,0.3437 -0.281,0.5156 -0.859,0.5156 -3.985,0 -5.469,-0.2305 -6.61,-0.5742 -0.402,-0.168 -0.851,-1.5313 -1.25,-3.1367 -0.176,-0.3867 -0.402,-0.5039 -0.625,-0.3867 -0.976,0.4492 -1.367,0.8476 -1.32,1.0742 0,0.2304 0.176,0.6836 0.293,1.0312 0.683,1.5938 1.25,3.4805 1.594,4.8477 0.175,0.789 0.281,1.1328 0.398,1.1328 l 0.566,-0.0508 c 0.52,-0.0586 0.801,-0.1172 0.86,-0.3437 0.058,-0.918 0.226,-1.3164 0.508,-1.375 0.402,-0.168 1.711,-0.168 9.179,-0.168 6.895,0 8.496,0 9.629,0.2266 0.52,0.1171 0.742,0.8593 1.035,1.4257 0.45,0.0586 0.911,-0.0586 1.368,-0.164 0.226,-0.1211 0.343,-0.293 0.109,-0.8008 -0.625,-1.8281 -0.684,-2.9102 -0.91,-6.3867 0,-0.2266 -0.176,-0.3438 -0.457,-0.3438 -0.91,0 -1.426,0.0586 -1.426,0.1758 0,0.2813 0,2.2188 0,2.6758 0,0.2851 -0.227,0.5156 -0.566,0.625 -0.911,0.4609 -4.161,0.5156 -5.422,0.5156 -1.024,0 -1.309,-0.2812 -1.309,-0.5742 -0.105,-0.9688 -0.105,-2.8438 -0.105,-6.8359 l 0,-3.6993 c 0,-4.5039 0.047,-5.9882 0.222,-6.84762 0.227,-1.02344 0.969,-1.58984 4.043,-1.76562 0.235,-0.10938 0.235,-0.22657 0.176,-0.50782 L 694.73,6.5625 c -0.175,-0.17578 -0.175,-0.23438 -0.398,-0.23438 -0.402,0 -3.984,0.11719 -5.93,0.11719 -2.566,0 -5.75,-0.11719 -6.093,-0.11719 -0.34,0 -0.457,0.0586 -0.516,0.23438 l -0.059,1.36719" /><path
         id="path92"
         style="fill:#ffffff;fill-opacity:1;fill-rule:nonzero;stroke:none"
         d="m 714.566,16.4141 c 0,0.4023 -0.109,0.8047 -0.402,1.3203 -1.133,2.2773 -4.785,7.6953 -6.328,9.6875 -0.281,0.3984 -0.789,0.5078 -2.274,0.5078 -0.175,0 -0.285,0.0586 -0.402,0.1758 -0.058,0.1679 0,1.3672 0,1.5429 0.117,0.168 0.227,0.2227 0.344,0.2227 2.285,0 3.816,-0.1133 5.078,-0.0547 1.648,0 3.418,0.2227 4.609,0.2227 0.235,0 0.235,0 0.235,-0.2813 0,-0.8516 -0.117,-1.4297 -0.285,-1.6523 l -1.375,-0.2227 c -0.45,-0.1172 -0.567,-0.3437 -0.286,-0.9805 0.977,-1.707 3.536,-5.6914 4.336,-6.8359 0.286,-0.2226 0.567,-0.2226 0.743,0 0.793,1.0274 4.785,6.332 4.785,7.0117 0,0.3438 -0.223,0.625 -1.883,0.8516 l -0.168,1.3789 c 0,0.3867 0.059,0.4492 0.227,0.4492 0.339,0 2.734,-0.0625 4.16,0 1.367,0.0586 3.308,0.1133 3.875,0.1133 0.343,0 0.461,0 0.519,-0.1133 0.106,-0.168 0.106,-1.4297 0.106,-1.5937 -2.274,-0.2344 -3.016,-0.9688 -4.383,-2.5664 -1.992,-2.3946 -3.996,-4.6211 -5.93,-7.2383 -0.683,-0.9649 -0.742,-1.2032 -0.742,-2.793 0,-2.625 0.059,-3.9336 0.176,-5.1836 0.168,-1.14452 0.285,-1.54296 0.793,-1.71092 0.34,-0.11719 1.14,-0.29297 2.851,-0.51954 0.34,-0.05468 0.34,-0.22265 0.34,-0.5039 -0.105,-0.6836 -0.164,-1.20313 -0.281,-1.3711 -1.426,0.05078 -4.219,0.16797 -7.012,0.16797 -1.367,0 -4.219,-0.11719 -4.621,-0.11719 -0.34,0 -0.398,0 -0.449,0.17579 -0.117,0.16797 -0.176,0.85156 -0.176,1.53125 3.762,0.51953 3.82,0.57812 3.82,4.11324 l 0,4.2657" /><path
         id="path94"
         style="fill:#ffffff;fill-opacity:1;fill-rule:nonzero;stroke:none"
         d="m 765.395,28.6211 c -1.817,0 -3.477,-0.918 -4.668,-2.3438 -1.649,-1.9921 -2.168,-4.7226 -2.168,-7.4609 0,-3.3672 1.144,-6.2187 2.91,-8.0937 1.816,-2.00004 4.101,-2.96879 6.093,-2.96879 3.028,0 6.555,3.25389 6.555,9.51949 0,3.2539 -0.566,6.211 -2.961,8.7227 -1.308,1.4258 -3.133,2.625 -5.703,2.625 l -0.058,0 z m 1.144,1.9922 c 7.012,0 12.879,-5.418 12.879,-12.0274 0,-4.5625 -2.168,-7.8047 -4.559,-9.86324 -2.394,-2.16016 -5.929,-3.07813 -7.863,-3.07813 -4.16,0 -8.094,1.54297 -10.711,4.33594 -1.887,2.05073 -3.086,5.24613 -3.086,8.20313 0,3.3086 1.199,6.4453 4.051,8.957 2.395,2.2149 5.812,3.4727 9.23,3.4727 l 0.059,0" /><path
         id="path96"
         style="fill:#ffffff;fill-opacity:1;fill-rule:nonzero;stroke:none"
         d="m 795.277,6.32812 c -1.765,0 -3.132,0.11719 -5.066,0.11719 -1.426,0 -4.336,-0.11719 -4.621,-0.11719 -0.176,0 -0.34,0.0586 -0.399,0.29297 -0.058,0.10938 -0.117,0.34375 -0.117,1.3086 0,0.22265 0.176,0.34375 0.059,0.34375 l 0.742,0.05468 c 1.367,0 1.543,0.10938 1.648,0.91016 0.176,1.25002 0.344,4.50002 0.344,7.91792 0,2.9727 0.059,5.9297 -0.109,9.0157 -0.117,1.4179 -0.293,1.5312 -2.742,2.1015 -0.11,0.3985 -0.051,1.1993 0,1.4844 0,0.1133 0.058,0.1758 0.457,0.1758 0.742,0 3.312,-0.0625 5.019,-0.0625 l 7.297,0 c 2.852,0 4.559,0.0625 5.586,0.168 0.105,0 0.398,-0.2227 0.398,-0.4493 -0.058,-2.5664 -0.117,-5.1367 -0.117,-5.2421 0,-0.1758 -0.058,-0.2852 -0.457,-0.3438 -0.793,0 -1.133,0.1055 -1.191,0.2813 -0.625,2.9609 -1.262,3.7031 -5.93,3.7031 -1.316,0 -2.285,-0.0586 -2.793,-0.1055 -0.515,-0.1172 -0.574,-0.5195 -0.683,-1.1445 -0.293,-2.2266 -0.176,-5.8086 -0.176,-7.4141 0,-0.457 0.117,-0.5625 0.234,-0.5625 1.934,0 5.188,0 6.613,0.1055 0.789,0.1172 1.024,0.457 1.368,1.7695 0.105,0.3985 1.023,0.4571 1.472,0.4571 0.176,0 0.293,-0.0586 0.293,-0.2266 0,-1.082 -0.117,-2.0508 -0.117,-3.0234 0,-0.9688 0.227,-2.7344 0.227,-3.1876 0,-0.3476 -0.059,-0.457 -0.168,-0.5156 -0.34,-0.0586 -1.141,-0.2265 -1.485,-0.2265 -0.281,1.0859 -0.398,1.4297 -0.625,1.7695 -0.34,0.8476 -1.258,1.0273 -4.218,1.0273 -1.708,0 -2.735,-0.0625 -3.192,-0.1171 -0.285,-0.0626 -0.519,-0.3438 -0.519,-0.9688 l 0,-3.0742 c 0,-4.17189 0.293,-4.27736 4.394,-4.45314 L 796.305,6.50391 C 796.246,6.32812 796.188,6.32812 796.02,6.32812 l -0.743,0" /><path
         id="path98"
         style="fill:#ffffff;fill-opacity:1;fill-rule:nonzero;stroke:none"
         d="m 842.074,26.2227 c 2.559,0 4.504,0.0546 5.93,0.1757 3.418,0.2227 3.699,0.4571 4.441,3.8164 0.227,0.168 1.543,0.2813 1.828,0.2266 -0.117,-1.6523 -0.461,-4.2695 -0.461,-6.0391 0.059,-1.9414 0.227,-3.5351 0.403,-5.1914 -0.461,-0.1093 -0.918,-0.1679 -1.309,-0.1679 -0.293,-0.0586 -0.402,0.1172 -0.519,0.3437 -0.223,0.625 -0.508,1.543 -0.684,2.2227 -0.34,1.5351 -1.023,2.0508 -3.301,2.2187 -1.257,0.1172 -3.144,0.1172 -6.043,0.1172 -2.851,0 -3.418,-0.0586 -3.761,-0.1172 -0.235,-0.0586 -0.399,-0.1054 -0.575,-0.3437 -0.168,-0.3399 -0.507,-2.3321 -0.507,-7.0078 0,-4.1602 0,-5.6954 0.566,-6.61332 0.801,-1.08594 2.793,-1.36719 7.469,-1.36719 6.672,0 9.855,0.625 11.621,6.66801 0.234,0.0625 0.801,0 1.367,-0.0547 0.176,-0.1094 0.176,-0.168 0.176,-0.4532 -0.117,-2.625 -1.024,-6.27729 -1.766,-7.92573 -0.285,-0.34375 -0.461,-0.45313 -0.742,-0.45313 -0.402,0 -0.801,0 -2.676,0.05078 -1.711,0.0586 -5.703,0.11719 -10.429,0.11719 -4.563,0 -9.063,-0.22265 -13.625,-0.39843 -0.118,0.05859 -0.176,1.25781 -0.118,1.70703 0,0.11718 0.176,0.23437 0.227,0.23437 2.625,0.44922 2.852,0.85156 2.91,1.70703 0.117,0.85159 0.399,4.50389 0.399,10.31639 l 0,9.8594 c 0,7.5781 -0.34,10.0898 -0.399,10.4336 -0.058,0.3398 -0.168,0.625 -0.742,0.7422 -0.566,0.2226 -1.652,0.3984 -3.02,0.7383 -0.058,0.0625 -0.058,0.0625 -0.058,0.2265 l 0.117,1.3086 c 0,0.2344 0,0.293 0.285,0.293 l 1.992,0 c 1.766,0 3.934,-0.1172 7.41,-0.1758 l 5.528,0 c 3.476,0 7.637,0.2852 10.488,0.3398 0.742,0 1.086,-0.1171 1.367,-0.2812 0.52,-0.3438 0.52,-0.3438 0.285,-1.3672 -0.449,-2.5117 -0.507,-5.8203 -0.507,-7.293 -1.485,0 -1.711,0.1641 -1.77,0.5079 -0.801,4.1093 -1.199,6.1601 -5.644,6.1601 l -3.934,0 c -3.359,0 -5.246,-0.1172 -5.871,-0.293 -0.742,-0.2265 -0.848,-0.789 -0.848,-2.1093 0,-3.9844 0.047,-7.9805 0.106,-11.961 0,-0.5195 0.343,-0.9179 0.742,-0.9179 l 3.652,0" /><path
         id="path100"
         style="fill:#ffffff;fill-opacity:1;fill-rule:nonzero;stroke:none"
         d="m 873.246,6.62109 c 0,-0.11718 -0.117,-0.29297 -0.281,-0.29297 -1.77,0 -3.653,0.11719 -5.363,0.11719 -1.192,0 -2.735,-0.11719 -3.477,-0.11719 l -0.457,1.42579 c 0,0.05859 0.059,0.17578 0.293,0.23437 2.051,0.44922 2.391,0.96484 2.559,2.16012 0.175,0.9727 0.515,3.5352 0.515,7.0078 l 0,6.1641 c 0,2.4531 -0.117,3.2422 -0.457,3.7031 -0.344,0.6797 -0.801,0.9063 -3.078,1.25 -0.281,0.0547 -0.398,0.1719 -0.398,0.4571 l 0,1.0859 c 0,0.1719 0.058,0.2227 0.281,0.1719 2.109,-0.1172 2.969,-0.1719 6.445,-0.1172 0.567,0 0.91,-0.1133 1.027,-0.457 0.165,-0.5079 0.965,-1.4844 2.215,-2.8516 1.946,-2.1094 6.504,-6.9531 13.176,-13.3281 0.223,3.0742 0.281,10.1445 0.059,12.9883 -0.176,1.4257 -0.461,1.5429 -3.196,1.8828 -0.281,0 -0.398,0.1172 -0.398,0.3398 l -0.059,1.4258 c 1.543,0 3.016,0 4.442,0 1.367,0 3.476,0.168 4.902,0.1172 0.176,0 0.285,-0.0547 0.285,-0.1719 l 0.34,-1.3086 c -3.133,-1.0273 -3.418,-1.1445 -3.699,-5.4219 -0.168,-3.6992 -0.227,-6.8359 -0.227,-10.1953 0,-3.31248 0.11,-5.36326 0.11,-5.76169 0,-0.80079 -1.086,-1.25 -1.77,-1.48438 -0.281,-0.10937 -0.449,0 -0.683,0.40235 -1.133,1.54296 -1.993,2.625 -3.641,4.33592 -2.453,2.5078 -9.121,9.5664 -12.539,13.0469 -0.344,0.3398 -0.625,0.2305 -0.684,-0.1094 -0.058,-0.918 -0.176,-2.6289 -0.176,-5.0781 0,-3.3008 -0.058,-7.461 0.399,-8.71876 0.344,-1.14453 1.711,-1.3711 3.359,-1.53516 l 0.176,-1.36719" /><path
         id="path102"
         style="fill:#ffffff;fill-opacity:1;fill-rule:nonzero;stroke:none"
         d="m 922.379,16.3672 c -1.086,-0.1758 -1.262,-0.3984 -1.262,-0.5781 -0.34,-3.4727 -0.34,-7.29301 -0.34,-8.14066 0,-0.63672 -0.168,-0.91797 -0.566,-1.20313 -0.285,-0.28515 -0.91,-0.28515 -1.77,-0.28515 -1.765,-0.05469 -3.64,-0.39844 -6.386,-0.39844 -4.903,0 -8.602,1.20312 -11.219,3.70312 -2.063,1.94136 -3.43,4.96096 -3.43,8.77736 0,3.5937 1.426,6.668 3.594,8.6133 3.078,2.7343 7.98,3.7578 11.398,3.7578 1.426,0 3.368,-0.2305 4.278,-0.4571 0.859,-0.2226 1.082,-0.1171 1.426,0.5665 0,0.1171 0.058,0.1171 0.742,0 l 0.566,-0.1641 c 0.235,-0.0625 0.34,-0.2266 0.34,-0.6875 0.059,-1.8242 0.461,-4.4414 0.637,-5.4688 0.105,-0.3984 0.105,-0.6328 -0.059,-0.7968 -0.117,-0.0586 -0.859,-0.2852 -1.32,-0.2852 l -0.106,0 c -0.117,0 -0.234,0.2266 -0.343,0.4492 -1.426,2.9688 -3.934,4.8516 -7.247,4.8516 -1.933,0 -3.925,-0.6914 -5.183,-1.7656 -1.77,-1.4258 -3.418,-4.3946 -3.418,-8.4961 0,-2.4532 0.625,-5.7032 3.191,-7.9766 2.227,-1.88671 5.02,-2.73436 6.555,-2.73436 1.141,0 2.344,0.44922 2.852,0.84765 0.625,0.45703 1.082,1.88671 1.082,4.05471 0,2.5586 -0.118,3.3554 -1.485,3.6406 -0.906,0.1758 -2.109,0.2852 -2.508,0.4024 -0.226,0.0546 -0.285,0.2226 -0.683,1.4804 0,0.2852 0.058,0.4024 0.293,0.4024 2.734,0 4.89,-0.1758 6.777,-0.1758 1.766,0 2.91,0.1758 3.309,0.1758 0.285,0 0.344,-0.1172 0.344,-0.3399 l -0.059,-1.7695" /><path
         id="path104"
         style="fill:#ffffff;fill-opacity:1;fill-rule:nonzero;stroke:none"
         d="m 929.84,8.37891 c 0.976,0 1.543,0.29297 1.765,1.14453 0.118,0.51566 0.293,1.76566 0.293,6.26566 l 0,5.7656 c 0,2.332 0,3.6406 -0.058,4.6172 -0.176,1.4765 -0.801,1.8164 -3.652,1.8164 -0.118,0 -0.282,0.1758 -0.282,0.2851 0,0.293 0.223,1.0352 0.34,1.2578 0.117,0.2852 0.227,0.3399 0.859,0.3399 3.301,0 4.27,-0.0547 5.696,-0.0547 2,0 4.453,0.0547 4.902,0.0547 0.34,0 0.684,-0.0547 0.742,-0.2813 l 0.117,-1.3671 c -3.476,-0.5196 -3.761,-0.8008 -3.878,-1.3204 -0.176,-0.6796 -0.282,-2.0468 -0.282,-5.6328 l 0,-5.2461 c 0,-2.8476 0.106,-5.0781 0.399,-6.66793 0.109,-0.68359 0.449,-0.80078 3.137,-1.08203 0.046,-0.17578 0.164,-1.26172 0.105,-1.60156 0,-0.22657 -0.105,-0.28516 -0.566,-0.28516 -2.676,0.05859 -4.395,0.05859 -6.102,0.05859 -2.734,-0.05859 -4.563,-0.11719 -4.953,-0.11719 -0.234,0 -0.399,0.17579 -0.457,0.51954 l -0.117,1.25 c 0,0.11718 0,0.23046 0.117,0.23046 l 1.875,0.05079" /><path
         id="path106"
         style="fill:#ffffff;fill-opacity:1;fill-rule:nonzero;stroke:none"
         d="m 956.059,6.62109 c 0,-0.11718 -0.118,-0.29297 -0.282,-0.29297 -1.769,0 -3.652,0.11719 -5.363,0.11719 -1.191,0 -2.734,-0.11719 -3.476,-0.11719 l -0.458,1.42579 c 0,0.05859 0.059,0.17578 0.293,0.23437 2.051,0.44922 2.391,0.96484 2.559,2.16012 0.176,0.9727 0.516,3.5352 0.516,7.0078 l 0,6.1641 c 0,2.4531 -0.118,3.2422 -0.457,3.7031 -0.344,0.6797 -0.801,0.9063 -3.079,1.25 -0.281,0.0547 -0.398,0.1719 -0.398,0.4571 l 0,1.0859 c 0,0.1719 0.059,0.2227 0.281,0.1719 2.11,-0.1172 2.969,-0.1719 6.446,-0.1172 0.566,0 0.91,-0.1133 1.027,-0.457 0.164,-0.5079 0.965,-1.4844 2.215,-2.8516 1.945,-2.1094 6.504,-6.9531 13.176,-13.3281 0.222,3.0742 0.281,10.1445 0.058,12.9883 -0.176,1.4257 -0.461,1.5429 -3.195,1.8828 -0.281,0 -0.399,0.1172 -0.399,0.3398 l -0.058,1.4258 c 1.543,0 3.015,0 4.441,0 1.367,0 3.477,0.168 4.903,0.1172 0.175,0 0.285,-0.0547 0.285,-0.1719 l 0.34,-1.3086 c -3.133,-1.0273 -3.418,-1.1445 -3.7,-5.4219 -0.168,-3.6992 -0.226,-6.8359 -0.226,-10.1953 0,-3.31248 0.109,-5.36326 0.109,-5.76169 0,-0.80079 -1.086,-1.25 -1.769,-1.48438 -0.282,-0.10937 -0.45,0 -0.684,0.40235 -1.133,1.54296 -1.992,2.625 -3.641,4.33592 -2.453,2.5078 -9.121,9.5664 -12.539,13.0469 -0.343,0.3398 -0.625,0.2305 -0.683,-0.1094 -0.059,-0.918 -0.176,-2.6289 -0.176,-5.0781 0,-3.3008 -0.059,-7.461 0.398,-8.71876 0.344,-1.14453 1.711,-1.3711 3.36,-1.53516 l 0.176,-1.36719" /><path
         id="path108"
         style="fill:#ffffff;fill-opacity:1;fill-rule:nonzero;stroke:none"
         d="m 983.871,22.7422 c 0,2.8555 -0.117,4.1601 -0.223,4.5039 -0.117,0.293 -0.293,0.4023 -2.968,0.8008 l 0.058,1.6484 c 0.059,0.1211 0.059,0.1758 0.223,0.1758 l 1.543,0 c 1.144,0 2.793,-0.0547 5.754,-0.0547 3.992,0 7.586,0.1719 10.945,0.1719 0.508,0 0.797,0 0.967,-0.2305 0.12,-0.1094 0.18,-0.2266 0.06,-0.9101 -0.23,-1.7071 -0.285,-3.6524 -0.23,-4.6172 0,-0.168 -0.172,-0.2266 -0.57,-0.2266 -1.133,0 -1.133,0.2266 -1.25,0.5078 -0.625,2.8516 -1.028,3.418 -5.305,3.418 -2.227,0 -3.359,-0.1094 -3.816,-0.1641 -0.461,-0.0625 -0.625,-0.3437 -0.625,-0.8008 0,-2.3945 0.058,-4.8476 0.058,-7.0703 0,-0.3437 0.281,-0.625 0.449,-0.625 l 2.508,0 c 1.711,0 2.453,-0.0586 3.821,0.0547 1.367,0.0625 1.648,0.461 2.109,2.336 0.059,0.1757 0.34,0.2343 1.367,0.2343 0.281,0 0.34,-0.1172 0.34,-0.2343 -0.106,-0.793 -0.281,-2.793 -0.281,-3.9258 0,-1.543 0.058,-2.168 0.175,-3.3711 0,-0.1055 -0.402,-0.1641 -1.66,-0.2813 -0.109,0.4024 -0.402,1.3086 -0.566,1.7071 -0.176,0.8047 -0.402,1.1445 -1.484,1.2617 -1.426,0.1054 -2.336,0.1054 -4.278,0.1054 -1.535,0 -1.933,-0.0546 -2.219,-0.164 -0.234,-0.1172 -0.339,-0.3984 -0.339,-5.3594 0,-1.3125 0.105,-2.05468 0.457,-2.61718 0.168,-0.34374 0.851,-0.6875 4.101,-0.6875 4.16,0 6.094,0.625 7.178,4.16018 0.06,0.1679 0.18,0.2265 0.46,0.2265 0.4,0 0.97,-0.1171 1.08,-0.1171 0.11,0 0.23,-0.0469 0.23,-0.3907 -0.17,-2.34372 -0.69,-4.55856 -1.09,-5.6445 -0.1,-0.17578 -0.4,-0.23438 -0.56,-0.23438 -1.485,0 -5.645,0.11719 -9.239,0.11719 -3.418,0 -6.555,-0.16797 -10.196,-0.16797 -0.117,0.10938 -0.117,1.25 -0.117,1.47657 0.059,0.17578 0.117,0.23437 0.282,0.23437 2.285,0.39063 2.57,0.50781 2.628,1.3086 0.047,0.46093 0.223,2.67582 0.223,5.75392 l 0,7.6914" /><path
         id="path110"
         style="fill:#ffffff;fill-opacity:1;fill-rule:nonzero;stroke:none"
         d="m 1010.78,22.7422 c 0,2.8555 -0.12,4.1601 -0.23,4.5039 -0.12,0.293 -0.29,0.4023 -2.97,0.8008 l 0.06,1.6484 c 0.06,0.1211 0.06,0.1758 0.23,0.1758 l 1.54,0 c 1.14,0 2.79,-0.0547 5.75,-0.0547 4,0 7.59,0.1719 10.95,0.1719 0.52,0 0.8,0 0.97,-0.2305 0.11,-0.1094 0.17,-0.2266 0.05,-0.9101 -0.22,-1.7071 -0.28,-3.6524 -0.22,-4.6172 0,-0.168 -0.18,-0.2266 -0.58,-0.2266 -1.13,0 -1.13,0.2266 -1.25,0.5078 -0.62,2.8516 -1.02,3.418 -5.3,3.418 -2.23,0 -3.36,-0.1094 -3.82,-0.1641 -0.46,-0.0625 -0.62,-0.3437 -0.62,-0.8008 0,-2.3945 0.06,-4.8476 0.06,-7.0703 0,-0.3437 0.28,-0.625 0.44,-0.625 l 2.51,0 c 1.71,0 2.46,-0.0586 3.82,0.0547 1.37,0.0625 1.66,0.461 2.11,2.336 0.06,0.1757 0.34,0.2343 1.37,0.2343 0.28,0 0.34,-0.1172 0.34,-0.2343 -0.11,-0.793 -0.28,-2.793 -0.28,-3.9258 0,-1.543 0.06,-2.168 0.17,-3.3711 0,-0.1055 -0.4,-0.1641 -1.66,-0.2813 -0.1,0.4024 -0.39,1.3086 -0.56,1.7071 -0.18,0.8047 -0.4,1.1445 -1.49,1.2617 -1.42,0.1054 -2.33,0.1054 -4.27,0.1054 -1.54,0 -1.94,-0.0546 -2.22,-0.164 -0.23,-0.1172 -0.34,-0.3984 -0.34,-5.3594 0,-1.3125 0.11,-2.05468 0.46,-2.61718 0.16,-0.34374 0.85,-0.6875 4.1,-0.6875 4.16,0 6.09,0.625 7.18,4.16018 0.05,0.1679 0.17,0.2265 0.45,0.2265 0.4,0 0.97,-0.1171 1.09,-0.1171 0.11,0 0.22,-0.0469 0.22,-0.3907 -0.16,-2.34372 -0.68,-4.55856 -1.08,-5.6445 -0.11,-0.17578 -0.4,-0.23438 -0.57,-0.23438 -1.48,0 -5.64,0.11719 -9.24,0.11719 -3.41,0 -6.55,-0.16797 -10.19,-0.16797 -0.12,0.10938 -0.12,1.25 -0.12,1.47657 0.06,0.17578 0.12,0.23437 0.28,0.23437 2.29,0.39063 2.57,0.50781 2.63,1.3086 0.05,0.46093 0.23,2.67582 0.23,5.75392 l 0,7.6914" /><path
         id="path112"
         style="fill:#ffffff;fill-opacity:1;fill-rule:nonzero;stroke:none"
         d="m 1050.16,23.0859 c 0,3.5352 -2.27,5.4219 -5.24,5.4219 -0.69,0 -1.49,-0.1172 -2.05,-0.4023 -0.23,-0.2227 -0.35,-0.3399 -0.4,-0.6836 -0.23,-2.4492 -0.23,-4.6172 -0.23,-8.5547 0,-0.5664 0.17,-0.7305 1.65,-0.7305 1.2,0 2.97,0.1055 4,0.5625 1.3,0.6875 2.27,2.2774 2.27,4.336 l 0,0.0507 z m -4.33,-15.43746 c -0.17,-1.20313 -0.23,-1.26172 -0.57,-1.26172 -0.68,0 -3.82,0.05859 -6.09,0.05859 -1.61,0 -3.03,-0.11719 -3.72,-0.11719 -0.4,0 -0.45,0.11719 -0.62,0.85938 -0.12,0.68359 0,0.74219 0.06,0.80078 2.11,0.33984 2.61,0.73438 2.73,1.99219 0.06,1.36723 0.18,3.13283 0.18,6.38673 l 0,4.3867 c 0,2.0508 0,4.3359 -0.12,5.5234 0,0.6875 -0.12,1.2618 -0.74,1.3711 -0.69,0.1719 -1.14,0.2813 -1.71,0.3985 -0.4,0.0586 -0.46,0.1758 -0.52,0.4609 l -0.05,1.3633 c 2.45,0.0625 4.21,0.0625 5.76,0.1172 1.48,0.1094 3.47,0.2851 5.07,0.2851 2.5,0 5.35,-0.457 7.06,-1.7656 1.43,-1.0273 2.4,-2.7344 2.4,-4.6797 0,-2.6758 -2.45,-4.5586 -3.53,-5.2422 -0.17,-0.1093 -0.4,-0.4023 -0.34,-0.5664 1.47,-3.7617 3.58,-6.9531 6.38,-9.12106 1.26,-0.96875 2.45,-1.54297 3.07,-1.76953 0.18,-0.0586 0.18,-0.22657 0.18,-0.90625 0,-0.57813 -0.06,-0.63672 -0.4,-0.63672 -3.48,0.11718 -6.33,1.08594 -8.5,2.96875 -1.93,1.59371 -3.24,3.87891 -4.5,6.15231 -0.63,1.1446 -1.31,1.6602 -3.3,1.6602 -1.71,0 -1.83,-0.3438 -1.83,-0.6836 0,-4.3945 0.06,-6.44532 0.46,-6.73048 0.4,-0.33984 2.22,-0.57421 3.19,-0.80078 l 0,-0.5039" /><path
         id="path114"
         style="fill:#ffffff;fill-opacity:1;fill-rule:nonzero;stroke:none"
         d="m 1066.06,8.37891 c 0.98,0 1.54,0.29297 1.77,1.14453 0.11,0.51566 0.29,1.76566 0.29,6.26566 l 0,5.7656 c 0,2.332 0,3.6406 -0.06,4.6172 -0.17,1.4765 -0.8,1.8164 -3.65,1.8164 -0.11,0 -0.28,0.1758 -0.28,0.2851 0,0.293 0.22,1.0352 0.34,1.2578 0.11,0.2852 0.22,0.3399 0.86,0.3399 3.3,0 4.26,-0.0547 5.69,-0.0547 2,0 4.45,0.0547 4.9,0.0547 0.34,0 0.69,-0.0547 0.75,-0.2813 l 0.11,-1.3671 c -3.47,-0.5196 -3.76,-0.8008 -3.87,-1.3204 -0.18,-0.6796 -0.29,-2.0468 -0.29,-5.6328 l 0,-5.2461 c 0,-2.8476 0.11,-5.0781 0.4,-6.66793 0.11,-0.68359 0.45,-0.80078 3.14,-1.08203 0.05,-0.17578 0.16,-1.26172 0.1,-1.60156 0,-0.22657 -0.1,-0.28516 -0.56,-0.28516 -2.68,0.05859 -4.4,0.05859 -6.11,0.05859 -2.73,-0.05859 -4.56,-0.11719 -4.95,-0.11719 -0.23,0 -0.4,0.17579 -0.46,0.51954 l -0.11,1.25 c 0,0.11718 0,0.23046 0.11,0.23046 l 1.88,0.05079" /><path
         id="path116"
         style="fill:#ffffff;fill-opacity:1;fill-rule:nonzero;stroke:none"
         d="m 1092.28,6.62109 c 0,-0.11718 -0.12,-0.29297 -0.28,-0.29297 -1.77,0 -3.66,0.11719 -5.36,0.11719 -1.2,0 -2.74,-0.11719 -3.48,-0.11719 l -0.46,1.42579 c 0,0.05859 0.06,0.17578 0.29,0.23437 2.05,0.44922 2.4,0.96484 2.56,2.16012 0.18,0.9727 0.52,3.5352 0.52,7.0078 l 0,6.1641 c 0,2.4531 -0.12,3.2422 -0.46,3.7031 -0.34,0.6797 -0.8,0.9063 -3.08,1.25 -0.28,0.0547 -0.4,0.1719 -0.4,0.4571 l 0,1.0859 c 0,0.1719 0.06,0.2227 0.29,0.1719 2.11,-0.1172 2.97,-0.1719 6.44,-0.1172 0.57,0 0.91,-0.1133 1.03,-0.457 0.16,-0.5079 0.96,-1.4844 2.21,-2.8516 1.95,-2.1094 6.51,-6.9531 13.18,-13.3281 0.22,3.0742 0.28,10.1445 0.06,12.9883 -0.18,1.4257 -0.46,1.5429 -3.2,1.8828 -0.28,0 -0.4,0.1172 -0.4,0.3398 l -0.06,1.4258 c 1.55,0 3.02,0 4.45,0 1.37,0 3.47,0.168 4.9,0.1172 0.18,0 0.28,-0.0547 0.28,-0.1719 l 0.35,-1.3086 c -3.14,-1.0273 -3.42,-1.1445 -3.71,-5.4219 -0.16,-3.6992 -0.22,-6.8359 -0.22,-10.1953 0,-3.31248 0.11,-5.36326 0.11,-5.76169 0,-0.80079 -1.09,-1.25 -1.77,-1.48438 -0.28,-0.10937 -0.45,0 -0.68,0.40235 -1.14,1.54296 -2,2.625 -3.65,4.33592 -2.45,2.5078 -9.12,9.5664 -12.54,13.0469 -0.34,0.3398 -0.62,0.2305 -0.68,-0.1094 -0.06,-0.918 -0.18,-2.6289 -0.18,-5.0781 0,-3.3008 -0.05,-7.461 0.41,-8.71876 0.34,-1.14453 1.7,-1.3711 3.35,-1.53516 l 0.18,-1.36719" /><path
         id="path118"
         style="fill:#ffffff;fill-opacity:1;fill-rule:nonzero;stroke:none"
         d="m 1141.41,16.3672 c -1.08,-0.1758 -1.26,-0.3984 -1.26,-0.5781 -0.34,-3.4727 -0.34,-7.29301 -0.34,-8.14066 0,-0.63672 -0.17,-0.91797 -0.57,-1.20313 -0.28,-0.28515 -0.91,-0.28515 -1.76,-0.28515 -1.77,-0.05469 -3.65,-0.39844 -6.39,-0.39844 -4.9,0 -8.6,1.20312 -11.22,3.70312 -2.06,1.94136 -3.43,4.96096 -3.43,8.77736 0,3.5937 1.43,6.668 3.59,8.6133 3.08,2.7343 7.98,3.7578 11.4,3.7578 1.43,0 3.37,-0.2305 4.28,-0.4571 0.86,-0.2226 1.08,-0.1171 1.42,0.5665 0,0.1171 0.06,0.1171 0.75,0 l 0.56,-0.1641 c 0.24,-0.0625 0.34,-0.2266 0.34,-0.6875 0.06,-1.8242 0.46,-4.4414 0.64,-5.4688 0.11,-0.3984 0.11,-0.6328 -0.06,-0.7968 -0.12,-0.0586 -0.86,-0.2852 -1.32,-0.2852 l -0.11,0 c -0.11,0 -0.23,0.2266 -0.34,0.4492 -1.42,2.9688 -3.93,4.8516 -7.23,4.8516 -1.95,0 -3.94,-0.6914 -5.2,-1.7656 -1.77,-1.4258 -3.42,-4.3946 -3.42,-8.4961 0,-2.4532 0.63,-5.7032 3.2,-7.9766 2.22,-1.88671 5.02,-2.73436 6.55,-2.73436 1.14,0 2.34,0.44922 2.85,0.84765 0.63,0.45703 1.08,1.88671 1.08,4.05471 0,2.5586 -0.11,3.3554 -1.48,3.6406 -0.91,0.1758 -2.11,0.2852 -2.51,0.4024 -0.22,0.0546 -0.28,0.2226 -0.68,1.4804 0,0.2852 0.06,0.4024 0.29,0.4024 2.73,0 4.9,-0.1758 6.78,-0.1758 1.76,0 2.91,0.1758 3.31,0.1758 0.28,0 0.34,-0.1172 0.34,-0.3399 l -0.06,-1.7695" /></g></g></svg>