<?xml version="1.0" encoding="UTF-8" standalone="no"?>
<svg
   xmlns:dc="http://purl.org/dc/elements/1.1/"
   xmlns:cc="http://creativecommons.org/ns#"
   xmlns:rdf="http://www.w3.org/1999/02/22-rdf-syntax-ns#"
   xmlns:svg="http://www.w3.org/2000/svg"
   xmlns="http://www.w3.org/2000/svg"
   viewBox="0 0 130.89999 71.300003"
   height="71.300003"
   width="130.89999"
   xml:space="preserve"
   version="1.1"
   id="svg2"><metadata
     id="metadata8"><rdf:RDF><cc:Work
         rdf:about=""><dc:format>image/svg+xml</dc:format><dc:type
           rdf:resource="http://purl.org/dc/dcmitype/StillImage" /></cc:Work></rdf:RDF></metadata><defs
     id="defs6" /><g
     transform="matrix(1.25,0,0,-1.25,0,71.3)"
     id="g10"><g
       transform="scale(0.1,0.1)"
       id="g12"><path
         id="path14"
         style="fill:#ffffff;fill-opacity:1;fill-rule:nonzero;stroke:none"
         d="m 523.848,240.281 c -53.047,0 -99.946,26.789 -127.903,67.547 L 651.746,307.82 C 623.789,267.07 576.895,240.281 523.848,240.281 Z M 368.852,395.273 c 0,81.477 63.191,148.461 143.128,154.543 L 384.086,328.293 c -9.762,20.285 -15.234,43.008 -15.234,66.98 z m 225.171,13.559 c 21.415,-37.094 40.789,-70.652 46.77,-81.012 -7.309,0 -24.641,0 -46.77,0 l 0,81.012 z M 453.676,327.82 c -22.133,0 -39.457,0.008 -46.766,0.008 5.981,10.356 25.352,43.906 46.766,81 l 0,-81.008 z m 120.347,0.215 -100.347,0 0,100.344 100.347,0 0,-100.344 z m -50.168,202.336 c 6.028,-10.449 25.696,-44.508 47.336,-81.992 l -94.675,0 c 21.636,37.484 41.304,71.543 47.339,81.992 z M 678.848,395.273 c 0,-23.972 -5.481,-46.695 -15.235,-66.976 l -127.89,221.519 c 79.941,-6.086 143.125,-73.074 143.125,-154.543 z m -3.438,-87.406 c 14.895,25.731 23.438,55.59 23.438,87.406 0,96.469 -78.465,174.95 -174.93,174.989 l -0.063,0.109 -0.066,-0.109 C 427.324,570.234 348.852,491.75 348.852,395.273 c 0,-31.816 8.543,-61.675 23.437,-87.406 l -0.019,-0.039 0.042,0 c 30.293,-52.293 86.872,-87.547 151.536,-87.547 64.66,0 121.23,35.246 151.535,87.539 l 0.047,0 -0.02,0.047" /><path
         id="path16"
         style="fill:#ffffff;fill-opacity:1;fill-rule:nonzero;stroke:none"
         d="m 18.8984,87.7266 c 1.5977,0.2031 4.3008,0.6015 5.8008,0.7968 2.6016,0.5 3.8985,1.2032 4.3008,3.4024 0.1992,1.4023 0.8984,8.2032 0.8984,22.6052 l 0,10.196 c 0,18.093 -0.0976,21.601 -0.5,21.601 l -8.1015,0 C 11.8984,146.328 7.5,144.727 6.69922,144.227 5.5,143.328 4.80078,141.523 3.39844,137.434 c 0,-0.305 -0.5,-0.305 -0.89844,-0.11 -0.80078,0.403 -2.203125,1.699 -2.5,2 1.39453,2.903 3.39844,7.403 5.69922,14.903 0.39844,0.097 1.09766,0 1.89844,-0.204 0.70312,-0.195 0.80078,-0.293 0.90234,-0.695 0,-1.805 0.19531,-2.605 0.89844,-2.801 0.80076,-0.207 2.30076,-0.3 4.60156,-0.398 2.9961,-0.102 7.7969,-0.102 17.0977,-0.102 10.8984,0 19.3046,0 25.0976,0.293 2.9024,0.11 4.6055,0.305 5.6016,0.61 0.6015,0.191 1.1992,0.996 1.8008,2.8 0.0976,0.403 0.1992,0.403 0.5,0.403 0.5,0 1.8007,-0.403 2.6015,-0.91 0.1992,-0.098 0.1992,-0.496 0,-1.297 -2,-5.199 -2.1015,-7.602 -2.6015,-13.703 0,-0.496 -0.3008,-0.789 -1.1016,-0.789 -0.5977,0 -1.2969,0.093 -1.8008,0.195 -0.2969,0.098 -0.4961,0.398 -0.4961,0.594 0,0.8 0.1992,4.304 0.1992,5.207 0,0.703 -0.4023,1.504 -1.6015,1.89 -0.8985,0.403 -5.6992,1.008 -12.7969,1.008 l -6.5,0 c -0.9023,0 -1.3047,-0.605 -1.4023,-2.598 0,-1.699 -0.2969,-6.601 -0.2969,-20 l 0,-10 c 0,-14.4058 0.2969,-18.7027 0.6992,-20.5073 0.2969,-1.6993 1,-2.9961 2.1953,-3.5938 1.8008,-1.0078 6.3047,-1.6016 8.6055,-1.8086 0.6015,0 0.6953,-0.0937 0.6015,-0.3867 L 50,85.4297 c -0.1016,-0.4024 -0.1992,-0.6055 -0.9023,-0.6055 -1.1954,0 -9.8008,0.3047 -14.6993,0.3047 -5.1992,0 -13.1015,-0.4023 -13.9023,-0.4023 -0.7969,0 -1.1992,0.3007 -1.2969,0.8007 l -0.3008,2.1993" /><path
         id="path18"
         style="fill:#ffffff;fill-opacity:1;fill-rule:nonzero;stroke:none"
         d="m 107.895,119.824 c 4.503,0 7.902,0.11 10.402,0.305 6,0.398 6.504,0.801 7.801,6.695 0.402,0.305 2.703,0.5 3.199,0.403 -0.199,-2.903 -0.801,-7.5 -0.801,-10.594 0.102,-3.41 0.399,-6.203 0.703,-9.106 -0.801,-0.203 -1.601,-0.3 -2.301,-0.3 -0.503,-0.098 -0.703,0.207 -0.902,0.593 -0.398,1.106 -0.898,2.707 -1.195,3.907 -0.602,2.699 -1.805,3.593 -5.801,3.898 -2.203,0.203 -5.504,0.203 -10.602,0.203 -5,0 -6,-0.105 -6.601,-0.203 -0.402,-0.098 -0.699,-0.195 -1,-0.598 -0.301,-0.601 -0.8986,-4.097 -0.8986,-12.3 0,-7.2973 0,-10.0004 0.9996,-11.6059 1.403,-1.8945 4.899,-2.3906 13.102,-2.3906 11.699,0 17.301,1.0937 20.398,11.6995 0.403,0.097 1.399,0 2.399,-0.11 0.305,-0.191 0.305,-0.293 0.305,-0.7888 -0.204,-4.5976 -1.805,-11.0078 -3.102,-13.9062 -0.504,-0.5977 -0.801,-0.8008 -1.305,-0.8008 -0.699,0 -1.394,0 -4.699,0.1094 -3,0.0937 -10,0.1953 -18.301,0.1953 -7.996,0 -15.8981,-0.4023 -23.8981,-0.7031 -0.1992,0.1054 -0.3008,2.207 -0.1992,3.0078 0,0.1953 0.3007,0.3867 0.3984,0.3867 4.6016,0.8008 5,1.5039 5.1016,3.0078 0.1992,1.4961 0.6992,7.9024 0.6992,18.0979 l 0,17.304 c 0,13.301 -0.6016,17.696 -0.6992,18.301 -0.1016,0.598 -0.3008,1.094 -1.2969,1.297 -1.0039,0.402 -2.9024,0.695 -5.3047,1.301 -0.0977,0.098 -0.0977,0.098 -0.0977,0.398 l 0.1993,2.297 c 0,0.403 0,0.496 0.5,0.496 l 3.5,0 c 3.1015,0 6.8984,-0.191 13.0003,-0.293 l 9.703,0 c 6.097,0 13.394,0.5 18.394,0.598 1.301,0 1.903,-0.195 2.407,-0.496 0.894,-0.598 0.894,-0.598 0.496,-2.402 -0.801,-4.399 -0.899,-10.2 -0.899,-12.793 -2.601,0 -3.004,0.293 -3.101,0.894 -1.403,7.199 -2.098,10.805 -9.903,10.805 l -6.898,0 c -5.899,0 -9.199,-0.207 -10.297,-0.512 -1.305,-0.398 -1.5039,-1.394 -1.5039,-3.687 0,-7.004 0.1019,-14.004 0.1989,-21.008 0,-0.899 0.602,-1.602 1.305,-1.602 l 6.395,0" /><path
         id="path20"
         style="fill:#ffffff;fill-opacity:1;fill-rule:nonzero;stroke:none"
         d="m 162.398,127.93 c 0,15.195 -0.5,16.894 -2.003,17.793 -1.196,0.91 -2.797,1.101 -5.594,1.308 0,0.789 0.398,2.793 0.898,3.098 3.301,0 6.699,-0.102 10.098,-0.102 7.098,0.102 10.398,0.403 11.398,0.403 0.602,0 0.801,-0.203 0.903,-0.403 0.199,-0.398 0.398,-2 0.3,-2.593 -3.199,-0.403 -4.703,-0.801 -6.203,-1.313 -1.199,-0.594 -1.496,-2.898 -1.496,-12.293 l 0,-13.203 c 0,-0.996 0.098,-1.199 0.602,-1.199 0.695,0 2.195,1.297 4.797,3.301 5.8,4.8 17,14.402 23.597,21.003 1.606,1.497 1.606,2.5 0.903,2.5 -1.703,0.098 -3.403,0.293 -5.7,0.497 l -0.097,2.699 c 0.097,0.508 0.199,0.601 0.594,0.703 9.902,-0.102 21.203,0.301 21.906,0.301 0.496,0 0.594,-0.11 0.496,-0.703 -0.297,-2 -0.399,-2.403 -0.899,-2.403 -5.902,-0.898 -8.3,-2.695 -11.199,-4.797 -5.801,-4.199 -12.004,-9.004 -24.601,-20 -0.602,-0.496 -0.899,-1.297 -0.301,-1.902 6.101,-6.602 17.301,-15.996 25.801,-23.8984 5.597,-5.2032 8.402,-7.3008 10.504,-7.8008 1.496,-0.3047 2.898,-0.5977 3.894,-0.8008 0.801,-0.1953 1.106,-0.4961 1,-1.1992 l -0.801,-2.1016 c -6.097,0.3047 -11.699,0.4024 -23.3,0.3047 l 0.402,2.9961 c 0.398,0.2031 2,0.6055 3.004,0.8008 0.695,0.0976 1,0.7031 0.094,1.5039 -8.5,8 -22.899,21.0933 -25.399,23.5933 -2.898,2.801 -4.297,3.008 -4.695,3.008 -0.305,0 -0.602,-0.207 -0.602,-1.504 l 0,-8.894 c 0,-13.6057 0.696,-15.8049 1.199,-16.4064 0.899,-1.3985 3.2,-1.6055 7.102,-2.0039 0.199,0 0.398,-0.293 0.398,-0.6954 l -0.3,-2.7031 c -3.301,0.1094 -5.801,0.3047 -13.301,0.3047 -3.199,0 -9.801,-0.3047 -10.996,-0.3047 -0.199,0.4024 0.097,2.9024 0.297,3.1055 1.297,0.293 3,0.3984 4.8,0.8984 2,0.3985 2.5,1.6992 2.5,14.1019 l 0,25" /><path
         id="path22"
         style="fill:#ffffff;fill-opacity:1;fill-rule:nonzero;stroke:none"
         d="m 234.996,150.43 c 4.598,-0.203 6.801,-0.403 13.899,-0.403 0.601,0 1.101,-0.093 1.3,-0.3 0.403,-0.301 0.899,-1.106 1.2,-1.797 0.699,-1.297 4.203,-5.899 6.597,-8.106 6,-6.094 20.602,-20.597 40.504,-39.394 0.098,3.191 0.199,12.199 0.199,19.597 0,10.403 -0.101,15.801 -0.504,20.903 -0.199,1.699 -0.398,4.199 -2.593,4.898 -1.102,0.402 -3.801,0.695 -5.903,0.899 -0.3,0.097 -0.5,0.199 -0.5,0.5 l -0.203,2.8 c 3.801,0 7.606,0 11.301,0 3.902,0 7.898,0.293 11,0.403 0.504,0 0.801,-0.203 0.902,-0.496 l 0.598,-2.114 c -3.598,-0.789 -5,-1.187 -6.598,-2.195 -1.898,-1.094 -2.5,-4.297 -3.004,-17.898 -0.199,-8.997 -0.296,-15.5 -0.296,-28.8989 0,-6.3945 0.296,-12.3047 0.296,-14.0039 -0.093,-0.5976 -0.695,-1.0937 -1.996,-1.6015 -0.504,-0.1954 -0.902,-0.1954 -1.398,0.5078 -5.902,8.7031 -15.203,18.0935 -25.699,28.4965 -8.301,8.3 -16.203,16.101 -24.403,24.296 -0.3,-5.593 -0.5,-12.695 -0.5,-18.3 0,-9.09 0,-22.598 1.2,-26.3988 0.8,-2.293 3.902,-3.0937 8,-3.8945 l 0.703,-2.4024 c 0.097,-0.3007 -0.504,-0.8007 -0.801,-0.8007 -4.199,0 -8.602,0.4023 -12.699,0.4023 -3.504,0 -6.5,-0.3047 -8.2,-0.3047 -0.203,1.0039 -0.503,2 -0.8,2.8047 6.297,1.6953 6.699,2.6914 7.195,5.9922 0.305,2.5 1.203,11.6989 1.203,25.8049 l 0,11.101 c 0,10.301 -0.199,12 -1.805,13.496 -1.593,1.7 -3.195,2.61 -7.394,3.106 -0.602,0.195 -0.801,0.305 -0.801,0.691 l 0,2.61" /><path
         id="path24"
         style="fill:#ffffff;fill-opacity:1;fill-rule:nonzero;stroke:none"
         d="m 361.488,148.223 c -4.8,0 -9.8,-1.797 -14.894,-7.293 -5.305,-6.106 -6.805,-15.207 -6.805,-21.504 0,-9.297 3.301,-17.395 8.801,-23.0002 6.601,-6.6992 12.898,-9.1992 19.598,-9.1992 10.304,0 21.304,8.8945 21.304,27.5974 0,9.004 -2.402,17.903 -9.301,25.403 -4,4.304 -10.296,7.996 -18.597,7.996 l -0.106,0 z m 3.301,3.601 c 18.102,0 34.602,-14.39 34.602,-32.691 0,-12.406 -6,-21.5041 -11.301,-26.6994 -6.899,-6.8086 -15.899,-9.1055 -21.297,-9.1055 -10.602,0 -22.102,4.7969 -28.902,12.3946 -5.102,5.6053 -8.399,14.5043 -8.399,22.7073 0,8.394 3.399,17.293 11.196,24.297 6.304,5.703 15.304,9.097 24.003,9.097 l 0.098,0" /><path
         id="path26"
         style="fill:#ffffff;fill-opacity:1;fill-rule:nonzero;stroke:none"
         d="m 465.797,101.023 c 0.394,0 2.195,-0.496 2.695,-0.796 0.399,-0.4028 0.399,-0.6958 0.301,-1.0942 -1.199,-4.1055 -2.301,-8.4101 -2.996,-12.707 -0.199,-0.9961 -0.902,-1.3985 -1.703,-1.4922 -0.996,-0.1094 -2.102,-0.1094 -6.301,-0.1094 -4.102,0 -9,0.3047 -25.898,0.3047 -5.403,0 -10.301,-0.5 -11.7,-0.5977 -1.101,-0.1054 -1.703,-0.1054 -1.898,-0.1054 -0.305,0.3984 -0.902,2.5 -0.801,3.1015 4.899,0.5977 7.399,1.4961 8.195,4.5039 0.403,1.3985 0.7,5.0977 0.7,15.2928 l 0,20.496 c 0,8.508 -0.2,13.907 -0.496,16.106 -0.297,2.304 -1.098,2.707 -8.2,2.597 -0.3,0 -0.601,0.606 -0.398,1.204 l 0.801,1.804 c 0.093,0.496 0.199,0.496 0.394,0.496 3,0 6.102,-0.093 9.301,0 5.102,0.102 10.398,0.403 15.602,0.598 0.398,-0.305 0.699,-2.195 0.699,-2.996 -5.996,-0.703 -8.403,-1.203 -8.899,-5.305 -0.3,-2.898 -0.601,-9.504 -0.504,-17.597 l 0.106,-12.2 c 0.098,-15.8004 0.199,-18.9059 0.297,-20.7028 0.101,-1.3945 0.703,-2.1953 1.898,-2.5 1.699,-0.5937 4.801,-0.8008 9.301,-0.8008 6.602,0 13,0.2071 16.301,5.3047 1.097,1.6992 1.898,3.6055 2.601,6.6989 0.098,0.403 0.2,0.496 0.496,0.496 l 0.106,0" /><path
         id="path28"
         style="fill:#ffffff;fill-opacity:1;fill-rule:nonzero;stroke:none"
         d="m 516.391,148.223 c -4.793,0 -9.793,-1.797 -14.899,-7.293 -5.301,-6.106 -6.801,-15.207 -6.801,-21.504 0,-9.297 3.301,-17.395 8.801,-23.0002 6.602,-6.6992 12.899,-9.1992 19.598,-9.1992 10.305,0 21.297,8.8945 21.297,27.5974 0,9.004 -2.383,17.903 -9.297,25.403 -4,4.304 -10.301,7.996 -18.602,7.996 l -0.097,0 z m 3.3,3.601 c 18.09,0 34.594,-14.39 34.594,-32.691 0,-12.406 -5.992,-21.5041 -11.289,-26.6994 -6.91,-6.8086 -15.902,-9.1055 -21.301,-9.1055 -10.605,0 -22.101,4.7969 -28.902,12.3946 -5.102,5.6053 -8.398,14.5043 -8.398,22.7073 0,8.394 3.398,17.293 11.195,24.297 6.305,5.703 15.305,9.097 24.004,9.097 l 0.097,0" /><path
         id="path30"
         style="fill:#ffffff;fill-opacity:1;fill-rule:nonzero;stroke:none"
         d="m 575.203,118.125 c 0,10.203 3.789,17.898 10,23.602 4.301,3.996 9.301,6.203 16.098,8.097 5.996,1.699 12.398,2 15.601,2 3.203,0 9.004,-0.594 12.793,-1.797 0.508,-0.203 0.903,-0.3 0.996,0 l 0.903,1.496 c 0.215,0.301 0.308,0.301 1.109,0.301 l 1.992,-0.097 c 0.2,0 0.508,-0.204 0.508,-0.704 0.293,-6.492 0.902,-11.597 1.391,-14.097 0.215,-1.098 0.215,-1.992 0.117,-2.297 -0.219,-0.203 -0.41,-0.305 -1.113,-0.305 l -1.387,0 c -0.316,0 -0.703,0.102 -1.02,0.805 -2.695,7.195 -9.199,13.094 -20.386,13.094 -5.61,0 -11.504,-1.399 -17.114,-6.297 -4.492,-4.106 -10.293,-11.899 -10.293,-24.399 0,-6.597 1.797,-14.8 8.497,-21.2965 7.699,-7.5 18.617,-8.7032 23.808,-8.7032 2.988,0 6.899,1.0938 8.402,2.2969 1.793,1.2969 2.696,5.8985 2.696,12.9958 0,9.614 -0.293,10.801 -3.789,11.407 -1.02,0.199 -5.317,0.707 -6.407,0.902 -0.414,0.191 -0.902,0.398 -1.093,0.699 -0.317,0.5 -0.41,1.301 -0.508,1.899 0,0.496 0.191,0.796 0.508,0.796 5.679,0 10.191,-0.398 14.492,-0.398 5.293,0 8.687,0.398 10.293,0.398 0.215,-0.195 0,-3.296 -0.195,-3.894 -1.094,-0.098 -2.305,-0.305 -3.911,-0.496 -0.195,-0.805 -0.679,-7.903 -0.679,-24.8088 0,-1.8906 -0.508,-2.5976 -1.504,-3.4961 -0.903,-0.8008 -2.403,-0.8945 -2.817,-0.8945 -2.285,0 -3.882,0 -7.886,-0.3047 -3.594,-0.3047 -6.7,-0.6055 -10.703,-0.6055 -13.11,0 -22.598,3.4102 -29.59,10 -5.801,5.4024 -9.809,13.5036 -9.809,24.0036 l 0,0.098" /><path
         id="path32"
         style="fill:#ffffff;fill-opacity:1;fill-rule:nonzero;stroke:none"
         d="m 667.488,127.93 c 0,15.195 -0.508,16.894 -1.992,17.793 -1.211,0.91 -2.808,1.101 -5.601,1.308 0,0.789 0.386,2.793 0.898,3.098 3.301,0 6.695,-0.102 10.098,-0.102 7.105,0.102 10.41,0.403 11.406,0.403 0.601,0 0.801,-0.203 0.894,-0.403 0.2,-0.398 0.395,-2 0.293,-2.593 -3.203,-0.403 -4.683,-0.801 -6.187,-1.313 -1.211,-0.594 -1.504,-2.898 -1.504,-12.293 l 0,-13.203 c 0,-0.996 0.098,-1.199 0.602,-1.199 0.707,0 2.191,1.297 4.789,3.301 5.796,4.8 17.007,14.402 23.613,21.003 1.598,1.497 1.598,2.5 0.894,2.5 -1.699,0.098 -3.394,0.293 -5.703,0.497 l -0.093,2.699 c 0.093,0.508 0.195,0.601 0.601,0.703 9.887,-0.102 21.192,0.301 21.899,0.301 0.488,0 0.601,-0.11 0.488,-0.703 -0.293,-2 -0.395,-2.403 -0.903,-2.403 -5.894,-0.898 -8.296,-2.695 -11.187,-4.797 -5.805,-4.199 -11.992,-9.004 -24.609,-20 -0.586,-0.496 -0.903,-1.297 -0.293,-1.902 6.089,-6.602 17.3,-15.996 25.797,-23.8984 5.609,-5.2032 8.402,-7.3008 10.507,-7.8008 1.489,-0.3047 2.895,-0.5977 3.891,-0.8008 0.801,-0.1953 1.109,-0.4961 1.016,-1.1992 l -0.801,-2.1016 c -6.113,0.3047 -11.699,0.4024 -23.305,0.3047 l 0.395,2.9961 c 0.41,0.2031 1.992,0.6055 3.004,0.8008 0.707,0.0976 1,0.7031 0.097,1.5039 -8.496,8 -22.906,21.0933 -25.406,23.5933 -2.895,2.801 -4.301,3.008 -4.691,3.008 -0.309,0 -0.602,-0.207 -0.602,-1.504 l 0,-8.894 c 0,-13.6057 0.699,-15.8049 1.187,-16.4064 0.918,-1.3985 3.208,-1.6055 7.114,-2.0039 0.191,0 0.386,-0.293 0.386,-0.6954 l -0.292,-2.7031 c -3.297,0.1094 -5.797,0.3047 -13.297,0.3047 -3.203,0 -9.805,-0.3047 -10.996,-0.3047 -0.2,0.4024 0.093,2.9024 0.293,3.1055 1.304,0.293 3.003,0.3984 4.8,0.8984 1.992,0.3985 2.5,1.6992 2.5,14.1019 l 0,25" /><path
         id="path34"
         style="fill:#ffffff;fill-opacity:1;fill-rule:nonzero;stroke:none"
         d="m 773.312,167.727 c -2.113,0 -4.203,-1.899 -4.203,-4.297 0,-4.004 2.192,-5.61 5.2,-5.703 2.695,-0.098 3.882,2.207 3.882,4.597 0,3.399 -2.379,5.403 -4.785,5.403 l -0.094,0 z m 0.997,3.796 c 4.683,0 8.203,-3.593 8.203,-8.3 0,-3.996 -1.7,-5.899 -4.907,-7.598 -2.207,-1.398 -3.496,-1.699 -4.707,-1.699 -4.199,0 -8.203,3.203 -8.203,7.801 0,4.203 2.207,7.003 6.211,8.8 1.699,0.703 2.5,0.996 3.305,0.996 l 0.098,0 z m -11.504,-59.089 c 0.601,0 2.691,-0.207 7.207,-0.207 4.683,0 7.5,0.097 10.191,0.207 0.703,0 0.996,0.894 0.805,1.394 -3.906,10.598 -5.903,16.492 -9.004,24.5 -0.195,0.402 -0.899,0.195 -1.192,-0.398 -4.707,-10.899 -6.015,-14.2 -9.906,-24.407 -0.094,-0.398 0.489,-1.089 1.797,-1.089 l 0.102,0 z m 12.207,39.39 c 0.679,0 0.894,-0.496 1.187,-1.504 3.012,-9.695 5.102,-14.695 8.598,-24.09 3.199,-8.906 11.308,-27.8003 12.613,-30.9097 2.094,-4.6953 3.496,-6.4922 9.199,-7.5937 0.2,0 -0.41,-2.6993 -0.797,-3 -8.3,0.0976 -10.316,0.0976 -13.617,0.0976 -3.203,0 -5.996,-0.3984 -6.89,-0.293 -0.395,0 -0.61,0.0977 -0.703,0.293 -0.2,0.6055 -0.61,2.4024 -0.493,2.6094 5.102,1.3945 5.801,2.0976 4.59,5.9961 -0.508,2 -3.687,10.0933 -5,13.2973 -0.293,0.707 -0.894,1.496 -1.695,1.496 -7.207,0 -15.703,-0.098 -21.606,-0.403 -1.187,-0.093 -1.699,-0.386 -2.5,-2.097 -0.996,-2.102 -4.293,-10.6957 -4.293,-13.3988 0,-2.1953 0.797,-3 5.797,-4.5039 0.102,-0.5937 -0.41,-2.5 -0.797,-2.793 -4.906,0.1016 -10.609,0.1016 -12.699,0.1016 -1.695,0 -3.301,-0.1016 -3.711,0 -0.484,0 -0.586,0.0977 -0.703,0.3008 -0.387,0.5937 -0.68,2.5 -0.484,2.793 4.297,1.2031 5.293,3.4101 7.984,8.5039 2.817,5.5004 14.199,33.5934 20,47.4064 1.113,2.691 1.699,4.39 2.309,5.996 0.094,0.496 0.191,0.594 0.601,0.801 0.395,0.191 2.09,0.894 3.008,0.894 l 0.102,0" /><path
         id="path36"
         style="fill:#ffffff;fill-opacity:1;fill-rule:nonzero;stroke:none"
         d="m 862.395,133.125 c 0,7.703 -5.903,14.504 -14.907,14.504 -3.394,0 -5.293,-0.402 -6.695,-1.106 -0.898,-0.402 -1.191,-0.996 -1.391,-1.796 -0.507,-3.094 -0.797,-8.204 -0.703,-17.293 0,-9.407 0.293,-9.707 0.703,-10 0.493,-0.207 1.703,-0.305 3.188,-0.305 7.808,0 12.5,1.094 15.703,4.902 2.398,2.903 4.102,6.797 4.102,10.996 l 0,0.098 z m -39.399,16.199 c -0.098,0.305 0.102,0.5 0.395,0.703 5.214,0.102 9.8,0.102 14.097,0.5 4.614,0.301 7.309,0.403 10,0.403 6.02,0 12.207,-0.801 17.407,-4.504 4.707,-3.301 7.109,-8.203 7.109,-12.996 0,-7.903 -6.801,-12.602 -10.609,-14.809 -0.602,-0.293 -0.899,-0.801 -0.704,-1.492 0.508,-2.102 2.602,-7.996 6.899,-14.602 4.605,-7.0973 9.605,-12.2067 18.101,-16.2965 0.997,-0.5078 1.094,-0.9102 0.997,-1.4063 -0.094,-0.8984 -0.489,-1.8945 -0.704,-1.8945 -8.882,0.8984 -15.293,3.8945 -20.996,9.1992 -4.195,4.1016 -7.285,9.6951 -10.703,16.1991 -2.281,4.602 -3.394,5.5 -9.59,5.5 -2.91,0 -4.004,-0.098 -4.8,-0.305 -0.61,-0.195 -1.29,-0.703 -1.29,-1.492 0,-7.605 0.094,-13.5076 0.387,-19.3044 0.102,-1.4961 0.512,-2.2969 0.996,-2.5977 1.02,-0.9961 5.41,-1.6055 7.715,-2.1992 0,-0.4961 -0.508,-2.207 -0.699,-2.6094 -0.102,-0.1914 -0.41,-0.1914 -1.406,-0.1914 -1.094,0 -9.297,0.0977 -13.403,0.0977 -3.59,0 -5.507,-0.293 -6.504,-0.293 -1.289,0 -1.503,0 -1.597,0.1953 -0.489,0.4961 -0.586,2.3047 -0.586,2.8984 1.988,0.4024 5,0.9961 5.68,2.4024 1.117,1.6015 1.308,9.6993 1.308,21.7973 l 0,11.796 c 0,5.801 -0.098,13.008 -0.191,17.801 -0.102,3.11 -0.61,3.606 -7.012,5.207 l -0.297,2.293" /><path
         id="path38"
         style="fill:#ffffff;fill-opacity:1;fill-rule:nonzero;stroke:none"
         d="m 923.508,119.824 c 4.488,0 7.887,0.11 10.387,0.305 6,0.398 6.503,0.801 7.793,6.695 0.414,0.305 2.714,0.5 3.207,0.403 -0.2,-2.903 -0.801,-7.5 -0.801,-10.594 0.094,-3.41 0.41,-6.203 0.703,-9.106 -0.805,-0.203 -1.606,-0.3 -2.309,-0.3 -0.484,-0.098 -0.679,0.207 -0.894,0.593 -0.395,1.106 -0.903,2.707 -1.196,3.907 -0.601,2.699 -1.793,3.593 -5.796,3.898 -2.207,0.203 -5.508,0.203 -10.61,0.203 -5,0 -5.996,-0.105 -6.597,-0.203 -0.391,-0.098 -0.707,-0.195 -1,-0.598 -0.29,-0.601 -0.899,-4.097 -0.899,-12.3 0,-7.2973 0,-10.0004 0.996,-11.6059 1.406,-1.8945 4.903,-2.3906 13.11,-2.3906 11.699,0 17.3,1.0937 20.386,11.6995 0.41,0.097 1.407,0 2.407,-0.11 0.308,-0.191 0.308,-0.293 0.308,-0.7888 -0.215,-4.5976 -1.812,-11.0078 -3.101,-13.9062 -0.508,-0.5977 -0.801,-0.8008 -1.309,-0.8008 -0.688,0 -1.391,0 -4.688,0.1094 -3.007,0.0937 -10,0.1953 -18.3,0.1953 -8.008,0 -15.903,-0.4023 -23.91,-0.7031 -0.196,0.1054 -0.29,2.207 -0.196,3.0078 0,0.1953 0.293,0.3867 0.395,0.3867 4.605,0.8008 5,1.5039 5.094,3.0078 0.214,1.4961 0.707,7.9024 0.707,18.0979 l 0,17.304 c 0,13.301 -0.586,17.696 -0.707,18.301 -0.094,0.598 -0.293,1.094 -1.29,1.297 -0.996,0.402 -2.91,0.695 -5.293,1.301 -0.117,0.098 -0.117,0.098 -0.117,0.398 l 0.215,2.297 c 0,0.403 0,0.496 0.488,0.496 l 3.497,0 c 3.109,0 6.917,-0.191 13.007,-0.293 l 9.707,0 c 6.094,0 13.403,0.5 18.403,0.598 1.289,0 1.89,-0.195 2.398,-0.496 0.902,-0.598 0.902,-0.598 0.488,-2.402 -0.796,-4.399 -0.894,-10.2 -0.894,-12.793 -2.602,0 -2.988,0.293 -3.109,0.894 -1.383,7.199 -2.086,10.805 -9.879,10.805 l -6.914,0 c -5.903,0 -9.204,-0.207 -10.293,-0.512 -1.309,-0.398 -1.504,-1.394 -1.504,-3.687 0,-7.004 0.093,-14.004 0.195,-21.008 0,-0.899 0.602,-1.602 1.309,-1.602 l 6.406,0" /><path
         id="path40"
         style="fill:#ffffff;fill-opacity:1;fill-rule:nonzero;stroke:none"
         d="m 969.387,150.43 c 4.605,-0.203 6.797,-0.403 13.906,-0.403 0.586,0 1.094,-0.093 1.285,-0.3 0.41,-0.301 0.902,-1.106 1.215,-1.797 0.699,-1.297 4.195,-5.899 6.602,-8.106 5.996,-6.094 20.585,-20.597 40.485,-39.394 0.1,3.191 0.2,12.199 0.2,19.597 0,10.403 -0.1,15.801 -0.49,20.903 -0.2,1.699 -0.41,4.199 -2.6,4.898 -1.11,0.402 -3.81,0.695 -5.9,0.899 -0.31,0.097 -0.51,0.199 -0.51,0.5 l -0.19,2.8 c 3.79,0 7.6,0 11.29,0 3.9,0 7.91,0.293 11.01,0.403 0.49,0 0.8,-0.203 0.9,-0.496 l 0.59,-2.114 c -3.6,-0.789 -5,-1.187 -6.6,-2.195 -1.9,-1.094 -2.5,-4.297 -2.99,-17.898 -0.2,-8.997 -0.31,-15.5 -0.31,-28.8989 0,-6.3945 0.31,-12.3047 0.31,-14.0039 -0.1,-0.5976 -0.71,-1.0937 -2.01,-1.6015 -0.49,-0.1954 -0.9,-0.1954 -1.39,0.5078 -5.9,8.7031 -15.2,18.0935 -25.7,28.4965 -8.3,8.3 -16.217,16.101 -24.396,24.296 -0.317,-5.593 -0.508,-12.695 -0.508,-18.3 0,-9.09 0,-22.598 1.187,-26.3988 0.801,-2.293 3.911,-3.0937 8.008,-3.8945 l 0.703,-2.4024 c 0.102,-0.3007 -0.504,-0.8007 -0.796,-0.8007 -4.204,0 -8.594,0.4023 -12.7,0.4023 -3.496,0 -6.504,-0.3047 -8.203,-0.3047 -0.191,1.0039 -0.508,2 -0.801,2.8047 6.289,1.6953 6.704,2.6914 7.207,5.9922 0.293,2.5 1.196,11.6989 1.196,25.8049 l 0,11.101 c 0,10.301 -0.199,12 -1.797,13.496 -1.606,1.7 -3.203,2.61 -7.402,3.106 -0.61,0.195 -0.801,0.305 -0.801,0.691 l 0,2.61" /><path
         id="path42"
         style="fill:#ffffff;fill-opacity:1;fill-rule:nonzero;stroke:none"
         d="m 2.01562,29.6094 c 0.28516,0.3515 0.35157,0.4179 0.62891,0.3515 2.24219,-0.1367 5.46485,-0.2031 6.44141,-0.1367 1.67966,0 3.29296,0 4.83596,-0.0664 0.2109,0.0664 0.2109,-0.1484 0.1367,-0.7031 L 13.8477,27.793 12.168,27.3047 c -0.5625,-0.1485 -0.6992,-0.418 -0.4219,-1.1914 1.6133,-4.336 5.3945,-13.1641 7.1406,-16.72658 0.3516,-0.83984 0.6289,-1.125 0.8399,-0.98828 1.8203,3.57426 6.4414,15.19536 7.2812,18.48826 0.0742,0.418 -0.0703,0.418 -1.0508,0.4883 L 24,27.5117 c -0.2812,0 -0.3516,0.2813 -0.2812,0.5625 0.4218,1.6836 0.5585,1.8164 1.1874,1.8164 0.8399,0 3.5704,-0.0664 5.254,-0.0664 1.6093,0 3.1484,0.0664 3.707,0.0664 0.4922,0 0.6289,-0.0664 0.7734,-0.2812 0.0664,-0.3438 0.1406,-0.625 0.2071,-1.6016 0,-0.2148 -0.0665,-0.2812 -0.3516,-0.3516 l -0.8399,0 c -2.4453,0 -2.9374,-1.4726 -4.5507,-4.621 C 27.918,20.4375 22.9492,9.31641 20.7773,4.13281 20.5664,3.64062 19.168,1.19141 18.8203,0.488281 18.6094,0.144531 18.4688,0 17.8359,0 16.9297,0 16.5781,0.144531 16.4414,0.421875 16.3672,0.636719 15.8789,1.54297 14.7617,4.41406 10.8398,14.4258 7.61719,21.4258 6.28906,24.2188 c -1.25781,2.5195 -1.95703,3.2226 -4.48437,3.6406 -0.41797,0 -0.55469,0.2851 -0.48438,0.5703 l 0.69531,1.1797" /><path
         id="path44"
         style="fill:#ffffff;fill-opacity:1;fill-rule:nonzero;stroke:none"
         d="m 45.9062,3.50781 c 1.1915,0 1.8907,0.34766 2.1719,1.39453 0.1407,0.63282 0.3477,2.16797 0.3477,7.70316 l 0,7.0742 c 0,2.8594 0,4.4687 -0.0664,5.6641 -0.211,1.8124 -0.9805,2.2343 -4.4805,2.2343 -0.1445,0 -0.3516,0.2149 -0.3516,0.3516 0,0.3515 0.2813,1.2578 0.418,1.543 0.1406,0.3515 0.2813,0.4179 1.0508,0.4179 4.0625,0 5.2539,-0.0664 7,-0.0664 2.4531,0 5.4609,0.0664 6.0234,0.0664 0.418,0 0.836,-0.0664 0.9063,-0.3476 l 0.1406,-1.6836 c -4.2656,-0.625 -4.6172,-0.9727 -4.7617,-1.6094 -0.207,-0.8398 -0.3438,-2.5195 -0.3438,-6.9258 l 0,-6.4414 c 0,-3.49608 0.1368,-6.23436 0.4883,-8.18749 0.1406,-0.83984 0.5625,-0.98437 3.8477,-1.33593 0.0703,-0.20704 0.2109,-1.53516 0.1406,-1.95313 0,-0.28125 -0.1406,-0.35156 -0.6992,-0.35156 C 54.4492,1.125 52.3477,1.125 50.25,1.125 46.8906,1.05469 44.6484,0.984375 44.1562,0.984375 c -0.2773,0 -0.4882,0.207035 -0.5585,0.625005 L 43.457,3.15234 c 0,0.14063 0,0.28516 0.1407,0.28516 l 2.3085,0.07031" /><path
         id="path46"
         style="fill:#ffffff;fill-opacity:1;fill-rule:nonzero;stroke:none"
         d="m 95.6797,16.0352 c 0,3.914 -1.543,7.4218 -4.4102,9.4414 -2.5937,1.8984 -5.6015,2.3164 -7.4883,2.3164 -2.0351,0 -3.3632,-0.418 -3.8554,-0.7032 -0.3516,-0.1367 -0.418,-0.4179 -0.4883,-0.8398 -0.1406,-1.3281 -0.2813,-5.1758 -0.2813,-9.2383 0,-6.1601 0.2813,-10.78123 0.7032,-12.53123 0.0664,-0.34766 0.2109,-0.48828 0.6289,-0.70313 0.9101,-0.33984 2.1679,-0.41796 3.3594,-0.41796 1.539,0 3.9882,0.41796 6.4414,1.75781 3.5664,1.95312 5.3906,6.30081 5.3906,10.85161 l 0,0.0664 z M 69.918,29.4727 c 0,0.2851 0.1406,0.4179 0.2812,0.4179 2.1016,0 4.1289,0 7.0664,0.0703 3.0821,0.0664 4.6914,0.2149 7.0703,0.2149 2.9414,0 8.8907,-0.418 13.0235,-4.0625 3.2886,-2.9375 4.8986,-6.5821 4.8986,-10.5 0,-2.8008 -1.121,-6.58205 -4.34,-9.51955 C 94.7656,3.29297 92.5312,2.38281 90.1484,1.67969 88.2578,1.125 85.9492,0.984375 83.0781,0.984375 c -2.3789,0 -6.789,0.140625 -7.8398,0.140625 -2.2422,0 -4.3399,-0.07031 -4.6914,-0.07031 -0.211,0 -0.418,0 -0.418,0.07031 L 69.918,3.15234 c 3.0117,0.625 3.289,1.19532 3.3593,2.10157 0.2813,2.65625 0.2813,10.07809 0.2813,15.60549 0,4.1289 -0.0742,4.9687 -0.1406,5.457 -0.1407,0.5703 -0.7696,0.9883 -3.0118,1.3398 -0.207,0 -0.3476,0.2032 -0.4218,1.1133 l -0.0664,0.7032" /><path
         id="path48"
         style="fill:#ffffff;fill-opacity:1;fill-rule:nonzero;stroke:none"
         d="m 174.07,12.2578 c 0.282,0 1.539,-0.3555 1.891,-0.5703 0.277,-0.2695 0.277,-0.4883 0.211,-0.7578 -0.84,-2.87111 -1.61,-5.89064 -2.102,-8.89845 -0.14,-0.69141 -0.629,-0.97656 -1.187,-1.046875 -0.699,-0.066406 -1.473,-0.066406 -4.41,-0.066406 -2.871,0 -6.301,0.207031 -18.129,0.207031 -3.782,0 -7.207,-0.355469 -8.192,-0.421875 -0.769,-0.066406 -1.191,-0.066406 -1.332,-0.066406 -0.211,0.28125 -0.629,1.746091 -0.554,2.167971 3.425,0.41797 5.179,1.05078 5.734,3.15234 0.285,0.97656 0.492,3.5625 0.492,10.70317 l 0,14.3554 c 0,5.9492 -0.14,9.7266 -0.347,11.2696 -0.211,1.6093 -0.774,1.8867 -5.747,1.8164 -0.207,0 -0.418,0.4179 -0.277,0.8398 l 0.563,1.2578 c 0.07,0.3555 0.136,0.3555 0.277,0.3555 2.101,0 4.273,-0.0703 6.512,0 3.566,0.0664 7.277,0.2812 10.922,0.418 0.277,-0.2071 0.488,-1.543 0.488,-2.0977 -4.199,-0.4883 -5.879,-0.8438 -6.231,-3.7148 -0.211,-2.0274 -0.422,-6.6485 -0.347,-12.3125 l 0.066,-8.543 c 0.07,-11.06642 0.145,-13.23439 0.211,-14.49611 0.07,-0.97265 0.488,-1.53125 1.328,-1.74609 1.192,-0.42188 3.36,-0.55469 6.516,-0.55469 4.617,0 9.094,0.13281 11.406,3.71094 0.77,1.17969 1.332,2.51563 1.82,4.68355 0.071,0.2852 0.141,0.3555 0.352,0.3555 l 0.066,0" /><path
         id="path50"
         style="fill:#ffffff;fill-opacity:1;fill-rule:nonzero;stroke:none"
         d="m 200.113,0.144531 c -3.359,0 -6.859,0.910159 -9.027,2.941409 -2.731,2.51953 -3.293,6.15234 -3.359,9.23826 0,2.4492 0,4.7539 0.132,8.2617 0.145,3.6329 0.075,5.2422 -0.132,6.1524 -0.145,0.6367 -1.262,0.9179 -2.946,1.1211 -0.136,0.0703 -0.136,0.2148 -0.136,1.5429 0,0.4219 0.21,0.4883 0.839,0.4883 1.328,0 4.477,-0.0664 5.528,-0.0664 2.031,0 3.429,0.2031 7.211,0.2031 0.277,0 0.351,-0.1367 0.277,-0.8398 -0.066,-1.043 -0.211,-1.1133 -0.555,-1.1797 -2.664,-0.4297 -3.781,-0.8516 -4.062,-2.5976 -0.211,-1.6797 -0.488,-4.8946 -0.488,-13.086 0,-3.50779 1.191,-5.60545 2.937,-7.00389 1.613,-1.25781 3.641,-1.67969 6.023,-1.67969 3.426,0 5.598,1.89454 6.575,3.15626 1.468,1.88671 1.89,5.31252 1.89,9.58982 0,3.711 -0.066,7.5586 -0.422,9.7969 -0.207,1.0508 -0.906,1.1914 -4.476,1.3945 -0.207,0 -0.418,0.3516 -0.352,0.2149 0,0.6367 0.352,1.5429 0.629,1.8164 0.145,0.2148 0.356,0.3515 0.633,0.3515 0.84,0 4.34,-0.0703 5.672,-0.0703 1.398,0 3.781,0.1367 5.176,0.1367 0.211,0 0.285,-0.1367 0.285,-0.7617 -0.285,-0.9844 -0.422,-1.4062 -0.629,-1.4726 -0.633,-0.0664 -1.754,-0.418 -2.176,-0.5586 -0.277,-0.1446 -0.555,-0.418 -0.695,-1.0508 -0.145,-0.8398 -0.488,-3.293 -0.699,-10.1484 -0.211,-5.1836 -0.629,-8.33208 -2.871,-11.13286 -2.594,-3.07812 -7.141,-4.757809 -10.715,-4.757809 l -0.067,0" /><path
         id="path52"
         style="fill:#ffffff;fill-opacity:1;fill-rule:nonzero;stroke:none"
         d="m 240.227,1.33984 c 0,-0.14843 -0.137,-0.355465 -0.348,-0.355465 -2.176,0 -4.484,0.140625 -6.582,0.140625 -1.473,0 -3.359,-0.140625 -4.27,-0.140625 l -0.558,1.750005 c 0,0.07031 0.066,0.20312 0.343,0.28124 2.528,0.5586 2.946,1.1836 3.157,2.66016 0.211,1.1875 0.629,4.33592 0.629,8.60942 l 0,7.5625 c 0,3.0039 -0.141,3.9804 -0.563,4.5468 -0.418,0.8399 -0.98,1.1172 -3.777,1.5352 -0.352,0.0781 -0.492,0.2148 -0.492,0.5664 l 0,1.3281 c 0,0.2031 0.07,0.2813 0.347,0.2031 2.594,-0.1367 3.645,-0.2031 7.91,-0.1367 0.7,0 1.122,-0.1328 1.262,-0.5547 0.211,-0.6367 1.192,-1.8242 2.731,-3.5078 2.382,-2.5859 7.98,-8.5312 16.172,-16.37498 0.277,3.77738 0.351,12.46098 0.066,15.95708 -0.207,1.746 -0.555,1.8945 -3.918,2.3164 -0.348,0 -0.488,0.1328 -0.488,0.4179 l -0.071,1.7461 c 1.891,0 3.707,0 5.457,0 1.68,0 4.27,0.2149 6.024,0.1367 0.211,0 0.347,-0.0664 0.347,-0.2031 l 0.418,-1.6094 c -3.847,-1.2617 -4.199,-1.3984 -4.546,-6.6523 -0.207,-4.5508 -0.282,-8.3984 -0.282,-12.53125 0,-4.05859 0.141,-6.58203 0.141,-7.06641 0,-0.980465 -1.328,-1.542965 -2.168,-1.820309 -0.352,-0.144531 -0.563,0 -0.844,0.492188 -1.398,1.882811 -2.445,3.218751 -4.476,5.320311 -3.008,3.07422 -11.203,11.75777 -15.403,16.02347 -0.422,0.4218 -0.769,0.2851 -0.84,-0.1328 -0.07,-1.125 -0.21,-3.2227 -0.21,-6.2344 0,-4.0586 -0.067,-9.16799 0.488,-10.71096 0.422,-1.39453 2.101,-1.67968 4.133,-1.88672 l 0.211,-1.67578" /><path
         id="path54"
         style="fill:#ffffff;fill-opacity:1;fill-rule:nonzero;stroke:none"
         d="m 300.074,16.0352 c 0,3.914 -1.543,7.4218 -4.41,9.4414 -2.594,1.8984 -5.602,2.3164 -7.488,2.3164 -2.031,0 -3.364,-0.418 -3.856,-0.7032 -0.351,-0.1367 -0.418,-0.4179 -0.488,-0.8398 -0.141,-1.3281 -0.281,-5.1758 -0.281,-9.2383 0,-6.1601 0.281,-10.78123 0.703,-12.53123 0.066,-0.34766 0.211,-0.48828 0.629,-0.70313 0.906,-0.33984 2.168,-0.41796 3.359,-0.41796 1.539,0 3.988,0.41796 6.442,1.75781 3.57,1.95312 5.39,6.30081 5.39,10.85161 l 0,0.0664 z m -25.762,13.4375 c 0,0.2851 0.141,0.4179 0.282,0.4179 2.101,0 4.129,0 7.066,0.0703 3.082,0.0664 4.692,0.2149 7.07,0.2149 2.942,0 8.891,-0.418 13.024,-4.0625 3.289,-2.9375 4.894,-6.5821 4.894,-10.5 0,-2.8008 -1.117,-6.58205 -4.336,-9.51955 -3.152,-2.80078 -5.386,-3.71094 -7.773,-4.41406 -1.887,-0.55469 -4.195,-0.695315 -7.066,-0.695315 -2.379,0 -6.789,0.140625 -7.84,0.140625 -2.238,0 -4.34,-0.07031 -4.692,-0.07031 -0.211,0 -0.421,0 -0.421,0.07031 l -0.208,2.02734 c 3.012,0.625 3.29,1.19532 3.36,2.10157 0.281,2.65625 0.281,10.07809 0.281,15.60549 0,4.1289 -0.07,4.9687 -0.141,5.457 -0.14,0.5703 -0.773,0.9883 -3.011,1.3398 -0.207,0 -0.348,0.2032 -0.422,1.1133 l -0.067,0.7032" /><path
         id="path56"
         style="fill:#ffffff;fill-opacity:1;fill-rule:nonzero;stroke:none"
         d="m 340.395,8.89453 c 0,-3.64062 -1.961,-5.87891 -4.481,-7.07031 -2.519,-1.121095 -6.09,-1.54297 -7.91,-1.54297 -2.031,0 -4.899,0.355469 -6.512,0.636719 -0.906,0.136721 -0.98,0.066406 -2.027,-0.566407 C 319.254,0.0664062 319.043,0 318.414,0 c -0.211,0 -0.633,0.351562 -0.633,0.703125 -0.207,3.496095 -0.484,5.597655 -0.906,9.171875 0.137,0.2031 0.98,0.418 1.469,0.418 0.351,0 0.562,-0.1368 0.699,-0.48831 1.262,-4.6211 5.531,-7.35547 9.379,-7.35547 3.711,0 6.582,1.82812 6.512,5.1875 0,3.14448 -4.129,4.82418 -7.489,5.94918 -3.152,1.1211 -6.16,2.586 -7.562,4.1953 -0.977,1.125 -1.746,2.6563 -1.746,4.9727 0,3.293 1.957,5.3906 3.988,6.3672 2.098,1.0547 5.039,1.543 7.559,1.543 1.468,0 3.429,-0.1368 5.039,-0.4219 0.629,-0.1367 0.98,-0.1367 1.191,0.2851 0.066,0.4883 0.207,0.625 0.418,0.5586 1.754,-0.1406 1.82,-0.2187 1.82,-0.3554 -0.347,-1.543 0.071,-5.7422 0.422,-8.0469 l -1.469,-0.7695 c -0.21,-0.0664 -0.351,0 -0.488,0.4218 -0.562,1.8125 -1.336,3.2891 -2.453,4.2657 -1.191,1.125 -3.148,1.8945 -5.602,1.8945 -3.148,0 -5.386,-2.0313 -5.386,-4.2773 0,-3.1446 3.008,-4.5391 6.859,-5.8008 3.426,-1.1211 6.367,-2.4492 7.699,-3.6446 2.032,-1.6757 2.661,-3.5039 2.661,-5.80856 l 0,-0.07031" /><path
         id="path58"
         style="fill:#ffffff;fill-opacity:1;fill-rule:nonzero;stroke:none"
         d="m 387.066,2.9375 c 1.118,0.14844 3.008,0.42188 4.055,0.57031 1.824,0.34766 2.731,0.83985 3.012,2.3711 0.14,0.98437 0.629,5.74219 0.629,15.82029 l 0,7.1485 c 0,12.6679 -0.071,15.1171 -0.348,15.1171 l -5.668,0 c -6.582,0 -9.664,-1.121 -10.223,-1.4765 -0.843,-0.625 -1.332,-1.8828 -2.312,-4.7539 0,-0.2149 -0.348,-0.2149 -0.629,-0.0664 -0.559,0.2695 -1.539,1.1875 -1.75,1.3945 0.98,2.0313 2.379,5.1758 3.988,10.4297 0.282,0.0664 0.774,0 1.336,-0.1367 0.489,-0.1446 0.555,-0.2149 0.629,-0.4883 0,-1.2617 0.137,-1.8242 0.629,-1.9649 0.559,-0.1367 1.606,-0.2148 3.219,-0.2812 2.097,-0.0664 5.461,-0.0664 11.969,-0.0664 7.628,0 13.507,0 17.574,0.2109 2.027,0.0703 3.215,0.2071 3.918,0.4219 0.422,0.1367 0.84,0.6953 1.261,1.9531 0.067,0.2852 0.137,0.2852 0.344,0.2852 0.356,0 1.262,-0.2852 1.824,-0.6367 0.141,-0.0664 0.141,-0.3438 0,-0.9063 -1.402,-3.6445 -1.468,-5.3242 -1.824,-9.5898 0,-0.3555 -0.207,-0.5586 -0.765,-0.5586 -0.418,0 -0.914,0.0703 -1.258,0.1367 -0.211,0.0664 -0.352,0.2812 -0.352,0.4219 0,0.5625 0.141,3.0078 0.141,3.6406 0,0.4883 -0.281,1.043 -1.121,1.3281 -0.633,0.2852 -3.992,0.7031 -8.961,0.7031 l -4.551,0 c -0.633,0 -0.91,-0.4179 -0.977,-1.8242 0,-1.1836 -0.21,-4.6211 -0.21,-13.9961 l 0,-7.0039 c 0,-10.0781 0.21,-13.08201 0.488,-14.34372 0.211,-1.19141 0.699,-2.10157 1.539,-2.51954 1.258,-0.70312 4.414,-1.125 6.019,-1.26172 0.418,0 0.493,-0.07812 0.418,-0.28124 l -0.277,-1.39454 c -0.066,-0.28515 -0.141,-0.421871 -0.629,-0.421871 -0.84,0 -6.859,0.207031 -10.289,0.207031 -3.641,0 -9.168,-0.285156 -9.73,-0.285156 -0.563,0 -0.84,0.214846 -0.911,0.566406 l -0.207,1.53125" /><path
         id="path60"
         style="fill:#ffffff;fill-opacity:1;fill-rule:nonzero;stroke:none"
         d="m 427.734,21.1406 c 0,3.5 -0.136,5.1094 -0.277,5.5313 -0.145,0.3476 -0.352,0.4843 -3.645,0.9843 l 0.075,2.0313 c 0.066,0.1367 0.066,0.2031 0.277,0.2031 l 1.891,0 c 1.402,0 3.433,-0.0664 7.07,-0.0664 4.902,0 9.313,0.2031 13.441,0.2031 0.629,0 0.977,0 1.188,-0.2695 0.141,-0.1484 0.211,-0.2851 0.074,-1.125 -0.285,-2.1016 -0.351,-4.4844 -0.285,-5.6719 0,-0.207 -0.207,-0.2773 -0.695,-0.2773 -1.403,0 -1.403,0.2773 -1.539,0.625 -0.774,3.5078 -1.262,4.2031 -6.516,4.2031 -2.731,0 -4.125,-0.1367 -4.688,-0.207 -0.558,-0.0703 -0.769,-0.418 -0.769,-0.9883 0,-2.9375 0.066,-5.9453 0.066,-8.6719 0,-0.4179 0.352,-0.7695 0.563,-0.7695 l 3.082,0 c 2.098,0 3.008,-0.0664 4.687,0.0664 1.684,0.0703 2.032,0.5586 2.59,2.8711 0.071,0.207 0.422,0.2852 1.684,0.2852 0.347,0 0.418,-0.1485 0.418,-0.2852 -0.141,-0.9844 -0.352,-3.4258 -0.352,-4.832 0,-1.8828 0.074,-2.6563 0.211,-4.1289 0,-0.1368 -0.488,-0.2071 -2.027,-0.3438 -0.141,0.4883 -0.492,1.6016 -0.703,2.0977 -0.211,0.9804 -0.489,1.3984 -1.821,1.5351 -1.75,0.1446 -2.867,0.1446 -5.25,0.1446 -1.89,0 -2.379,-0.0743 -2.73,-0.2149 -0.277,-0.1367 -0.418,-0.4844 -0.418,-6.58202 0,-1.60937 0.141,-2.51562 0.559,-3.21094 0.21,-0.42187 1.05,-0.83984 5.043,-0.83984 5.109,0 7.488,0.76172 8.816,5.10938 0.074,0.20312 0.211,0.26953 0.562,0.26953 0.489,0 1.192,-0.13282 1.329,-0.13282 0.14,0 0.281,-0.07031 0.281,-0.49218 -0.207,-2.8711 -0.84,-5.59375 -1.332,-6.92969 -0.137,-0.20703 -0.489,-0.277345 -0.699,-0.277345 -1.821,0 -6.926,0.140625 -11.336,0.140625 -4.204,0 -8.051,-0.207031 -12.536,-0.207031 -0.136,0.136721 -0.136,1.531251 -0.136,1.816411 0.066,0.20312 0.136,0.28124 0.347,0.28124 2.801,0.49219 3.153,0.625 3.223,1.60157 0.066,0.5664 0.277,3.29297 0.277,7.07031 l 0,9.4531" /><path
         id="path62"
         style="fill:#ffffff;fill-opacity:1;fill-rule:nonzero;stroke:none"
         d="m 460.562,3.08594 c 2.59,0.35156 3.364,0.55468 3.641,1.26172 0.211,0.55468 0.422,1.46093 0.422,5.66404 l 0,9.8711 c 0,2.4531 0.066,4.5508 -0.145,6.0938 -0.207,1.3281 -0.628,1.6015 -3.777,1.8828 -0.141,0 -0.351,0.2148 -0.277,0.4922 l 0.344,1.539 c 2.105,0 4.207,0 6.304,0 3.922,0 6.024,0.1367 6.301,0.0703 0.352,0 0.488,-0.0703 0.563,-0.2031 0.066,-0.2851 0.207,-1.4062 0.132,-1.6133 -1.535,-0.3515 -2.445,-0.6328 -3.008,-0.8398 -0.835,-0.2852 -0.98,-1.1211 -0.98,-4.9024 l 0,-4.9687 c 0,-0.5586 0.07,-0.9102 0.352,-0.9102 0.839,0 5.527,3.9141 6.718,5.0391 2.805,2.4531 3.856,3.5742 5.391,4.9687 0.562,0.4883 0.145,0.7735 -2.449,1.125 l -0.071,1.9532 c 0,0.2148 0.071,0.2148 0.422,0.2148 4.828,0.0664 10.782,0.2813 11.547,0.2813 0.141,0 0.281,-0.0782 0.281,-0.418 -0.14,-1.1914 -0.347,-1.6133 -0.558,-1.6797 -2.942,-0.6328 -4.063,-1.1211 -5.953,-2.5312 -0.907,-0.6914 -3.782,-2.7227 -9.098,-7.0586 -0.559,-0.4961 -0.559,-0.7735 -0.418,-0.918 3.566,-4.1328 7.559,-7.98047 10.078,-10.42969 1.891,-1.8164 3.149,-2.79297 4.551,-3.29297 1.191,-0.26953 2.098,-0.48437 2.586,-0.625 0.422,-0.13672 0.562,-0.34765 0.492,-0.63281 -0.348,-0.55469 -0.699,-1.11328 -1.047,-1.601561 -0.703,0 -3.988,0.207031 -6.582,0.207031 -2.308,0 -4.687,0 -7.07,0 l 0,1.32422 c 0,0.42187 0.066,0.5664 0.281,0.63672 0.488,0.13672 1.328,0.27344 1.817,0.42187 0.628,0.20313 0.562,0.76953 -0.344,1.60938 -2.453,2.65625 -6.235,6.36721 -8.473,8.67191 -0.699,0.7031 -1.262,1.1211 -1.89,1.1211 -0.418,0 -0.563,-0.2032 -0.563,-0.7696 l 0,-3.2109 c 0,-6.37892 0.285,-7.15236 1.402,-7.35548 0.418,-0.06641 1.68,-0.21484 2.309,-0.35156 0.277,-0.07032 0.422,-0.20704 0.352,-0.48828 l -0.282,-1.39454 c -0.136,-0.28515 -0.347,-0.355465 -0.91,-0.355465 -0.769,0.070315 -2.098,0.070315 -6.09,0.140625 -2.238,0 -5.531,-0.140625 -5.883,-0.140625 -0.343,0 -0.418,0.070315 -0.418,0.277345 l 0,1.82422" /><path
         id="path64"
         style="fill:#ffffff;fill-opacity:1;fill-rule:nonzero;stroke:none"
         d="m 515.238,1.33984 c 0,-0.14843 -0.144,-0.355465 -0.351,-0.355465 -2.168,0 -4.481,0.140625 -6.582,0.140625 -1.473,0 -3.36,-0.140625 -4.266,-0.140625 l -0.562,1.750005 c 0,0.07031 0.07,0.20312 0.347,0.28124 2.52,0.5586 2.938,1.1836 3.153,2.66016 0.207,1.1875 0.625,4.33592 0.625,8.60942 l 0,7.5625 c 0,3.0039 -0.137,3.9804 -0.555,4.5468 -0.422,0.8399 -0.977,1.1172 -3.781,1.5352 -0.352,0.0781 -0.493,0.2148 -0.493,0.5664 l 0,1.3281 c 0,0.2031 0.075,0.2813 0.352,0.2031 2.594,-0.1367 3.637,-0.2031 7.914,-0.1367 0.695,0 1.113,-0.1328 1.262,-0.5547 0.203,-0.6367 1.179,-1.8242 2.722,-3.5078 2.383,-2.5859 7.981,-8.5312 16.172,-16.37498 0.285,3.77738 0.352,12.46098 0.071,15.95708 -0.207,1.746 -0.559,1.8945 -3.918,2.3164 -0.352,0 -0.496,0.1328 -0.496,0.4179 l -0.071,1.7461 c 1.895,0 3.711,0 5.461,0 1.676,0 4.274,0.2149 6.028,0.1367 0.199,0 0.351,-0.0664 0.351,-0.2031 l 0.41,-1.6094 c -3.843,-1.2617 -4.195,-1.3984 -4.551,-6.6523 -0.21,-4.5508 -0.269,-8.3984 -0.269,-12.53125 0,-4.05859 0.137,-6.58203 0.137,-7.06641 0,-0.980465 -1.336,-1.542965 -2.176,-1.820309 -0.352,-0.144531 -0.555,0 -0.84,0.492188 -1.394,1.882811 -2.449,3.218751 -4.48,5.320311 -3.008,3.07422 -11.192,11.75777 -15.391,16.02347 -0.422,0.4218 -0.773,0.2851 -0.84,-0.1328 -0.078,-1.125 -0.215,-3.2227 -0.215,-6.2344 0,-4.0586 -0.07,-9.16799 0.489,-10.71096 0.417,-1.39453 2.097,-1.67968 4.128,-1.88672 l 0.215,-1.67578" /><path
         id="path66"
         style="fill:#ffffff;fill-opacity:1;fill-rule:nonzero;stroke:none"
         d="m 550.93,3.50781 c 1.187,0 1.89,0.34766 2.168,1.39453 0.132,0.63282 0.347,2.16797 0.347,7.70316 l 0,7.0742 c 0,2.8594 0,4.4687 -0.054,5.6641 -0.215,1.8124 -0.996,2.2343 -4.496,2.2343 -0.133,0 -0.348,0.2149 -0.348,0.3516 0,0.3515 0.293,1.2578 0.43,1.543 0.132,0.3515 0.269,0.4179 1.05,0.4179 4.043,0 5.239,-0.0664 6.993,-0.0664 2.445,0 5.468,0.0664 6.015,0.0664 0.434,0 0.844,-0.0664 0.918,-0.3476 l 0.141,-1.6836 c -4.282,-0.625 -4.629,-0.9727 -4.77,-1.6094 -0.191,-0.8398 -0.347,-2.5195 -0.347,-6.9258 l 0,-6.4414 c 0,-3.49608 0.156,-6.23436 0.488,-8.18749 0.152,-0.83984 0.562,-0.98437 3.863,-1.33593 0.063,-0.20704 0.195,-1.53516 0.141,-1.95313 0,-0.28125 -0.141,-0.35156 -0.703,-0.35156 -3.301,0.07031 -5.395,0.07031 -7.5,0.07031 -3.364,-0.07031 -5.586,-0.140625 -6.078,-0.140625 -0.293,0 -0.489,0.207035 -0.567,0.625005 l -0.137,1.54296 c 0,0.14063 0,0.28516 0.137,0.28516 l 2.309,0.07031" /><path
         id="path68"
         style="fill:#ffffff;fill-opacity:1;fill-rule:nonzero;stroke:none"
         d="m 597.766,8.89453 c 0,-3.64062 -1.954,-5.87891 -4.473,-7.07031 -2.523,-1.121095 -6.098,-1.54297 -7.91,-1.54297 -2.031,0 -4.903,0.355469 -6.528,0.636719 -0.894,0.136721 -0.972,0.066406 -2.007,-0.566407 C 576.633,0.0664062 576.418,0 575.793,0 c -0.219,0 -0.625,0.351562 -0.625,0.703125 -0.219,3.496095 -0.512,5.597655 -0.922,9.171875 0.141,0.2031 0.981,0.418 1.469,0.418 0.347,0 0.562,-0.1368 0.703,-0.48831 1.27,-4.6211 5.523,-7.35547 9.375,-7.35547 3.711,0 6.578,1.82812 6.519,5.1875 0,3.14448 -4.136,4.82418 -7.5,5.94918 -3.14,1.1211 -6.152,2.586 -7.554,4.1953 -0.981,1.125 -1.762,2.6563 -1.762,4.9727 0,3.293 1.977,5.3906 4.008,6.3672 2.09,1.0547 5.039,1.543 7.558,1.543 1.461,0 3.418,-0.1368 5.04,-0.4219 0.625,-0.1367 0.972,-0.1367 1.191,0.2851 0.059,0.4883 0.215,0.625 0.406,0.5586 1.762,-0.1406 1.821,-0.2187 1.821,-0.3554 -0.332,-1.543 0.078,-5.7422 0.425,-8.0469 l -1.465,-0.7695 c -0.21,-0.0664 -0.347,0 -0.488,0.4218 -0.562,1.8125 -1.324,3.2891 -2.461,4.2657 -1.187,1.125 -3.14,1.8945 -5.601,1.8945 -3.149,0 -5.371,-2.0313 -5.371,-4.2773 0,-3.1446 3.003,-4.5391 6.851,-5.8008 3.418,-1.1211 6.367,-2.4492 7.695,-3.6446 2.036,-1.6757 2.661,-3.5039 2.661,-5.80856 l 0,-0.07031" /><path
         id="path70"
         style="fill:#ffffff;fill-opacity:1;fill-rule:nonzero;stroke:none"
         d="m 608.684,3.08594 c 2.593,0.35156 3.359,0.55468 3.628,1.26172 0.215,0.55468 0.43,1.46093 0.43,5.66404 l 0,9.8711 c 0,2.4531 0.078,4.5508 -0.137,6.0938 -0.21,1.3281 -0.625,1.6015 -3.789,1.8828 -0.132,0 -0.347,0.2148 -0.269,0.4922 l 0.348,1.539 c 2.089,0 4.203,0 6.293,0 3.921,0 6.035,0.1367 6.304,0.0703 0.356,0 0.488,-0.0703 0.57,-0.2031 0.055,-0.2851 0.196,-1.4062 0.133,-1.6133 -1.543,-0.3515 -2.461,-0.6328 -3.007,-0.8398 -0.836,-0.2852 -0.973,-1.1211 -0.973,-4.9024 l 0,-4.9687 c 0,-0.5586 0.055,-0.9102 0.332,-0.9102 0.84,0 5.547,3.9141 6.734,5.0391 2.793,2.4531 3.852,3.5742 5.371,4.9687 0.571,0.4883 0.16,0.7735 -2.437,1.125 l -0.078,1.9532 c 0,0.2148 0.078,0.2148 0.425,0.2148 4.829,0.0664 10.786,0.2813 11.543,0.2813 0.137,0 0.293,-0.0782 0.293,-0.418 -0.156,-1.1914 -0.347,-1.6133 -0.562,-1.6797 -2.949,-0.6328 -4.066,-1.1211 -5.957,-2.5312 -0.899,-0.6914 -3.774,-2.7227 -9.106,-7.0586 -0.543,-0.4961 -0.543,-0.7735 -0.41,-0.918 3.575,-4.1328 7.563,-7.98047 10.078,-10.42969 1.899,-1.8164 3.149,-2.79297 4.551,-3.29297 1.196,-0.26953 2.094,-0.48437 2.602,-0.625 0.41,-0.13672 0.547,-0.34765 0.484,-0.63281 -0.348,-0.55469 -0.699,-1.11328 -1.055,-1.601561 -0.703,0 -3.98,0.207031 -6.582,0.207031 -2.3,0 -4.683,0 -7.07,0 l 0,1.32422 c 0,0.42187 0.078,0.5664 0.274,0.63672 0.492,0.13672 1.332,0.27344 1.835,0.42187 0.625,0.20313 0.547,0.76953 -0.347,1.60938 -2.461,2.65625 -6.235,6.36721 -8.481,8.67191 -0.703,0.7031 -1.265,1.1211 -1.89,1.1211 -0.41,0 -0.547,-0.2032 -0.547,-0.7696 l 0,-3.2109 c 0,-6.37892 0.269,-7.15236 1.387,-7.35548 0.425,-0.06641 1.675,-0.21484 2.3,-0.35156 0.293,-0.07032 0.434,-0.20704 0.356,-0.48828 L 621.98,1.33984 c -0.132,-0.28515 -0.347,-0.355465 -0.918,-0.355465 -0.757,0.070315 -2.085,0.070315 -6.074,0.140625 -2.246,0 -5.523,-0.140625 -5.879,-0.140625 -0.347,0 -0.425,0.070315 -0.425,0.277345 l 0,1.82422" /><path
         id="path72"
         style="fill:#ffffff;fill-opacity:1;fill-rule:nonzero;stroke:none"
         d="m 659.719,12.8125 c 2.09,0 4.336,0 6.992,0.0703 0.351,0 0.625,0.3477 0.43,0.7695 -1.621,4.7657 -2.739,7.5586 -3.871,10.6446 -1.524,-3.6446 -2.926,-7.0703 -4.332,-10.7813 -0.059,-0.3515 0.347,-0.7031 0.703,-0.7031 l 0.078,0 z m 5.449,17.9883 c 0.777,0 1.055,-0.1367 1.27,-0.6953 2.925,-7.8399 6.089,-16.1016 9.722,-23.80472 0.918,-1.88672 1.606,-2.72656 4.414,-3.21484 0.278,0 0.278,-0.14844 0.278,-0.77344 -0.137,-1.328125 -0.356,-1.394531 -0.762,-1.394531 -3.305,0.066406 -5.254,0.136721 -6.797,0.136721 -2.246,0 -4.414,-0.214846 -4.902,-0.214846 -0.137,0 -0.703,1.609376 -0.703,1.894536 1.89,0.55859 2.734,0.97656 2.734,1.61328 0,0.76953 -1.25,3.98046 -1.606,4.7539 -0.293,0.56641 -0.64,0.91014 -1.328,0.91014 -2.871,0.0664 -6.226,0.1445 -8.902,0 -0.766,0 -1.191,-0.42186 -1.524,-0.98045 -0.507,-1.05469 -1.195,-3.49609 -1.195,-4.12891 0,-0.625 0.41,-1.1914 2.656,-1.67968 0.356,-0.07032 0.415,-0.13672 0.415,-0.48828 0,-0.21485 -0.278,-1.25782 -0.415,-1.67969 C 655.09,1.125 652.434,1.125 651.16,1.125 c -0.68,0 -2.09,-0.07031 -2.359,-0.07031 -0.215,0 -0.781,0.97656 -0.781,1.67969 0,0.28124 0.078,0.48828 0.132,0.48828 2.676,0.63281 3.227,1.125 4.844,4.26562 2.578,5.46092 6.02,13.44922 8.676,19.60152 0.562,1.1914 0.84,2.0977 0.973,2.668 0.136,0.2695 0.293,0.418 0.57,0.5547 0.562,0.2852 1.187,0.4883 1.89,0.4883 l 0.063,0" /><path
         id="path74"
         style="fill:#ffffff;fill-opacity:1;fill-rule:nonzero;stroke:none"
         d="m 750.559,25.5586 c 3.711,0 8.062,-0.082 8.828,0.0664 0.625,0.0664 0.758,0.4219 0.758,2.5195 l 0,6.0157 c 0,4.4804 0,5.7421 -0.055,6.9336 -0.078,2.3828 -0.703,2.6562 -5.18,3.4257 -0.137,0.1367 0.195,1.9649 0.356,2.1016 2.515,0 4.961,-0.0664 7.476,-0.0664 0.844,0 2.387,0.0664 3.789,0.2109 1.465,0.1367 2.871,0.2071 3.227,0.2071 0.484,0 0.68,0 0.84,-0.2852 0.269,-0.5547 0.488,-1.3945 0.488,-1.7461 -3.93,-0.625 -4.633,-0.8398 -4.848,-3.1445 -0.054,-1.4766 -0.269,-6.375 -0.269,-10.9961 l 0,-12.5977 c 0,-6.3672 0.136,-8.68357 0.347,-11.68748 0.137,-1.89843 0.493,-2.45312 4.961,-2.875 0.161,-0.34765 -0.41,-2.23437 -0.839,-2.30078 -3.004,0 -6.012,0 -9.098,0 -3.906,0 -5.039,-0.21484 -5.586,-0.21484 -0.356,0 -0.566,0 -0.566,0.21484 l 0,2.01954 c 3.433,0.41796 4.332,0.91796 4.546,1.67968 0.278,0.98438 0.411,4.13282 0.411,10.08984 l 0,5.6641 c 0,0.5625 -0.133,1.1211 -0.333,1.3242 -0.425,0.2851 -0.996,0.3555 -8.691,0.3555 l -10.351,0 c -8.75,0 -9.942,-0.0704 -10.782,-0.2071 -0.972,-0.1484 -1.05,-0.6328 -1.05,-1.5429 0,-5.3907 0,-9.168 0.21,-12.32426 0.063,-2.375 0.215,-3.21485 0.625,-3.63282 0.43,-0.48828 0.981,-0.91015 4.336,-1.54296 0.493,-0.07032 0.649,-0.13672 0.649,-0.35157 0,-0.42187 0.054,-1.953121 -0.078,-2.101559 -2.383,0.070313 -6.86,0.355469 -10.16,0.355469 -3.629,-0.07031 -4.958,-0.285156 -5.25,-0.285156 -0.278,0 -0.332,0 -0.493,0.144531 -0.191,0.207035 -0.547,1.750005 -0.484,1.953125 3.785,0.91797 4.336,1.41016 4.551,3.44141 0.136,1.04297 0.293,3.5625 0.293,10.69919 l 0,12.8125 c 0,6.7891 -0.078,9.2422 -0.157,11.4883 -0.136,2.168 -0.414,2.6523 -4.828,3.2773 -0.054,0.2188 0.078,1.125 0.356,1.7618 0.078,0.2031 0.137,0.2031 0.43,0.2031 2.515,0 4.746,-0.0664 6.714,-0.0664 1.528,0 2.66,0 3.91,0.0664 1.129,0 2.379,0.2148 3.79,0.2812 0.132,-0.1367 0.269,-2.0976 0.054,-2.2461 -2.793,-0.3398 -3.844,-0.6914 -4.121,-2.371 -0.43,-2.168 -0.347,-5.9571 -0.347,-10.8516 0,-5.8086 0.078,-5.875 1.265,-5.875 l 20.356,0" /><path
         id="path76"
         style="fill:#ffffff;fill-opacity:1;fill-rule:nonzero;stroke:none"
         d="m 802.645,42.2188 c 0.351,0 0.839,-0.0782 0.917,-0.1485 0.626,-1.3281 1.118,-1.8164 2.583,-2.375 0.503,-0.2148 0.425,-1.9609 0,-2.1758 -1.68,-0.6953 -2.036,-1.5351 -2.524,-3.2109 -0.137,-0.2852 -1.949,-0.2852 -2.226,0.4883 -0.489,1.2578 -0.973,1.6093 -2.657,2.5859 -0.426,0.2149 -0.508,1.75 -0.078,1.9649 1.684,0.7695 1.953,0.9726 2.735,2.6562 0.058,0.1367 0.625,0.2149 1.195,0.2149 l 0.055,0 z M 795.52,28.3516 c -2.25,0 -4.282,-1.1172 -5.747,-2.875 -2.031,-2.4414 -2.656,-5.7969 -2.656,-9.168 0,-4.1211 1.391,-7.62501 3.559,-9.92969 2.246,-2.45313 5.039,-3.64453 7.5,-3.64453 3.711,0 8.047,3.98437 8.047,11.69142 0,3.9922 -0.703,7.625 -3.633,10.7109 -1.621,1.75 -3.852,3.2149 -7.016,3.2149 l -0.054,0 z m -4.629,13.789 c 0.425,0 0.703,-0.0703 0.781,-0.207 0.683,-1.125 0.973,-1.6797 2.516,-2.168 0.414,-0.0703 0.332,-1.8945 0,-2.0976 -1.485,-0.8438 -1.754,-1.3399 -2.516,-3.1563 -0.078,-0.4883 -1.621,-0.4179 -1.899,0 -0.703,1.3945 -1.328,2.0977 -2.593,2.3125 -0.356,0.0703 -0.762,1.6836 -0.215,2.168 1.402,0.9101 1.89,1.125 2.461,2.8711 0.136,0.1406 0.762,0.2773 1.402,0.2773 l 0.063,0 z m 6.011,-11.3398 c 8.618,0 15.825,-6.6524 15.825,-14.7656 0,-5.6055 -2.661,-9.58989 -5.586,-12.10942 -2.953,-2.66406 -7.286,-3.781249 -9.668,-3.781249 -5.118,0 -9.946,1.886719 -13.164,5.316409 -2.305,2.51562 -3.774,6.44136 -3.774,10.08596 0,4.0547 1.469,7.9101 4.961,10.9843 2.949,2.7344 7.149,4.2696 11.352,4.2696 l 0.054,0" /><path
         id="path78"
         style="fill:#ffffff;fill-opacity:1;fill-rule:nonzero;stroke:none"
         d="m 854.094,13.3008 c -1.328,-0.2031 -1.543,-0.4883 -1.543,-0.6953 -0.41,-4.27738 -0.41,-8.96488 -0.41,-10.00784 0,-0.77344 -0.215,-1.1211 -0.703,-1.47266 -0.352,-0.355469 -1.133,-0.355469 -2.168,-0.355469 -2.168,-0.066406 -4.497,-0.488281 -7.852,-0.488281 -6.02,0 -10.566,1.47656 -13.789,4.55469 -2.524,2.38281 -4.199,6.09376 -4.199,10.77736 0,4.4062 1.758,8.1875 4.414,10.5703 3.789,3.3594 9.801,4.6172 14.004,4.6172 1.738,0 4.121,-0.2735 5.254,-0.5586 1.035,-0.2813 1.328,-0.1367 1.738,0.7031 0,0.1406 0.078,0.1406 0.918,0 l 0.703,-0.2148 c 0.269,-0.0664 0.406,-0.2813 0.406,-0.8399 0.078,-2.2344 0.571,-5.457 0.781,-6.7148 0.137,-0.4922 0.137,-0.7735 -0.078,-0.9805 -0.132,-0.0781 -1.05,-0.3476 -1.597,-0.3476 l -0.161,0 c -0.132,0 -0.269,0.2695 -0.41,0.5546 -1.757,3.6446 -4.824,5.9493 -8.882,5.9493 -2.383,0 -4.844,-0.8399 -6.372,-2.168 -2.183,-1.75 -4.199,-5.3906 -4.199,-10.4297 0,-3.0117 0.766,-7.0039 3.906,-9.79687 2.739,-2.31641 6.172,-3.35937 8.047,-3.35937 1.41,0 2.871,0.55468 3.52,1.04296 0.762,0.5586 1.324,2.31641 1.324,4.97266 0,3.15232 -0.152,4.12892 -1.836,4.48442 -1.109,0.2031 -2.574,0.3476 -3.062,0.4882 -0.293,0.0664 -0.356,0.2813 -0.84,1.8125 0,0.3555 0.054,0.4922 0.347,0.4922 3.364,0 6.016,-0.207 8.325,-0.207 2.168,0 3.574,0.207 4.058,0.207 0.356,0 0.434,-0.1367 0.434,-0.4218 l -0.078,-2.168" /><path
         id="path80"
         style="fill:#ffffff;fill-opacity:1;fill-rule:nonzero;stroke:none"
         d="m 887.98,8.89453 c 0,-3.64062 -1.972,-5.87891 -4.496,-7.07031 -2.515,-1.121095 -6.089,-1.54297 -7.91,-1.54297 -2.027,0 -4.898,0.355469 -6.504,0.636719 -0.918,0.136721 -0.972,0.066406 -2.027,-0.566407 C 866.824,0.0664062 866.633,0 865.984,0 c -0.191,0 -0.625,0.351562 -0.625,0.703125 -0.214,3.496095 -0.488,5.597655 -0.918,9.171875 0.161,0.2031 0.997,0.418 1.489,0.418 0.347,0 0.547,-0.1368 0.703,-0.48831 1.25,-4.6211 5.523,-7.35547 9.375,-7.35547 3.711,0 6.582,1.82812 6.504,5.1875 0,3.14448 -4.121,4.82418 -7.485,5.94918 -3.164,1.1211 -6.172,2.586 -7.554,4.1953 -0.996,1.125 -1.758,2.6563 -1.758,4.9727 0,3.293 1.953,5.3906 3.98,6.3672 2.114,1.0547 5.039,1.543 7.563,1.543 1.48,0 3.433,-0.1368 5.039,-0.4219 0.641,-0.1367 0.996,-0.1367 1.187,0.2851 0.078,0.4883 0.215,0.625 0.434,0.5586 1.734,-0.1406 1.812,-0.2187 1.812,-0.3554 -0.347,-1.543 0.082,-5.7422 0.415,-8.0469 l -1.465,-0.7695 c -0.215,-0.0664 -0.356,0 -0.492,0.4218 -0.567,1.8125 -1.329,3.2891 -2.442,4.2657 -1.187,1.125 -3.16,1.8945 -5.601,1.8945 -3.149,0 -5.391,-2.0313 -5.391,-4.2773 0,-3.1446 3.008,-4.5391 6.851,-5.8008 3.442,-1.1211 6.372,-2.4492 7.7,-3.6446 2.031,-1.6757 2.675,-3.5039 2.675,-5.80856 l 0,-0.07031" /><path
         id="path82"
         style="fill:#ffffff;fill-opacity:1;fill-rule:nonzero;stroke:none"
         d="m 898.895,3.08594 c 2.582,0.35156 3.363,0.55468 3.632,1.26172 0.215,0.55468 0.411,1.46093 0.411,5.66404 l 0,9.8711 c 0,2.4531 0.082,4.5508 -0.133,6.0938 -0.2,1.3281 -0.625,1.6015 -3.774,1.8828 -0.136,0 -0.347,0.2148 -0.293,0.4922 l 0.356,1.539 c 2.105,0 4.199,0 6.304,0 3.926,0 6.02,0.1367 6.29,0.0703 0.355,0 0.507,-0.0703 0.57,-0.2031 0.078,-0.2851 0.215,-1.4062 0.137,-1.6133 -1.543,-0.3515 -2.446,-0.6328 -3.008,-0.8398 -0.84,-0.2852 -0.981,-1.1211 -0.981,-4.9024 l 0,-4.9687 c 0,-0.5586 0.078,-0.9102 0.356,-0.9102 0.84,0 5.523,3.9141 6.718,5.0391 2.79,2.4531 3.844,3.5742 5.387,4.9687 0.571,0.4883 0.141,0.7735 -2.437,1.125 l -0.078,1.9532 c 0,0.2148 0.078,0.2148 0.41,0.2148 4.843,0.0664 10.781,0.2813 11.558,0.2813 0.141,0 0.278,-0.0782 0.278,-0.418 -0.137,-1.1914 -0.356,-1.6133 -0.571,-1.6797 -2.925,-0.6328 -4.043,-1.1211 -5.933,-2.5312 -0.918,-0.6914 -3.789,-2.7227 -9.106,-7.0586 -0.562,-0.4961 -0.562,-0.7735 -0.426,-0.918 3.575,-4.1328 7.555,-7.98047 10.094,-10.42969 1.875,-1.8164 3.149,-2.79297 4.532,-3.29297 1.195,-0.26953 2.113,-0.48437 2.597,-0.625 0.434,-0.13672 0.57,-0.34765 0.488,-0.63281 -0.347,-0.55469 -0.703,-1.11328 -1.05,-1.601561 -0.688,0 -3.989,0.207031 -6.567,0.207031 -2.32,0 -4.707,0 -7.066,0 l 0,1.32422 c 0,0.42187 0.055,0.5664 0.269,0.63672 0.493,0.13672 1.329,0.27344 1.821,0.42187 0.625,0.20313 0.562,0.76953 -0.356,1.60938 -2.437,2.65625 -6.226,6.36721 -8.472,8.67191 -0.684,0.7031 -1.25,1.1211 -1.875,1.1211 -0.43,0 -0.571,-0.2032 -0.571,-0.7696 l 0,-3.2109 c 0,-6.37892 0.278,-7.15236 1.406,-7.35548 0.415,-0.06641 1.68,-0.21484 2.305,-0.35156 0.278,-0.07032 0.41,-0.20704 0.356,-0.48828 L 912.195,1.33984 C 912.043,1.05469 911.848,0.984375 911.277,0.984375 910.52,1.05469 909.172,1.05469 905.188,1.125 c -2.25,0 -5.532,-0.140625 -5.879,-0.140625 -0.356,0 -0.414,0.070315 -0.414,0.277345 l 0,1.82422" /><path
         id="path84"
         style="fill:#ffffff;fill-opacity:1;fill-rule:nonzero;stroke:none"
         d="m 953.562,28.3516 c -2.246,0 -4.253,-1.1172 -5.742,-2.875 -2.027,-2.4414 -2.652,-5.7969 -2.652,-9.168 0,-4.1211 1.402,-7.62501 3.57,-9.92969 2.246,-2.45313 5.039,-3.64453 7.485,-3.64453 3.711,0 8.062,3.98437 8.062,11.69142 0,3.9922 -0.699,7.625 -3.648,10.7109 -1.606,1.75 -3.852,3.2149 -6.992,3.2149 l -0.083,0 z m 1.411,2.4492 c 8.613,0 15.82,-6.6524 15.82,-14.7656 0,-5.6055 -2.656,-9.58989 -5.605,-12.10942 -2.93,-2.66406 -7.29,-3.781249 -9.653,-3.781249 -5.113,0 -9.937,1.886719 -13.164,5.316409 -2.32,2.51562 -3.785,6.44136 -3.785,10.08596 0,4.0547 1.465,7.9101 4.976,10.9843 2.93,2.7344 7.129,4.2696 11.333,4.2696 l 0.078,0" /><path
         id="path86"
         style="fill:#ffffff;fill-opacity:1;fill-rule:nonzero;stroke:none"
         d="m 985.203,19.6016 c 0,3.2187 0,5.1836 -0.137,6.2265 -0.211,1.2617 -0.625,1.8985 -4.414,1.8985 -0.214,0 -0.484,0.2812 -0.41,0.4882 l 0.551,1.6758 c 1.895,0 3.785,0 5.602,0 1.898,0 6.503,0.2149 7.421,0.2149 0.414,0 0.571,0 0.762,-0.2149 0.078,-0.0664 0.141,-0.7031 0.219,-1.8164 -2.656,-0.2812 -3.711,-0.6328 -3.93,-2.1758 -0.137,-1.5351 -0.137,-4.3359 -0.137,-7.3437 l 0,-7.1367 c 0,-6.51566 0.215,-7.28519 1.055,-7.64066 0.488,-0.26953 2.246,-0.33984 3.93,-0.33984 3.902,0.07031 6.225,0.55469 7.755,5.37891 0.15,0.35547 0.21,0.42187 0.35,0.42187 0.43,0 1.19,-0.27344 1.48,-0.42187 0.14,-0.06641 0.28,-0.33985 0.2,-0.625 -0.63,-2.58594 -1.12,-4.55079 -1.53,-6.4336 -0.07,-0.35156 -0.29,-0.63281 -0.7,-0.70312 -0.49,-0.070315 -0.98,-0.070315 -2.81,-0.070315 -1.815,0 -3.983,0.140625 -12.245,0.140625 -2.735,0 -5.102,-0.421875 -6.504,-0.488281 -0.219,0 -0.434,0 -0.488,0.203125 -0.137,0.421876 -0.493,1.609376 -0.356,1.757816 2.738,0.625 3.637,1.11328 4.067,2.58593 0.195,0.69532 0.269,2.03516 0.269,5.81251 l 0,8.6055" /><path
         id="path88"
         style="fill:#ffffff;fill-opacity:1;fill-rule:nonzero;stroke:none"
         d="m 1025.6,12.8125 c 2.09,0 4.33,0 6.99,0.0703 0.35,0 0.62,0.3477 0.43,0.7695 -1.62,4.7657 -2.74,7.5586 -3.87,10.6446 -1.52,-3.6446 -2.93,-7.0703 -4.34,-10.7813 -0.05,-0.3515 0.36,-0.7031 0.71,-0.7031 l 0.08,0 z m 5.44,17.9883 c 0.79,0 1.06,-0.1367 1.27,-0.6953 2.93,-7.8399 6.1,-16.1016 9.73,-23.80472 0.92,-1.88672 1.6,-2.72656 4.42,-3.21484 0.27,0 0.27,-0.14844 0.27,-0.77344 -0.14,-1.328125 -0.35,-1.394531 -0.76,-1.394531 -3.3,0.066406 -5.26,0.136721 -6.8,0.136721 -2.25,0 -4.41,-0.214846 -4.9,-0.214846 -0.14,0 -0.71,1.609376 -0.71,1.894536 1.9,0.55859 2.74,0.97656 2.74,1.61328 0,0.76953 -1.25,3.98046 -1.6,4.7539 -0.3,0.56641 -0.65,0.91014 -1.33,0.91014 -2.87,0.0664 -6.23,0.1445 -8.91,0 -0.76,0 -1.19,-0.42186 -1.52,-0.98045 -0.51,-1.05469 -1.19,-3.49609 -1.19,-4.12891 0,-0.625 0.41,-1.1914 2.65,-1.67968 0.36,-0.07032 0.41,-0.13672 0.41,-0.48828 0,-0.21485 -0.27,-1.25782 -0.41,-1.67969 -3.43,0.07031 -6.09,0.07031 -7.36,0.07031 -0.68,0 -2.09,-0.07031 -2.36,-0.07031 -0.22,0 -0.78,0.97656 -0.78,1.67969 0,0.28124 0.07,0.48828 0.13,0.48828 2.68,0.63281 3.23,1.125 4.85,4.26562 2.58,5.46092 6.01,13.44922 8.67,19.60152 0.57,1.1914 0.84,2.0977 0.98,2.668 0.13,0.2695 0.29,0.418 0.56,0.5547 0.57,0.2852 1.19,0.4883 1.9,0.4883 l 0.05,0" /></g></g></svg>