<?xml version="1.0" standalone="no"?>
<!DOCTYPE svg PUBLIC "-//W3C//DTD SVG 20010904//EN"
 "http://www.w3.org/TR/2001/REC-SVG-20010904/DTD/svg10.dtd">
<svg version="1.0" xmlns="http://www.w3.org/2000/svg"
 width="700.000000pt" height="700.000000pt" viewBox="0 0 700.000000 700.000000"
 preserveAspectRatio="xMidYMid meet">
<metadata>
Created by potrace 1.11, written by Peter Selinger 2001-2013
</metadata>
<g transform="translate(0.000000,700.000000) scale(0.100000,-0.100000)"
fill="#000000" stroke="none">
<path d="M3337 6994 c-1 -1 -45 -4 -97 -8 -117 -7 -238 -22 -350 -42 -47 -9
-96 -18 -110 -20 -54 -10 -300 -77 -385 -106 -210 -70 -475 -189 -623 -279
-35 -21 -66 -39 -68 -39 -9 0 -188 -120 -274 -183 -195 -144 -432 -363 -575
-531 -28 -32 -55 -64 -61 -70 -26 -27 -148 -193 -202 -273 -259 -386 -456
-868 -531 -1298 -6 -33 -13 -73 -16 -90 -3 -16 -8 -50 -10 -75 -3 -25 -7 -54
-10 -66 -19 -84 -26 -576 -11 -714 19 -178 21 -195 42 -315 8 -49 21 -115 29
-145 8 -30 16 -68 19 -85 12 -67 89 -307 142 -439 54 -136 129 -294 196 -414
17 -31 36 -66 42 -77 6 -11 14 -22 17 -25 3 -3 23 -34 44 -70 46 -77 173 -253
253 -352 77 -95 368 -387 467 -469 350 -288 757 -511 1180 -645 66 -21 122
-39 125 -39 3 -1 19 -4 35 -8 17 -4 39 -9 50 -12 11 -2 47 -11 80 -19 71 -17
279 -53 350 -60 171 -18 231 -21 415 -20 186 0 258 3 418 19 43 5 149 23 357
61 17 3 99 26 184 50 403 117 734 277 1086 527 55 39 107 78 116 86 9 9 25 23
36 31 125 98 353 319 454 440 30 36 57 67 60 70 18 16 153 201 215 295 181
276 326 584 422 900 32 103 86 329 97 400 3 22 10 65 15 95 5 30 12 82 15 115
3 33 9 94 14 135 8 78 6 498 -3 585 -90 849 -427 1566 -1011 2150 -287 288
-567 490 -933 673 -225 113 -571 235 -782 276 -49 9 -135 26 -155 30 -18 4
-135 21 -210 31 -99 13 -547 29 -558 19z m-88 -426 c-13 -25 -82 -145 -457
-793 -140 -242 -266 -460 -280 -485 -39 -70 -499 -865 -551 -955 -26 -44 -50
-87 -54 -95 -4 -8 -13 -24 -19 -35 -18 -27 -50 -82 -80 -135 -14 -25 -89 -155
-168 -290 -78 -135 -154 -265 -168 -290 -45 -81 -174 -304 -207 -360 -18 -30
-44 -75 -58 -100 -13 -25 -82 -144 -152 -265 -128 -220 -243 -419 -300 -518
-16 -29 -35 -60 -41 -70 -8 -15 -18 0 -56 90 -79 185 -121 308 -163 473 -23
88 -22 86 -50 250 -33 194 -39 269 -39 505 -1 265 9 375 55 615 22 113 95 373
128 455 75 183 104 249 156 351 403 786 1139 1371 2000 1588 126 31 309 65
400 72 39 4 72 8 74 10 2 2 13 4 23 4 16 0 17 -3 7 -22z m626 6 c219 -26 551
-105 672 -160 17 -8 35 -14 40 -14 5 0 46 -16 92 -35 427 -180 790 -434 1101
-771 91 -98 114 -126 196 -235 257 -338 450 -753 543 -1165 33 -141 32 -139
56 -304 20 -141 27 -514 12 -678 -7 -68 -45 -312 -61 -388 -13 -61 -80 -290
-106 -363 -34 -95 -122 -303 -126 -299 -1 2 -44 75 -94 163 -112 194 -310 537
-338 585 -12 19 -27 46 -35 60 -7 14 -81 142 -164 285 -83 143 -160 276 -170
295 -11 19 -136 235 -278 480 -142 245 -271 470 -288 500 -16 30 -42 75 -57
100 -26 41 -424 730 -645 1115 -51 88 -166 288 -257 445 -90 157 -179 311
-197 343 l-33 57 44 -5 c23 -2 66 -7 93 -11z m-282 -534 c46 -80 253 -439 461
-799 208 -360 380 -660 383 -667 4 -11 -158 -13 -936 -13 -518 0 -941 3 -941
7 0 4 16 33 35 65 19 32 35 60 35 63 0 3 8 18 19 32 10 15 29 47 43 72 32 57
287 499 453 785 70 121 137 237 149 258 11 21 26 46 31 55 6 10 46 79 89 155
44 75 83 136 88 135 4 -2 45 -68 91 -148z m908 -1892 c0 -7 2 -456 2 -996 1
-647 -1 -986 -8 -990 -12 -8 -1995 -10 -1996 -2 -3 15 -4 1986 -1 1993 2 4
453 7 1003 7 792 0 999 -3 1000 -12z m-2406 -1190 l0 -803 -467 -3 -466 -2 11
25 c7 14 15 25 20 25 4 0 7 4 7 9 0 5 63 118 140 251 77 133 140 246 140 251
0 5 5 9 10 9 6 0 10 4 10 9 0 4 29 58 64 119 36 61 76 131 89 154 13 24 56 97
94 163 38 66 131 227 207 358 76 130 139 237 140 237 1 0 1 -361 1 -802z
m2835 772 c0 -4 53 -99 118 -211 210 -361 384 -663 410 -709 14 -25 64 -112
112 -195 48 -82 128 -221 178 -307 l91 -158 -467 0 -468 0 0 804 c0 657 3 803
13 794 7 -6 13 -14 13 -18z m1120 -1988 c0 -5 -8 -17 -17 -28 -10 -10 -31 -37
-46 -60 -15 -22 -65 -85 -111 -140 -443 -529 -1038 -891 -1706 -1039 -58 -13
-122 -26 -142 -29 -21 -3 -55 -9 -75 -12 -21 -3 -48 -7 -60 -9 -159 -26 -634
-26 -783 0 -29 5 -91 14 -135 20 -62 9 -184 36 -305 70 -606 167 -1152 523
-1561 1015 -58 71 -159 206 -159 214 0 3 1148 6 2550 6 1403 0 2550 -4 2550
-8z"/>
</g>
</svg>
